<?xml version="1.0" encoding="UTF-8" standalone="no"?><svg xmlns="http://www.w3.org/2000/svg" xmlns:xlink="http://www.w3.org/1999/xlink" clip-rule="evenodd" stroke-miterlimit="4.00" viewBox="0 0 720 540"><desc>SVG generated by Keynote</desc><defs></defs><g transform="matrix(1.00, 0.00, -0.00, -1.00, 0.0, 540.0)"><path d="M 0.0 540.0 L 720.0 540.0 L 720.0 0.0 L 0.0 0.0 Z M 0.0 540.0 " fill="#FFFFFF"></path><image xlink:href="../../959DED14-411F-470F-9A21-18B730F5EE7D/assets/B6F187D4E3F6023025EAF6468F2904BF.png" width="664.00" height="355.00" transform="matrix(1.00, 0.00, -0.00, -1.00, 32.0, 501.0)"></image><text xml:space="preserve" font-family="TimesNewRomanPSMT" font-size="18.0" fill="#000000" transform="matrix(1.50, 0.00, -0.00, -1.50, 27.0, 77.0)">d</text><text xml:space="preserve" font-family="TimesNewRomanPSMT" font-size="18.0" fill="#000000" transform="matrix(1.50, 0.00, -0.00, -1.50, 40.5, 77.0)">r</text><text xml:space="preserve" font-family="TimesNewRomanPSMT" font-size="18.0" fill="#000000" transform="matrix(1.50, 0.00, -0.00, -1.50, 49.5, 77.0)">o</text><text xml:space="preserve" font-family="TimesNewRomanPSMT" font-size="18.0" fill="#000000" transform="matrix(1.50, 0.00, -0.00, -1.50, 63.0, 77.0)">n</text><text xml:space="preserve" font-family="TimesNewRomanPSMT" font-size="18.0" fill="#000000" transform="matrix(1.50, 0.00, -0.00, -1.50, 76.5, 77.0)">e</text><text xml:space="preserve" font-family="TimesNewRomanPSMT" font-size="18.0" fill="#000000" transform="matrix(1.50, 0.00, -0.00, -1.50, 88.5, 77.0)">-</text><text xml:space="preserve" font-family="TimesNewRomanPSMT" font-size="18.0" fill="#000000" transform="matrix(1.50, 0.00, -0.00, -1.50, 97.5, 77.0)">s</text><text xml:space="preserve" font-family="TimesNewRomanPSMT" font-size="18.0" fill="#000000" transform="matrix(1.50, 0.00, -0.00, -1.50, 108.0, 77.0)">a</text><text xml:space="preserve" font-family="TimesNewRomanPSMT" font-size="18.0" fill="#000000" transform="matrix(1.50, 0.00, -0.00, -1.50, 120.0, 77.0)">l</text><text xml:space="preserve" font-family="TimesNewRomanPSMT" font-size="18.0" fill="#000000" transform="matrix(1.50, 0.00, -0.00, -1.50, 127.4, 77.0)">e</text><text xml:space="preserve" font-family="TimesNewRomanPSMT" font-size="18.0" fill="#000000" transform="matrix(1.50, 0.00, -0.00, -1.50, 139.4, 77.0)">s</text><text xml:space="preserve" font-family="TimesNewRomanPSMT" font-size="18.0" fill="#000000" transform="matrix(1.50, 0.00, -0.00, -1.50, 149.9, 77.0)">-</text><text xml:space="preserve" font-family="TimesNewRomanPSMT" font-size="18.0" fill="#000000" transform="matrix(1.50, 0.00, -0.00, -1.50, 158.9, 77.0)">n</text><text xml:space="preserve" font-family="TimesNewRomanPSMT" font-size="18.0" fill="#000000" transform="matrix(1.50, 0.00, -0.00, -1.50, 172.4, 77.0)">u</text><text xml:space="preserve" font-family="TimesNewRomanPSMT" font-size="18.0" fill="#000000" transform="matrix(1.50, 0.00, -0.00, -1.50, 185.9, 77.0)">m</text><text xml:space="preserve" font-family="TimesNewRomanPSMT" font-size="18.0" fill="#000000" transform="matrix(1.50, 0.00, -0.00, -1.50, 206.9, 77.0)">b</text><text xml:space="preserve" font-family="TimesNewRomanPSMT" font-size="18.0" fill="#000000" transform="matrix(1.50, 0.00, -0.00, -1.50, 220.4, 77.0)">e</text><text xml:space="preserve" font-family="TimesNewRomanPSMT" font-size="18.0" fill="#000000" transform="matrix(1.50, 0.00, -0.00, -1.50, 232.4, 77.0)">r</text><text xml:space="preserve" font-family="TimesNewRomanPSMT" font-size="18.0" fill="#000000" transform="matrix(1.50, 0.00, -0.00, -1.50, 241.4, 77.0)">s</text><text xml:space="preserve" font-family="TimesNewRomanPSMT" font-size="18.0" fill="#000000" transform="matrix(1.50, 0.00, -0.00, -1.50, 251.9, 77.0)">-</text><text xml:space="preserve" font-family="TimesNewRomanPSMT" font-size="18.0" fill="#000000" transform="matrix(1.50, 0.00, -0.00, -1.50, 260.9, 77.0)">n</text><text xml:space="preserve" font-family="TimesNewRomanPSMT" font-size="18.0" fill="#000000" transform="matrix(1.50, 0.00, -0.00, -1.50, 274.4, 77.0)">o</text><text xml:space="preserve" font-family="TimesNewRomanPSMT" font-size="18.0" fill="#000000" transform="matrix(1.50, 0.00, -0.00, -1.50, 287.9, 77.0)">b</text><text xml:space="preserve" font-family="TimesNewRomanPSMT" font-size="18.0" fill="#000000" transform="matrix(1.50, 0.00, -0.00, -1.50, 301.4, 77.0)">o</text><text xml:space="preserve" font-family="TimesNewRomanPSMT" font-size="18.0" fill="#000000" transform="matrix(1.50, 0.00, -0.00, -1.50, 314.9, 77.0)">d</text><text xml:space="preserve" font-family="TimesNewRomanPSMT" font-size="18.0" fill="#000000" transform="matrix(1.50, 0.00, -0.00, -1.50, 328.4, 77.0)">y</text><text xml:space="preserve" font-family="TimesNewRomanPSMT" font-size="18.0" fill="#000000" transform="matrix(1.50, 0.00, -0.00, -1.50, 341.9, 77.0)">-</text><text xml:space="preserve" font-family="TimesNewRomanPSMT" font-size="18.0" fill="#000000" transform="matrix(1.50, 0.00, -0.00, -1.50, 350.9, 77.0)">k</text><text xml:space="preserve" font-family="TimesNewRomanPSMT" font-size="18.0" fill="#000000" transform="matrix(1.50, 0.00, -0.00, -1.50, 364.4, 77.0)">n</text><text xml:space="preserve" font-family="TimesNewRomanPSMT" font-size="18.0" fill="#000000" transform="matrix(1.50, 0.00, -0.00, -1.50, 377.9, 77.0)">o</text><text xml:space="preserve" font-family="TimesNewRomanPSMT" font-size="18.0" fill="#000000" transform="matrix(1.50, 0.00, -0.00, -1.50, 391.4, 77.0)">w</text><text xml:space="preserve" font-family="TimesNewRomanPSMT" font-size="18.0" fill="#000000" transform="matrix(1.50, 0.00, -0.00, -1.50, 410.9, 77.0)">s</text><text xml:space="preserve" font-family="TimesNewRomanPSMT" font-size="18.0" fill="#000000" transform="matrix(1.50, 0.00, -0.00, -1.50, 421.4, 77.0)">-</text><text xml:space="preserve" font-family="TimesNewRomanPSMT" font-size="18.0" fill="#000000" transform="matrix(1.50, 0.00, -0.00, -1.50, 430.4, 77.0)">s</text><text xml:space="preserve" font-family="TimesNewRomanPSMT" font-size="18.0" fill="#000000" transform="matrix(1.50, 0.00, -0.00, -1.50, 440.9, 77.0)">o</text><text xml:space="preserve" font-family="TimesNewRomanPSMT" font-size="18.0" fill="#000000" transform="matrix(1.50, 0.00, -0.00, -1.50, 454.4, 77.0)">-</text><text xml:space="preserve" font-family="TimesNewRomanPSMT" font-size="18.0" fill="#000000" transform="matrix(1.50, 0.00, -0.00, -1.50, 463.4, 77.0)">w</text><text xml:space="preserve" font-family="TimesNewRomanPSMT" font-size="18.0" fill="#000000" transform="matrix(1.50, 0.00, -0.00, -1.50, 482.9, 77.0)">e</text><text xml:space="preserve" font-family="TimesNewRomanPSMT" font-size="18.0" fill="#000000" transform="matrix(1.50, 0.00, -0.00, -1.50, 494.9, 77.0)">-</text><text xml:space="preserve" font-family="TimesNewRomanPSMT" font-size="18.0" fill="#000000" transform="matrix(1.50, 0.00, -0.00, -1.50, 503.9, 77.0)">v</text><text xml:space="preserve" font-family="TimesNewRomanPSMT" font-size="18.0" fill="#000000" transform="matrix(1.50, 0.00, -0.00, -1.50, 517.4, 77.0)">e</text><text xml:space="preserve" font-family="TimesNewRomanPSMT" font-size="18.0" fill="#000000" transform="matrix(1.50, 0.00, -0.00, -1.50, 529.4, 77.0)">n</text><text xml:space="preserve" font-family="TimesNewRomanPSMT" font-size="18.0" fill="#000000" transform="matrix(1.50, 0.00, -0.00, -1.50, 542.9, 77.0)">t</text><text xml:space="preserve" font-family="TimesNewRomanPSMT" font-size="18.0" fill="#000000" transform="matrix(1.50, 0.00, -0.00, -1.50, 550.4, 77.0)">u</text><text xml:space="preserve" font-family="TimesNewRomanPSMT" font-size="18.0" fill="#000000" transform="matrix(1.50, 0.00, -0.00, -1.50, 563.9, 77.0)">r</text><text xml:space="preserve" font-family="TimesNewRomanPSMT" font-size="18.0" fill="#000000" transform="matrix(1.50, 0.00, -0.00, -1.50, 572.8, 77.0)">e</text><text xml:space="preserve" font-family="TimesNewRomanPSMT" font-size="18.0" fill="#000000" transform="matrix(1.50, 0.00, -0.00, -1.50, 584.8, 77.0)">-</text><text xml:space="preserve" font-family="TimesNewRomanPSMT" font-size="18.0" fill="#000000" transform="matrix(1.50, 0.00, -0.00, -1.50, 593.8, 77.0)">a</text><text xml:space="preserve" font-family="TimesNewRomanPSMT" font-size="18.0" fill="#000000" transform="matrix(1.50, 0.00, -0.00, -1.50, 605.8, 77.0)">-</text><text xml:space="preserve" font-family="TimesNewRomanPSMT" font-size="18.0" fill="#000000" transform="matrix(1.50, 0.00, -0.00, -1.50, 614.8, 77.0)">g</text><text xml:space="preserve" font-family="TimesNewRomanPSMT" font-size="18.0" fill="#000000" transform="matrix(1.50, 0.00, -0.00, -1.50, 628.3, 77.0)">u</text><text xml:space="preserve" font-family="TimesNewRomanPSMT" font-size="18.0" fill="#000000" transform="matrix(1.50, 0.00, -0.00, -1.50, 641.8, 77.0)">e</text><text xml:space="preserve" font-family="TimesNewRomanPSMT" font-size="18.0" fill="#000000" transform="matrix(1.50, 0.00, -0.00, -1.50, 653.8, 77.0)">s</text><text xml:space="preserve" font-family="TimesNewRomanPSMT" font-size="18.0" fill="#000000" transform="matrix(1.50, 0.00, -0.00, -1.50, 664.3, 77.0)">s</text><text xml:space="preserve" font-family="TimesNewRomanPSMT" font-size="18.0" fill="#000000" transform="matrix(1.50, 0.00, -0.00, -1.50, 674.8, 77.0)">/</text></g></svg>