<?xml version="1.0" encoding="UTF-8" standalone="no"?><svg xmlns="http://www.w3.org/2000/svg" xmlns:xlink="http://www.w3.org/1999/xlink" clip-rule="evenodd" stroke-miterlimit="4.00" viewBox="0 0 440 20"><desc>SVG generated by Keynote</desc><defs></defs><g transform="matrix(1.00, 0.00, -0.00, -1.00, 0.0, 20.0)"><text xml:space="preserve" font-family="TimesNewRomanPSMT" font-size="18.0" fill="#000000" transform="matrix(1.00, 0.00, -0.00, -1.00, 1.0, 5.0)">d</text><text xml:space="preserve" font-family="TimesNewRomanPSMT" font-size="18.0" fill="#000000" transform="matrix(1.00, 0.00, -0.00, -1.00, 10.0, 5.0)">r</text><text xml:space="preserve" font-family="TimesNewRomanPSMT" font-size="18.0" fill="#000000" transform="matrix(1.00, 0.00, -0.00, -1.00, 16.0, 5.0)">o</text><text xml:space="preserve" font-family="TimesNewRomanPSMT" font-size="18.0" fill="#000000" transform="matrix(1.00, 0.00, -0.00, -1.00, 25.0, 5.0)">n</text><text xml:space="preserve" font-family="TimesNewRomanPSMT" font-size="18.0" fill="#000000" transform="matrix(1.00, 0.00, -0.00, -1.00, 34.0, 5.0)">e</text><text xml:space="preserve" font-family="TimesNewRomanPSMT" font-size="18.0" fill="#000000" transform="matrix(1.00, 0.00, -0.00, -1.00, 42.0, 5.0)">-</text><text xml:space="preserve" font-family="TimesNewRomanPSMT" font-size="18.0" fill="#000000" transform="matrix(1.00, 0.00, -0.00, -1.00, 48.0, 5.0)">s</text><text xml:space="preserve" font-family="TimesNewRomanPSMT" font-size="18.0" fill="#000000" transform="matrix(1.00, 0.00, -0.00, -1.00, 55.0, 5.0)">a</text><text xml:space="preserve" font-family="TimesNewRomanPSMT" font-size="18.0" fill="#000000" transform="matrix(1.00, 0.00, -0.00, -1.00, 63.0, 5.0)">l</text><text xml:space="preserve" font-family="TimesNewRomanPSMT" font-size="18.0" fill="#000000" transform="matrix(1.00, 0.00, -0.00, -1.00, 68.0, 5.0)">e</text><text xml:space="preserve" font-family="TimesNewRomanPSMT" font-size="18.0" fill="#000000" transform="matrix(1.00, 0.00, -0.00, -1.00, 76.0, 5.0)">s</text><text xml:space="preserve" font-family="TimesNewRomanPSMT" font-size="18.0" fill="#000000" transform="matrix(1.00, 0.00, -0.00, -1.00, 83.0, 5.0)">-</text><text xml:space="preserve" font-family="TimesNewRomanPSMT" font-size="18.0" fill="#000000" transform="matrix(1.00, 0.00, -0.00, -1.00, 89.0, 5.0)">n</text><text xml:space="preserve" font-family="TimesNewRomanPSMT" font-size="18.0" fill="#000000" transform="matrix(1.00, 0.00, -0.00, -1.00, 98.0, 5.0)">u</text><text xml:space="preserve" font-family="TimesNewRomanPSMT" font-size="18.0" fill="#000000" transform="matrix(1.00, 0.00, -0.00, -1.00, 107.0, 5.0)">m</text><text xml:space="preserve" font-family="TimesNewRomanPSMT" font-size="18.0" fill="#000000" transform="matrix(1.00, 0.00, -0.00, -1.00, 121.0, 5.0)">b</text><text xml:space="preserve" font-family="TimesNewRomanPSMT" font-size="18.0" fill="#000000" transform="matrix(1.00, 0.00, -0.00, -1.00, 130.0, 5.0)">e</text><text xml:space="preserve" font-family="TimesNewRomanPSMT" font-size="18.0" fill="#000000" transform="matrix(1.00, 0.00, -0.00, -1.00, 137.9, 5.0)">r</text><text xml:space="preserve" font-family="TimesNewRomanPSMT" font-size="18.0" fill="#000000" transform="matrix(1.00, 0.00, -0.00, -1.00, 143.9, 5.0)">s</text><text xml:space="preserve" font-family="TimesNewRomanPSMT" font-size="18.0" fill="#000000" transform="matrix(1.00, 0.00, -0.00, -1.00, 150.9, 5.0)">-</text><text xml:space="preserve" font-family="TimesNewRomanPSMT" font-size="18.0" fill="#000000" transform="matrix(1.00, 0.00, -0.00, -1.00, 156.9, 5.0)">n</text><text xml:space="preserve" font-family="TimesNewRomanPSMT" font-size="18.0" fill="#000000" transform="matrix(1.00, 0.00, -0.00, -1.00, 165.9, 5.0)">o</text><text xml:space="preserve" font-family="TimesNewRomanPSMT" font-size="18.0" fill="#000000" transform="matrix(1.00, 0.00, -0.00, -1.00, 174.9, 5.0)">b</text><text xml:space="preserve" font-family="TimesNewRomanPSMT" font-size="18.0" fill="#000000" transform="matrix(1.00, 0.00, -0.00, -1.00, 183.9, 5.0)">o</text><text xml:space="preserve" font-family="TimesNewRomanPSMT" font-size="18.0" fill="#000000" transform="matrix(1.00, 0.00, -0.00, -1.00, 192.9, 5.0)">d</text><text xml:space="preserve" font-family="TimesNewRomanPSMT" font-size="18.0" fill="#000000" transform="matrix(1.00, 0.00, -0.00, -1.00, 201.9, 5.0)">y</text><text xml:space="preserve" font-family="TimesNewRomanPSMT" font-size="18.0" fill="#000000" transform="matrix(1.00, 0.00, -0.00, -1.00, 210.9, 5.0)">-</text><text xml:space="preserve" font-family="TimesNewRomanPSMT" font-size="18.0" fill="#000000" transform="matrix(1.00, 0.00, -0.00, -1.00, 216.9, 5.0)">k</text><text xml:space="preserve" font-family="TimesNewRomanPSMT" font-size="18.0" fill="#000000" transform="matrix(1.00, 0.00, -0.00, -1.00, 225.9, 5.0)">n</text><text xml:space="preserve" font-family="TimesNewRomanPSMT" font-size="18.0" fill="#000000" transform="matrix(1.00, 0.00, -0.00, -1.00, 234.9, 5.0)">o</text><text xml:space="preserve" font-family="TimesNewRomanPSMT" font-size="18.0" fill="#000000" transform="matrix(1.00, 0.00, -0.00, -1.00, 243.9, 5.0)">w</text><text xml:space="preserve" font-family="TimesNewRomanPSMT" font-size="18.0" fill="#000000" transform="matrix(1.00, 0.00, -0.00, -1.00, 256.9, 5.0)">s</text><text xml:space="preserve" font-family="TimesNewRomanPSMT" font-size="18.0" fill="#000000" transform="matrix(1.00, 0.00, -0.00, -1.00, 263.9, 5.0)">-</text><text xml:space="preserve" font-family="TimesNewRomanPSMT" font-size="18.0" fill="#000000" transform="matrix(1.00, 0.00, -0.00, -1.00, 269.9, 5.0)">s</text><text xml:space="preserve" font-family="TimesNewRomanPSMT" font-size="18.0" fill="#000000" transform="matrix(1.00, 0.00, -0.00, -1.00, 276.9, 5.0)">o</text><text xml:space="preserve" font-family="TimesNewRomanPSMT" font-size="18.0" fill="#000000" transform="matrix(1.00, 0.00, -0.00, -1.00, 285.9, 5.0)">-</text><text xml:space="preserve" font-family="TimesNewRomanPSMT" font-size="18.0" fill="#000000" transform="matrix(1.00, 0.00, -0.00, -1.00, 291.9, 5.0)">w</text><text xml:space="preserve" font-family="TimesNewRomanPSMT" font-size="18.0" fill="#000000" transform="matrix(1.00, 0.00, -0.00, -1.00, 304.9, 5.0)">e</text><text xml:space="preserve" font-family="TimesNewRomanPSMT" font-size="18.0" fill="#000000" transform="matrix(1.00, 0.00, -0.00, -1.00, 312.9, 5.0)">-</text><text xml:space="preserve" font-family="TimesNewRomanPSMT" font-size="18.0" fill="#000000" transform="matrix(1.00, 0.00, -0.00, -1.00, 318.9, 5.0)">v</text><text xml:space="preserve" font-family="TimesNewRomanPSMT" font-size="18.0" fill="#000000" transform="matrix(1.00, 0.00, -0.00, -1.00, 327.9, 5.0)">e</text><text xml:space="preserve" font-family="TimesNewRomanPSMT" font-size="18.0" fill="#000000" transform="matrix(1.00, 0.00, -0.00, -1.00, 335.9, 5.0)">n</text><text xml:space="preserve" font-family="TimesNewRomanPSMT" font-size="18.0" fill="#000000" transform="matrix(1.00, 0.00, -0.00, -1.00, 344.9, 5.0)">t</text><text xml:space="preserve" font-family="TimesNewRomanPSMT" font-size="18.0" fill="#000000" transform="matrix(1.00, 0.00, -0.00, -1.00, 349.9, 5.0)">u</text><text xml:space="preserve" font-family="TimesNewRomanPSMT" font-size="18.0" fill="#000000" transform="matrix(1.00, 0.00, -0.00, -1.00, 358.9, 5.0)">r</text><text xml:space="preserve" font-family="TimesNewRomanPSMT" font-size="18.0" fill="#000000" transform="matrix(1.00, 0.00, -0.00, -1.00, 364.9, 5.0)">e</text><text xml:space="preserve" font-family="TimesNewRomanPSMT" font-size="18.0" fill="#000000" transform="matrix(1.00, 0.00, -0.00, -1.00, 372.9, 5.0)">-</text><text xml:space="preserve" font-family="TimesNewRomanPSMT" font-size="18.0" fill="#000000" transform="matrix(1.00, 0.00, -0.00, -1.00, 378.9, 5.0)">a</text><text xml:space="preserve" font-family="TimesNewRomanPSMT" font-size="18.0" fill="#000000" transform="matrix(1.00, 0.00, -0.00, -1.00, 386.9, 5.0)">-</text><text xml:space="preserve" font-family="TimesNewRomanPSMT" font-size="18.0" fill="#000000" transform="matrix(1.00, 0.00, -0.00, -1.00, 392.9, 5.0)">g</text><text xml:space="preserve" font-family="TimesNewRomanPSMT" font-size="18.0" fill="#000000" transform="matrix(1.00, 0.00, -0.00, -1.00, 401.9, 5.0)">u</text><text xml:space="preserve" font-family="TimesNewRomanPSMT" font-size="18.0" fill="#000000" transform="matrix(1.00, 0.00, -0.00, -1.00, 410.9, 5.0)">e</text><text xml:space="preserve" font-family="TimesNewRomanPSMT" font-size="18.0" fill="#000000" transform="matrix(1.00, 0.00, -0.00, -1.00, 418.8, 5.0)">s</text><text xml:space="preserve" font-family="TimesNewRomanPSMT" font-size="18.0" fill="#000000" transform="matrix(1.00, 0.00, -0.00, -1.00, 425.8, 5.0)">s</text><text xml:space="preserve" font-family="TimesNewRomanPSMT" font-size="18.0" fill="#000000" transform="matrix(1.00, 0.00, -0.00, -1.00, 432.9, 5.0)">/</text></g></svg>