<?xml version="1.0" encoding="UTF-8" standalone="no"?><svg xmlns="http://www.w3.org/2000/svg" xmlns:xlink="http://www.w3.org/1999/xlink" clip-rule="evenodd" stroke-miterlimit="4.00" viewBox="0 0 602 18"><desc>SVG generated by Keynote</desc><defs></defs><g transform="matrix(1.00, 0.00, -0.00, -1.00, 0.0, 18.0)"><text xml:space="preserve" font-family="TimesNewRomanPSMT" font-size="16.0" fill="#000000" transform="matrix(1.00, 0.00, -0.00, -1.00, 2.0, 5.0)">h</text><text xml:space="preserve" font-family="TimesNewRomanPSMT" font-size="16.0" fill="#000000" transform="matrix(1.00, 0.00, -0.00, -1.00, 10.0, 5.0)">t</text><text xml:space="preserve" font-family="TimesNewRomanPSMT" font-size="16.0" fill="#000000" transform="matrix(1.00, 0.00, -0.00, -1.00, 14.4, 5.0)">t</text><text xml:space="preserve" font-family="TimesNewRomanPSMT" font-size="16.0" fill="#000000" transform="matrix(1.00, 0.00, -0.00, -1.00, 18.9, 5.0)">p</text><text xml:space="preserve" font-family="TimesNewRomanPSMT" font-size="16.0" fill="#000000" transform="matrix(1.00, 0.00, -0.00, -1.00, 26.9, 5.0)">:</text><text xml:space="preserve" font-family="TimesNewRomanPSMT" font-size="16.0" fill="#000000" transform="matrix(1.00, 0.00, -0.00, -1.00, 31.3, 5.0)">/</text><text xml:space="preserve" font-family="TimesNewRomanPSMT" font-size="16.0" fill="#000000" transform="matrix(1.00, 0.00, -0.00, -1.00, 35.8, 5.0)">/</text><text xml:space="preserve" font-family="TimesNewRomanPSMT" font-size="16.0" fill="#000000" transform="matrix(1.00, 0.00, -0.00, -1.00, 40.2, 5.0)">d</text><text xml:space="preserve" font-family="TimesNewRomanPSMT" font-size="16.0" fill="#000000" transform="matrix(1.00, 0.00, -0.00, -1.00, 48.2, 5.0)">r</text><text xml:space="preserve" font-family="TimesNewRomanPSMT" font-size="16.0" fill="#000000" transform="matrix(1.00, 0.00, -0.00, -1.00, 53.5, 5.0)">o</text><text xml:space="preserve" font-family="TimesNewRomanPSMT" font-size="16.0" fill="#000000" transform="matrix(1.00, 0.00, -0.00, -1.00, 61.5, 5.0)">n</text><text xml:space="preserve" font-family="TimesNewRomanPSMT" font-size="16.0" fill="#000000" transform="matrix(1.00, 0.00, -0.00, -1.00, 69.5, 5.0)">e</text><text xml:space="preserve" font-family="TimesNewRomanPSMT" font-size="16.0" fill="#000000" transform="matrix(1.00, 0.00, -0.00, -1.00, 76.6, 5.0)">l</text><text xml:space="preserve" font-family="TimesNewRomanPSMT" font-size="16.0" fill="#000000" transform="matrix(1.00, 0.00, -0.00, -1.00, 81.1, 5.0)">i</text><text xml:space="preserve" font-family="TimesNewRomanPSMT" font-size="16.0" fill="#000000" transform="matrix(1.00, 0.00, -0.00, -1.00, 85.5, 5.0)">f</text><text xml:space="preserve" font-family="TimesNewRomanPSMT" font-size="16.0" fill="#000000" transform="matrix(1.00, 0.00, -0.00, -1.00, 90.8, 5.0)">e</text><text xml:space="preserve" font-family="TimesNewRomanPSMT" font-size="16.0" fill="#000000" transform="matrix(1.00, 0.00, -0.00, -1.00, 97.9, 5.0)">.</text><text xml:space="preserve" font-family="TimesNewRomanPSMT" font-size="16.0" fill="#000000" transform="matrix(1.00, 0.00, -0.00, -1.00, 101.9, 5.0)">c</text><text xml:space="preserve" font-family="TimesNewRomanPSMT" font-size="16.0" fill="#000000" transform="matrix(1.00, 0.00, -0.00, -1.00, 109.0, 5.0)">o</text><text xml:space="preserve" font-family="TimesNewRomanPSMT" font-size="16.0" fill="#000000" transform="matrix(1.00, 0.00, -0.00, -1.00, 117.0, 5.0)">m</text><text xml:space="preserve" font-family="TimesNewRomanPSMT" font-size="16.0" fill="#000000" transform="matrix(1.00, 0.00, -0.00, -1.00, 129.5, 5.0)">/</text><text xml:space="preserve" font-family="TimesNewRomanPSMT" font-size="16.0" fill="#000000" transform="matrix(1.00, 0.00, -0.00, -1.00, 133.9, 5.0)">2</text><text xml:space="preserve" font-family="TimesNewRomanPSMT" font-size="16.0" fill="#000000" transform="matrix(1.00, 0.00, -0.00, -1.00, 141.9, 5.0)">0</text><text xml:space="preserve" font-family="TimesNewRomanPSMT" font-size="16.0" fill="#000000" transform="matrix(1.00, 0.00, -0.00, -1.00, 149.9, 5.0)">1</text><text xml:space="preserve" font-family="TimesNewRomanPSMT" font-size="16.0" fill="#000000" transform="matrix(1.00, 0.00, -0.00, -1.00, 157.9, 5.0)">5</text><text xml:space="preserve" font-family="TimesNewRomanPSMT" font-size="16.0" fill="#000000" transform="matrix(1.00, 0.00, -0.00, -1.00, 165.9, 5.0)">/</text><text xml:space="preserve" font-family="TimesNewRomanPSMT" font-size="16.0" fill="#000000" transform="matrix(1.00, 0.00, -0.00, -1.00, 170.4, 5.0)">0</text><text xml:space="preserve" font-family="TimesNewRomanPSMT" font-size="16.0" fill="#000000" transform="matrix(1.00, 0.00, -0.00, -1.00, 178.4, 5.0)">4</text><text xml:space="preserve" font-family="TimesNewRomanPSMT" font-size="16.0" fill="#000000" transform="matrix(1.00, 0.00, -0.00, -1.00, 186.4, 5.0)">/</text><text xml:space="preserve" font-family="TimesNewRomanPSMT" font-size="16.0" fill="#000000" transform="matrix(1.00, 0.00, -0.00, -1.00, 190.8, 5.0)">1</text><text xml:space="preserve" font-family="TimesNewRomanPSMT" font-size="16.0" fill="#000000" transform="matrix(1.00, 0.00, -0.00, -1.00, 198.8, 5.0)">6</text><text xml:space="preserve" font-family="TimesNewRomanPSMT" font-size="16.0" fill="#000000" transform="matrix(1.00, 0.00, -0.00, -1.00, 206.8, 5.0)">/</text><text xml:space="preserve" font-family="TimesNewRomanPSMT" font-size="16.0" fill="#000000" transform="matrix(1.00, 0.00, -0.00, -1.00, 211.3, 5.0)">d</text><text xml:space="preserve" font-family="TimesNewRomanPSMT" font-size="16.0" fill="#000000" transform="matrix(1.00, 0.00, -0.00, -1.00, 219.3, 5.0)">r</text><text xml:space="preserve" font-family="TimesNewRomanPSMT" font-size="16.0" fill="#000000" transform="matrix(1.00, 0.00, -0.00, -1.00, 224.6, 5.0)">o</text><text xml:space="preserve" font-family="TimesNewRomanPSMT" font-size="16.0" fill="#000000" transform="matrix(1.00, 0.00, -0.00, -1.00, 232.6, 5.0)">n</text><text xml:space="preserve" font-family="TimesNewRomanPSMT" font-size="16.0" fill="#000000" transform="matrix(1.00, 0.00, -0.00, -1.00, 240.6, 5.0)">e</text><text xml:space="preserve" font-family="TimesNewRomanPSMT" font-size="16.0" fill="#000000" transform="matrix(1.00, 0.00, -0.00, -1.00, 247.7, 5.0)">-</text><text xml:space="preserve" font-family="TimesNewRomanPSMT" font-size="16.0" fill="#000000" transform="matrix(1.00, 0.00, -0.00, -1.00, 253.0, 5.0)">s</text><text xml:space="preserve" font-family="TimesNewRomanPSMT" font-size="16.0" fill="#000000" transform="matrix(1.00, 0.00, -0.00, -1.00, 259.2, 5.0)">a</text><text xml:space="preserve" font-family="TimesNewRomanPSMT" font-size="16.0" fill="#000000" transform="matrix(1.00, 0.00, -0.00, -1.00, 266.3, 5.0)">l</text><text xml:space="preserve" font-family="TimesNewRomanPSMT" font-size="16.0" fill="#000000" transform="matrix(1.00, 0.00, -0.00, -1.00, 270.8, 5.0)">e</text><text xml:space="preserve" font-family="TimesNewRomanPSMT" font-size="16.0" fill="#000000" transform="matrix(1.00, 0.00, -0.00, -1.00, 277.9, 5.0)">s</text><text xml:space="preserve" font-family="TimesNewRomanPSMT" font-size="16.0" fill="#000000" transform="matrix(1.00, 0.00, -0.00, -1.00, 284.1, 5.0)">-</text><text xml:space="preserve" font-family="TimesNewRomanPSMT" font-size="16.0" fill="#000000" transform="matrix(1.00, 0.00, -0.00, -1.00, 289.4, 5.0)">n</text><text xml:space="preserve" font-family="TimesNewRomanPSMT" font-size="16.0" fill="#000000" transform="matrix(1.00, 0.00, -0.00, -1.00, 297.4, 5.0)">u</text><text xml:space="preserve" font-family="TimesNewRomanPSMT" font-size="16.0" fill="#000000" transform="matrix(1.00, 0.00, -0.00, -1.00, 305.4, 5.0)">m</text><text xml:space="preserve" font-family="TimesNewRomanPSMT" font-size="16.0" fill="#000000" transform="matrix(1.00, 0.00, -0.00, -1.00, 317.9, 5.0)">b</text><text xml:space="preserve" font-family="TimesNewRomanPSMT" font-size="16.0" fill="#000000" transform="matrix(1.00, 0.00, -0.00, -1.00, 325.9, 5.0)">e</text><text xml:space="preserve" font-family="TimesNewRomanPSMT" font-size="16.0" fill="#000000" transform="matrix(1.00, 0.00, -0.00, -1.00, 333.0, 5.0)">r</text><text xml:space="preserve" font-family="TimesNewRomanPSMT" font-size="16.0" fill="#000000" transform="matrix(1.00, 0.00, -0.00, -1.00, 338.3, 5.0)">s</text><text xml:space="preserve" font-family="TimesNewRomanPSMT" font-size="16.0" fill="#000000" transform="matrix(1.00, 0.00, -0.00, -1.00, 344.5, 5.0)">-</text><text xml:space="preserve" font-family="TimesNewRomanPSMT" font-size="16.0" fill="#000000" transform="matrix(1.00, 0.00, -0.00, -1.00, 349.9, 5.0)">n</text><text xml:space="preserve" font-family="TimesNewRomanPSMT" font-size="16.0" fill="#000000" transform="matrix(1.00, 0.00, -0.00, -1.00, 357.9, 5.0)">o</text><text xml:space="preserve" font-family="TimesNewRomanPSMT" font-size="16.0" fill="#000000" transform="matrix(1.00, 0.00, -0.00, -1.00, 365.9, 5.0)">b</text><text xml:space="preserve" font-family="TimesNewRomanPSMT" font-size="16.0" fill="#000000" transform="matrix(1.00, 0.00, -0.00, -1.00, 373.9, 5.0)">o</text><text xml:space="preserve" font-family="TimesNewRomanPSMT" font-size="16.0" fill="#000000" transform="matrix(1.00, 0.00, -0.00, -1.00, 381.9, 5.0)">d</text><text xml:space="preserve" font-family="TimesNewRomanPSMT" font-size="16.0" fill="#000000" transform="matrix(1.00, 0.00, -0.00, -1.00, 389.9, 5.0)">y</text><text xml:space="preserve" font-family="TimesNewRomanPSMT" font-size="16.0" fill="#000000" transform="matrix(1.00, 0.00, -0.00, -1.00, 397.9, 5.0)">-</text><text xml:space="preserve" font-family="TimesNewRomanPSMT" font-size="16.0" fill="#000000" transform="matrix(1.00, 0.00, -0.00, -1.00, 403.2, 5.0)">k</text><text xml:space="preserve" font-family="TimesNewRomanPSMT" font-size="16.0" fill="#000000" transform="matrix(1.00, 0.00, -0.00, -1.00, 411.2, 5.0)">n</text><text xml:space="preserve" font-family="TimesNewRomanPSMT" font-size="16.0" fill="#000000" transform="matrix(1.00, 0.00, -0.00, -1.00, 419.2, 5.0)">o</text><text xml:space="preserve" font-family="TimesNewRomanPSMT" font-size="16.0" fill="#000000" transform="matrix(1.00, 0.00, -0.00, -1.00, 427.2, 5.0)">w</text><text xml:space="preserve" font-family="TimesNewRomanPSMT" font-size="16.0" fill="#000000" transform="matrix(1.00, 0.00, -0.00, -1.00, 438.8, 5.0)">s</text><text xml:space="preserve" font-family="TimesNewRomanPSMT" font-size="16.0" fill="#000000" transform="matrix(1.00, 0.00, -0.00, -1.00, 445.0, 5.0)">-</text><text xml:space="preserve" font-family="TimesNewRomanPSMT" font-size="16.0" fill="#000000" transform="matrix(1.00, 0.00, -0.00, -1.00, 450.3, 5.0)">s</text><text xml:space="preserve" font-family="TimesNewRomanPSMT" font-size="16.0" fill="#000000" transform="matrix(1.00, 0.00, -0.00, -1.00, 456.5, 5.0)">o</text><text xml:space="preserve" font-family="TimesNewRomanPSMT" font-size="16.0" fill="#000000" transform="matrix(1.00, 0.00, -0.00, -1.00, 464.5, 5.0)">-</text><text xml:space="preserve" font-family="TimesNewRomanPSMT" font-size="16.0" fill="#000000" transform="matrix(1.00, 0.00, -0.00, -1.00, 469.9, 5.0)">w</text><text xml:space="preserve" font-family="TimesNewRomanPSMT" font-size="16.0" fill="#000000" transform="matrix(1.00, 0.00, -0.00, -1.00, 481.4, 5.0)">e</text><text xml:space="preserve" font-family="TimesNewRomanPSMT" font-size="16.0" fill="#000000" transform="matrix(1.00, 0.00, -0.00, -1.00, 488.5, 5.0)">-</text><text xml:space="preserve" font-family="TimesNewRomanPSMT" font-size="16.0" fill="#000000" transform="matrix(1.00, 0.00, -0.00, -1.00, 493.9, 5.0)">v</text><text xml:space="preserve" font-family="TimesNewRomanPSMT" font-size="16.0" fill="#000000" transform="matrix(1.00, 0.00, -0.00, -1.00, 501.9, 5.0)">e</text><text xml:space="preserve" font-family="TimesNewRomanPSMT" font-size="16.0" fill="#000000" transform="matrix(1.00, 0.00, -0.00, -1.00, 508.9, 5.0)">n</text><text xml:space="preserve" font-family="TimesNewRomanPSMT" font-size="16.0" fill="#000000" transform="matrix(1.00, 0.00, -0.00, -1.00, 516.9, 5.0)">t</text><text xml:space="preserve" font-family="TimesNewRomanPSMT" font-size="16.0" fill="#000000" transform="matrix(1.00, 0.00, -0.00, -1.00, 521.4, 5.0)">u</text><text xml:space="preserve" font-family="TimesNewRomanPSMT" font-size="16.0" fill="#000000" transform="matrix(1.00, 0.00, -0.00, -1.00, 529.4, 5.0)">r</text><text xml:space="preserve" font-family="TimesNewRomanPSMT" font-size="16.0" fill="#000000" transform="matrix(1.00, 0.00, -0.00, -1.00, 534.7, 5.0)">e</text><text xml:space="preserve" font-family="TimesNewRomanPSMT" font-size="16.0" fill="#000000" transform="matrix(1.00, 0.00, -0.00, -1.00, 541.8, 5.0)">-</text><text xml:space="preserve" font-family="TimesNewRomanPSMT" font-size="16.0" fill="#000000" transform="matrix(1.00, 0.00, -0.00, -1.00, 547.1, 5.0)">a</text><text xml:space="preserve" font-family="TimesNewRomanPSMT" font-size="16.0" fill="#000000" transform="matrix(1.00, 0.00, -0.00, -1.00, 554.2, 5.0)">-</text><text xml:space="preserve" font-family="TimesNewRomanPSMT" font-size="16.0" fill="#000000" transform="matrix(1.00, 0.00, -0.00, -1.00, 559.6, 5.0)">g</text><text xml:space="preserve" font-family="TimesNewRomanPSMT" font-size="16.0" fill="#000000" transform="matrix(1.00, 0.00, -0.00, -1.00, 567.6, 5.0)">u</text><text xml:space="preserve" font-family="TimesNewRomanPSMT" font-size="16.0" fill="#000000" transform="matrix(1.00, 0.00, -0.00, -1.00, 575.6, 5.0)">e</text><text xml:space="preserve" font-family="TimesNewRomanPSMT" font-size="16.0" fill="#000000" transform="matrix(1.00, 0.00, -0.00, -1.00, 582.7, 5.0)">s</text><text xml:space="preserve" font-family="TimesNewRomanPSMT" font-size="16.0" fill="#000000" transform="matrix(1.00, 0.00, -0.00, -1.00, 588.9, 5.0)">s</text><text xml:space="preserve" font-family="TimesNewRomanPSMT" font-size="16.0" fill="#000000" transform="matrix(1.00, 0.00, -0.00, -1.00, 595.1, 5.0)">/</text></g></svg>