<?xml version="1.0" encoding="UTF-8" standalone="no"?><svg xmlns="http://www.w3.org/2000/svg" xmlns:xlink="http://www.w3.org/1999/xlink" clip-rule="evenodd" stroke-miterlimit="4.00" viewBox="0 0 720 540"><desc>SVG generated by Keynote</desc><defs></defs><g transform="matrix(1.00, 0.00, -0.00, -1.00, 0.0, 540.0)"><path d="M 0.0 540.0 L 720.0 540.0 L 720.0 0.0 L 0.0 0.0 Z M 0.0 540.0 " fill="#FFFFFF"></path><image xlink:href="../../471CB551-36BB-48CF-B4A7-14ECD6B88367/assets/CAA39ABB0B93459A18F8FF5E168EE841.png" width="403.00" height="351.00" transform="matrix(1.00, 0.00, -0.00, -1.00, 0.0, 540.0)"></image><image xlink:href="../../471CB551-36BB-48CF-B4A7-14ECD6B88367/assets/2E4DEB9BD5AE9AB4B62F9E15B112981A.png" width="358.00" height="314.00" transform="matrix(1.00, 0.00, -0.00, -1.00, 322.0, 325.0)"></image><text xml:space="preserve" font-family="Helvetica-Bold" font-weight="bold" font-size="22.0" fill="#000000" transform="matrix(1.00, 0.00, -0.00, -1.00, 420.0, 473.0)">D</text><text xml:space="preserve" font-family="Helvetica-Bold" font-weight="bold" font-size="22.0" fill="#000000" transform="matrix(1.00, 0.00, -0.00, -1.00, 435.9, 473.0)">r</text><text xml:space="preserve" font-family="Helvetica-Bold" font-weight="bold" font-size="22.0" fill="#000000" transform="matrix(1.00, 0.00, -0.00, -1.00, 444.5, 473.0)">o</text><text xml:space="preserve" font-family="Helvetica-Bold" font-weight="bold" font-size="22.0" fill="#000000" transform="matrix(1.00, 0.00, -0.00, -1.00, 457.9, 473.0)">n</text><text xml:space="preserve" font-family="Helvetica-Bold" font-weight="bold" font-size="22.0" fill="#000000" transform="matrix(1.00, 0.00, -0.00, -1.00, 471.3, 473.0)">e</text><text xml:space="preserve" font-family="Helvetica-Bold" font-weight="bold" font-size="22.0" fill="#000000" transform="matrix(1.00, 0.00, -0.00, -1.00, 483.6, 473.0)">s</text><text xml:space="preserve" font-family="Helvetica-Bold" font-weight="bold" font-size="22.0" fill="#000000" transform="matrix(1.00, 0.00, -0.00, -1.00, 495.8, 473.0)"> </text><text xml:space="preserve" font-family="Helvetica-Bold" font-weight="bold" font-size="22.0" fill="#000000" transform="matrix(1.00, 0.00, -0.00, -1.00, 501.9, 473.0)">b</text><text xml:space="preserve" font-family="Helvetica-Bold" font-weight="bold" font-size="22.0" fill="#000000" transform="matrix(1.00, 0.00, -0.00, -1.00, 515.3, 473.0)">a</text><text xml:space="preserve" font-family="Helvetica-Bold" font-weight="bold" font-size="22.0" fill="#000000" transform="matrix(1.00, 0.00, -0.00, -1.00, 527.6, 473.0)">n</text><text xml:space="preserve" font-family="Helvetica-Bold" font-weight="bold" font-size="22.0" fill="#000000" transform="matrix(1.00, 0.00, -0.00, -1.00, 541.0, 473.0)">n</text><text xml:space="preserve" font-family="Helvetica-Bold" font-weight="bold" font-size="22.0" fill="#000000" transform="matrix(1.00, 0.00, -0.00, -1.00, 554.5, 473.0)">e</text><text xml:space="preserve" font-family="Helvetica-Bold" font-weight="bold" font-size="22.0" fill="#000000" transform="matrix(1.00, 0.00, -0.00, -1.00, 566.7, 473.0)">d</text><text xml:space="preserve" font-family="Helvetica-Bold" font-weight="bold" font-size="22.0" fill="#000000" transform="matrix(1.00, 0.00, -0.00, -1.00, 580.1, 473.0)"> </text><text xml:space="preserve" font-family="Helvetica-Bold" font-weight="bold" font-size="22.0" fill="#000000" transform="matrix(1.00, 0.00, -0.00, -1.00, 586.2, 473.0)">b</text><text xml:space="preserve" font-family="Helvetica-Bold" font-weight="bold" font-size="22.0" fill="#000000" transform="matrix(1.00, 0.00, -0.00, -1.00, 599.7, 473.0)">y</text><text xml:space="preserve" font-family="Helvetica-Bold" font-weight="bold" font-size="22.0" fill="#000000" transform="matrix(1.00, 0.00, -0.00, -1.00, 611.9, 473.0)"> </text><text xml:space="preserve" font-family="Helvetica-Bold" font-weight="bold" font-size="22.0" fill="#000000" transform="matrix(1.00, 0.00, -0.00, -1.00, 618.0, 473.0)">N</text><text xml:space="preserve" font-family="Helvetica-Bold" font-weight="bold" font-size="22.0" fill="#000000" transform="matrix(1.00, 0.00, -0.00, -1.00, 633.9, 473.0)">P</text><text xml:space="preserve" font-family="Helvetica-Bold" font-weight="bold" font-size="22.0" fill="#000000" transform="matrix(1.00, 0.00, -0.00, -1.00, 648.6, 473.0)">S</text><text xml:space="preserve" font-family="Helvetica" font-size="22.0" fill="#000000" transform="matrix(1.00, 0.00, -0.00, -1.00, 420.0, 447.0)">u</text><text xml:space="preserve" font-family="Helvetica" font-size="22.0" fill="#000000" transform="matrix(1.00, 0.00, -0.00, -1.00, 432.2, 447.0)">n</text><text xml:space="preserve" font-family="Helvetica" font-size="22.0" fill="#000000" transform="matrix(1.00, 0.00, -0.00, -1.00, 444.5, 447.0)">m</text><text xml:space="preserve" font-family="Helvetica" font-size="22.0" fill="#000000" transform="matrix(1.00, 0.00, -0.00, -1.00, 462.8, 447.0)">a</text><text xml:space="preserve" font-family="Helvetica" font-size="22.0" fill="#000000" transform="matrix(1.00, 0.00, -0.00, -1.00, 475.0, 447.0)">n</text><text xml:space="preserve" font-family="Helvetica" font-size="22.0" fill="#000000" transform="matrix(1.00, 0.00, -0.00, -1.00, 487.3, 447.0)">n</text><text xml:space="preserve" font-family="Helvetica" font-size="22.0" fill="#000000" transform="matrix(1.00, 0.00, -0.00, -1.00, 499.5, 447.0)">e</text><text xml:space="preserve" font-family="Helvetica" font-size="22.0" fill="#000000" transform="matrix(1.00, 0.00, -0.00, -1.00, 511.8, 447.0)">d</text><text xml:space="preserve" font-family="Helvetica" font-size="22.0" fill="#000000" transform="matrix(1.00, 0.00, -0.00, -1.00, 524.0, 447.0)"> </text><text xml:space="preserve" font-family="Helvetica" font-size="22.0" fill="#000000" transform="matrix(1.00, 0.00, -0.00, -1.00, 530.1, 447.0)">a</text><text xml:space="preserve" font-family="Helvetica" font-size="22.0" fill="#000000" transform="matrix(1.00, 0.00, -0.00, -1.00, 542.4, 447.0)">e</text><text xml:space="preserve" font-family="Helvetica" font-size="22.0" fill="#000000" transform="matrix(1.00, 0.00, -0.00, -1.00, 554.6, 447.0)">r</text><text xml:space="preserve" font-family="Helvetica" font-size="22.0" fill="#000000" transform="matrix(1.00, 0.00, -0.00, -1.00, 561.9, 447.0)">i</text><text xml:space="preserve" font-family="Helvetica" font-size="22.0" fill="#000000" transform="matrix(1.00, 0.00, -0.00, -1.00, 566.8, 447.0)">a</text><text xml:space="preserve" font-family="Helvetica" font-size="22.0" fill="#000000" transform="matrix(1.00, 0.00, -0.00, -1.00, 579.0, 447.0)">l</text><text xml:space="preserve" font-family="Helvetica" font-size="22.0" fill="#000000" transform="matrix(1.00, 0.00, -0.00, -1.00, 583.9, 447.0)"> </text><text xml:space="preserve" font-family="Helvetica" font-size="22.0" fill="#000000" transform="matrix(1.00, 0.00, -0.00, -1.00, 590.0, 447.0)">v</text><text xml:space="preserve" font-family="Helvetica" font-size="22.0" fill="#000000" transform="matrix(1.00, 0.00, -0.00, -1.00, 601.0, 447.0)">e</text><text xml:space="preserve" font-family="Helvetica" font-size="22.0" fill="#000000" transform="matrix(1.00, 0.00, -0.00, -1.00, 613.3, 447.0)">h</text><text xml:space="preserve" font-family="Helvetica" font-size="22.0" fill="#000000" transform="matrix(1.00, 0.00, -0.00, -1.00, 625.5, 447.0)">i</text><text xml:space="preserve" font-family="Helvetica" font-size="22.0" fill="#000000" transform="matrix(1.00, 0.00, -0.00, -1.00, 630.4, 447.0)">c</text><text xml:space="preserve" font-family="Helvetica" font-size="22.0" fill="#000000" transform="matrix(1.00, 0.00, -0.00, -1.00, 641.4, 447.0)">l</text><text xml:space="preserve" font-family="Helvetica" font-size="22.0" fill="#000000" transform="matrix(1.00, 0.00, -0.00, -1.00, 646.3, 447.0)">e</text><text xml:space="preserve" font-family="Helvetica" font-size="22.0" fill="#000000" transform="matrix(1.00, 0.00, -0.00, -1.00, 658.6, 447.0)">s</text><text xml:space="preserve" font-family="Helvetica" font-size="22.0" fill="#000000" transform="matrix(1.00, 0.00, -0.00, -1.00, 669.6, 447.0)"> </text><text xml:space="preserve" font-family="Helvetica" font-size="22.0" fill="#000000" transform="matrix(1.00, 0.00, -0.00, -1.00, 420.0, 421.0)">(</text><text xml:space="preserve" font-family="Helvetica" font-size="22.0" fill="#000000" transform="matrix(1.00, 0.00, -0.00, -1.00, 427.3, 421.0)">U</text><text xml:space="preserve" font-family="Helvetica" font-size="22.0" fill="#000000" transform="matrix(1.00, 0.00, -0.00, -1.00, 443.2, 421.0)">A</text><text xml:space="preserve" font-family="Helvetica" font-size="22.0" fill="#000000" transform="matrix(1.00, 0.00, -0.00, -1.00, 456.3, 421.0)">V</text><text xml:space="preserve" font-family="Helvetica" font-size="22.0" fill="#000000" transform="matrix(1.00, 0.00, -0.00, -1.00, 470.9, 421.0)">s</text><text xml:space="preserve" font-family="Helvetica" font-size="22.0" fill="#000000" transform="matrix(1.00, 0.00, -0.00, -1.00, 481.9, 421.0)">)</text><text xml:space="preserve" font-family="Helvetica" font-size="22.0" fill="#000000" transform="matrix(1.00, 0.00, -0.00, -1.00, 489.3, 421.0)"> </text><text xml:space="preserve" font-family="Helvetica" font-size="22.0" fill="#000000" transform="matrix(1.00, 0.00, -0.00, -1.00, 495.4, 421.0)">b</text><text xml:space="preserve" font-family="Helvetica" font-size="22.0" fill="#000000" transform="matrix(1.00, 0.00, -0.00, -1.00, 507.6, 421.0)">a</text><text xml:space="preserve" font-family="Helvetica" font-size="22.0" fill="#000000" transform="matrix(1.00, 0.00, -0.00, -1.00, 519.9, 421.0)">n</text><text xml:space="preserve" font-family="Helvetica" font-size="22.0" fill="#000000" transform="matrix(1.00, 0.00, -0.00, -1.00, 532.1, 421.0)">n</text><text xml:space="preserve" font-family="Helvetica" font-size="22.0" fill="#000000" transform="matrix(1.00, 0.00, -0.00, -1.00, 544.3, 421.0)">e</text><text xml:space="preserve" font-family="Helvetica" font-size="22.0" fill="#000000" transform="matrix(1.00, 0.00, -0.00, -1.00, 556.6, 421.0)">d</text><text xml:space="preserve" font-family="Helvetica" font-size="22.0" fill="#000000" transform="matrix(1.00, 0.00, -0.00, -1.00, 568.8, 421.0)"> </text><text xml:space="preserve" font-family="Helvetica" font-size="22.0" fill="#000000" transform="matrix(1.00, 0.00, -0.00, -1.00, 574.9, 421.0)">i</text><text xml:space="preserve" font-family="Helvetica" font-size="22.0" fill="#000000" transform="matrix(1.00, 0.00, -0.00, -1.00, 579.8, 421.0)">n</text><text xml:space="preserve" font-family="Helvetica" font-size="22.0" fill="#000000" transform="matrix(1.00, 0.00, -0.00, -1.00, 592.1, 421.0)">s</text><text xml:space="preserve" font-family="Helvetica" font-size="22.0" fill="#000000" transform="matrix(1.00, 0.00, -0.00, -1.00, 603.1, 421.0)">i</text><text xml:space="preserve" font-family="Helvetica" font-size="22.0" fill="#000000" transform="matrix(1.00, 0.00, -0.00, -1.00, 607.9, 421.0)">d</text><text xml:space="preserve" font-family="Helvetica" font-size="22.0" fill="#000000" transform="matrix(1.00, 0.00, -0.00, -1.00, 620.2, 421.0)">e</text><text xml:space="preserve" font-family="Helvetica" font-size="22.0" fill="#000000" transform="matrix(1.00, 0.00, -0.00, -1.00, 632.4, 421.0)"> </text><text xml:space="preserve" font-family="Helvetica" font-size="22.0" fill="#000000" transform="matrix(1.00, 0.00, -0.00, -1.00, 638.5, 421.0)">p</text><text xml:space="preserve" font-family="Helvetica" font-size="22.0" fill="#000000" transform="matrix(1.00, 0.00, -0.00, -1.00, 650.8, 421.0)">a</text><text xml:space="preserve" font-family="Helvetica" font-size="22.0" fill="#000000" transform="matrix(1.00, 0.00, -0.00, -1.00, 663.0, 421.0)">r</text><text xml:space="preserve" font-family="Helvetica" font-size="22.0" fill="#000000" transform="matrix(1.00, 0.00, -0.00, -1.00, 670.3, 421.0)">k</text><text xml:space="preserve" font-family="Helvetica" font-size="22.0" fill="#000000" transform="matrix(1.00, 0.00, -0.00, -1.00, 681.3, 421.0)">s</text><text xml:space="preserve" font-family="Helvetica" font-size="22.0" fill="#000000" transform="matrix(1.00, 0.00, -0.00, -1.00, 420.0, 395.0)">…</text><text xml:space="preserve" font-family="Helvetica-Bold" font-weight="bold" font-size="22.0" fill="#000000" transform="matrix(1.00, 0.00, -0.00, -1.00, 442.0, 395.0)">s</text><text xml:space="preserve" font-family="Helvetica-Bold" font-weight="bold" font-size="22.0" fill="#000000" transform="matrix(1.00, 0.00, -0.00, -1.00, 454.2, 395.0)">a</text><text xml:space="preserve" font-family="Helvetica-Bold" font-weight="bold" font-size="22.0" fill="#000000" transform="matrix(1.00, 0.00, -0.00, -1.00, 466.5, 395.0)">f</text><text xml:space="preserve" font-family="Helvetica-Bold" font-weight="bold" font-size="22.0" fill="#000000" transform="matrix(1.00, 0.00, -0.00, -1.00, 473.8, 395.0)">e</text><text xml:space="preserve" font-family="Helvetica-Bold" font-weight="bold" font-size="22.0" fill="#000000" transform="matrix(1.00, 0.00, -0.00, -1.00, 486.0, 395.0)">t</text><text xml:space="preserve" font-family="Helvetica-Bold" font-weight="bold" font-size="22.0" fill="#000000" transform="matrix(1.00, 0.00, -0.00, -1.00, 493.4, 395.0)">y</text><text xml:space="preserve" font-family="Helvetica-Bold" font-weight="bold" font-size="22.0" fill="#000000" transform="matrix(1.00, 0.00, -0.00, -1.00, 505.6, 395.0)">/</text><text xml:space="preserve" font-family="Helvetica-Bold" font-weight="bold" font-size="22.0" fill="#000000" transform="matrix(1.00, 0.00, -0.00, -1.00, 511.7, 395.0)">n</text><text xml:space="preserve" font-family="Helvetica-Bold" font-weight="bold" font-size="22.0" fill="#000000" transform="matrix(1.00, 0.00, -0.00, -1.00, 525.2, 395.0)">o</text><text xml:space="preserve" font-family="Helvetica-Bold" font-weight="bold" font-size="22.0" fill="#000000" transform="matrix(1.00, 0.00, -0.00, -1.00, 538.6, 395.0)">i</text><text xml:space="preserve" font-family="Helvetica-Bold" font-weight="bold" font-size="22.0" fill="#000000" transform="matrix(1.00, 0.00, -0.00, -1.00, 544.7, 395.0)">s</text><text xml:space="preserve" font-family="Helvetica-Bold" font-weight="bold" font-size="22.0" fill="#000000" transform="matrix(1.00, 0.00, -0.00, -1.00, 556.9, 395.0)">e</text><text xml:space="preserve" font-family="Helvetica-Bold" font-weight="bold" font-size="22.0" fill="#000000" transform="matrix(1.00, 0.00, -0.00, -1.00, 569.2, 395.0)"> </text><text xml:space="preserve" font-family="Helvetica-Bold" font-weight="bold" font-size="22.0" fill="#000000" transform="matrix(1.00, 0.00, -0.00, -1.00, 575.3, 395.0)">c</text><text xml:space="preserve" font-family="Helvetica-Bold" font-weight="bold" font-size="22.0" fill="#000000" transform="matrix(1.00, 0.00, -0.00, -1.00, 587.5, 395.0)">o</text><text xml:space="preserve" font-family="Helvetica-Bold" font-weight="bold" font-size="22.0" fill="#000000" transform="matrix(1.00, 0.00, -0.00, -1.00, 601.0, 395.0)">n</text><text xml:space="preserve" font-family="Helvetica-Bold" font-weight="bold" font-size="22.0" fill="#000000" transform="matrix(1.00, 0.00, -0.00, -1.00, 614.4, 395.0)">c</text><text xml:space="preserve" font-family="Helvetica-Bold" font-weight="bold" font-size="22.0" fill="#000000" transform="matrix(1.00, 0.00, -0.00, -1.00, 626.6, 395.0)">e</text><text xml:space="preserve" font-family="Helvetica-Bold" font-weight="bold" font-size="22.0" fill="#000000" transform="matrix(1.00, 0.00, -0.00, -1.00, 638.9, 395.0)">r</text><text xml:space="preserve" font-family="Helvetica-Bold" font-weight="bold" font-size="22.0" fill="#000000" transform="matrix(1.00, 0.00, -0.00, -1.00, 647.4, 395.0)">n</text><text xml:space="preserve" font-family="Helvetica-Bold" font-weight="bold" font-size="22.0" fill="#000000" transform="matrix(1.00, 0.00, -0.00, -1.00, 660.9, 395.0)">s</text><text xml:space="preserve" font-family="Helvetica-Bold" font-weight="bold" font-size="22.0" fill="#000000" transform="matrix(1.00, 0.00, -0.00, -1.00, 673.1, 395.0)"> </text><text xml:space="preserve" font-family="Helvetica-Bold" font-weight="bold" font-size="22.0" fill="#000000" transform="matrix(1.00, 0.00, -0.00, -1.00, 420.0, 369.0)"> </text><text xml:space="preserve" font-family="Helvetica-Bold" font-weight="bold" font-size="22.0" fill="#000000" transform="matrix(1.00, 0.00, -0.00, -1.00, 420.0, 343.0)"> </text><text xml:space="preserve" font-family="Helvetica-Bold" font-weight="bold" font-size="14.0" fill="#000000" transform="matrix(1.00, 0.00, -0.00, -1.00, 29.0, 162.0)">M</text><text xml:space="preserve" font-family="Helvetica-Bold" font-weight="bold" font-size="14.0" fill="#000000" transform="matrix(1.00, 0.00, -0.00, -1.00, 40.7, 162.0)">a</text><text xml:space="preserve" font-family="Helvetica-Bold" font-weight="bold" font-size="14.0" fill="#000000" transform="matrix(1.00, 0.00, -0.00, -1.00, 48.5, 162.0)">n</text><text xml:space="preserve" font-family="Helvetica-Bold" font-weight="bold" font-size="14.0" fill="#000000" transform="matrix(1.00, 0.00, -0.00, -1.00, 57.0, 162.0)"> </text><text xml:space="preserve" font-family="Helvetica-Bold" font-weight="bold" font-size="14.0" fill="#000000" transform="matrix(1.00, 0.00, -0.00, -1.00, 60.9, 162.0)">c</text><text xml:space="preserve" font-family="Helvetica-Bold" font-weight="bold" font-size="14.0" fill="#000000" transform="matrix(1.00, 0.00, -0.00, -1.00, 68.7, 162.0)">r</text><text xml:space="preserve" font-family="Helvetica-Bold" font-weight="bold" font-size="14.0" fill="#000000" transform="matrix(1.00, 0.00, -0.00, -1.00, 74.1, 162.0)">a</text><text xml:space="preserve" font-family="Helvetica-Bold" font-weight="bold" font-size="14.0" fill="#000000" transform="matrix(1.00, 0.00, -0.00, -1.00, 81.9, 162.0)">s</text><text xml:space="preserve" font-family="Helvetica-Bold" font-weight="bold" font-size="14.0" fill="#000000" transform="matrix(1.00, 0.00, -0.00, -1.00, 89.7, 162.0)">h</text><text xml:space="preserve" font-family="Helvetica-Bold" font-weight="bold" font-size="14.0" fill="#000000" transform="matrix(1.00, 0.00, -0.00, -1.00, 98.3, 162.0)">e</text><text xml:space="preserve" font-family="Helvetica-Bold" font-weight="bold" font-size="14.0" fill="#000000" transform="matrix(1.00, 0.00, -0.00, -1.00, 106.0, 162.0)">d</text><text xml:space="preserve" font-family="Helvetica-Bold" font-weight="bold" font-size="14.0" fill="#000000" transform="matrix(1.00, 0.00, -0.00, -1.00, 114.6, 162.0)"> </text><text xml:space="preserve" font-family="Helvetica-Bold" font-weight="bold" font-size="14.0" fill="#000000" transform="matrix(1.00, 0.00, -0.00, -1.00, 118.5, 162.0)">d</text><text xml:space="preserve" font-family="Helvetica-Bold" font-weight="bold" font-size="14.0" fill="#000000" transform="matrix(1.00, 0.00, -0.00, -1.00, 127.0, 162.0)">r</text><text xml:space="preserve" font-family="Helvetica-Bold" font-weight="bold" font-size="14.0" fill="#000000" transform="matrix(1.00, 0.00, -0.00, -1.00, 132.5, 162.0)">o</text><text xml:space="preserve" font-family="Helvetica-Bold" font-weight="bold" font-size="14.0" fill="#000000" transform="matrix(1.00, 0.00, -0.00, -1.00, 141.0, 162.0)">n</text><text xml:space="preserve" font-family="Helvetica-Bold" font-weight="bold" font-size="14.0" fill="#000000" transform="matrix(1.00, 0.00, -0.00, -1.00, 149.6, 162.0)">e</text><text xml:space="preserve" font-family="Helvetica-Bold" font-weight="bold" font-size="14.0" fill="#000000" transform="matrix(1.00, 0.00, -0.00, -1.00, 157.4, 162.0)"> </text><text xml:space="preserve" font-family="Helvetica-Bold" font-weight="bold" font-size="14.0" fill="#000000" transform="matrix(1.00, 0.00, -0.00, -1.00, 161.3, 162.0)">i</text><text xml:space="preserve" font-family="Helvetica-Bold" font-weight="bold" font-size="14.0" fill="#000000" transform="matrix(1.00, 0.00, -0.00, -1.00, 165.1, 162.0)">n</text><text xml:space="preserve" font-family="Helvetica-Bold" font-weight="bold" font-size="14.0" fill="#000000" transform="matrix(1.00, 0.00, -0.00, -1.00, 173.7, 162.0)">t</text><text xml:space="preserve" font-family="Helvetica-Bold" font-weight="bold" font-size="14.0" fill="#000000" transform="matrix(1.00, 0.00, -0.00, -1.00, 178.3, 162.0)">o</text><text xml:space="preserve" font-family="Helvetica-Bold" font-weight="bold" font-size="14.0" fill="#000000" transform="matrix(1.00, 0.00, -0.00, -1.00, 186.9, 162.0)"> </text><text xml:space="preserve" font-family="Helvetica-Bold" font-weight="bold" font-size="14.0" fill="#000000" transform="matrix(1.00, 0.00, -0.00, -1.00, 190.5, 162.0)">Y</text><text xml:space="preserve" font-family="Helvetica-Bold" font-weight="bold" font-size="14.0" fill="#000000" transform="matrix(1.00, 0.00, -0.00, -1.00, 199.1, 162.0)">e</text><text xml:space="preserve" font-family="Helvetica-Bold" font-weight="bold" font-size="14.0" fill="#000000" transform="matrix(1.00, 0.00, -0.00, -1.00, 206.9, 162.0)">l</text><text xml:space="preserve" font-family="Helvetica-Bold" font-weight="bold" font-size="14.0" fill="#000000" transform="matrix(1.00, 0.00, -0.00, -1.00, 210.8, 162.0)">l</text><text xml:space="preserve" font-family="Helvetica-Bold" font-weight="bold" font-size="14.0" fill="#000000" transform="matrix(1.00, 0.00, -0.00, -1.00, 214.7, 162.0)">o</text><text xml:space="preserve" font-family="Helvetica-Bold" font-weight="bold" font-size="14.0" fill="#000000" transform="matrix(1.00, 0.00, -0.00, -1.00, 223.2, 162.0)">w</text><text xml:space="preserve" font-family="Helvetica-Bold" font-weight="bold" font-size="14.0" fill="#000000" transform="matrix(1.00, 0.00, -0.00, -1.00, 234.1, 162.0)">s</text><text xml:space="preserve" font-family="Helvetica-Bold" font-weight="bold" font-size="14.0" fill="#000000" transform="matrix(1.00, 0.00, -0.00, -1.00, 241.9, 162.0)">t</text><text xml:space="preserve" font-family="Helvetica-Bold" font-weight="bold" font-size="14.0" fill="#000000" transform="matrix(1.00, 0.00, -0.00, -1.00, 246.6, 162.0)">o</text><text xml:space="preserve" font-family="Helvetica-Bold" font-weight="bold" font-size="14.0" fill="#000000" transform="matrix(1.00, 0.00, -0.00, -1.00, 255.1, 162.0)">n</text><text xml:space="preserve" font-family="Helvetica-Bold" font-weight="bold" font-size="14.0" fill="#000000" transform="matrix(1.00, 0.00, -0.00, -1.00, 263.7, 162.0)">e</text><text xml:space="preserve" font-family="Helvetica-Bold" font-weight="bold" font-size="14.0" fill="#000000" transform="matrix(1.00, 0.00, -0.00, -1.00, 271.4, 162.0)"> </text><text xml:space="preserve" font-family="Helvetica-Bold" font-weight="bold" font-size="14.0" fill="#000000" transform="matrix(1.00, 0.00, -0.00, -1.00, 29.0, 145.0)">h</text><text xml:space="preserve" font-family="Helvetica-Bold" font-weight="bold" font-size="14.0" fill="#000000" transform="matrix(1.00, 0.00, -0.00, -1.00, 37.5, 145.0)">o</text><text xml:space="preserve" font-family="Helvetica-Bold" font-weight="bold" font-size="14.0" fill="#000000" transform="matrix(1.00, 0.00, -0.00, -1.00, 46.1, 145.0)">t</text><text xml:space="preserve" font-family="Helvetica-Bold" font-weight="bold" font-size="14.0" fill="#000000" transform="matrix(1.00, 0.00, -0.00, -1.00, 50.8, 145.0)"> </text><text xml:space="preserve" font-family="Helvetica-Bold" font-weight="bold" font-size="14.0" fill="#000000" transform="matrix(1.00, 0.00, -0.00, -1.00, 54.6, 145.0)">s</text><text xml:space="preserve" font-family="Helvetica-Bold" font-weight="bold" font-size="14.0" fill="#000000" transform="matrix(1.00, 0.00, -0.00, -1.00, 62.4, 145.0)">p</text><text xml:space="preserve" font-family="Helvetica-Bold" font-weight="bold" font-size="14.0" fill="#000000" transform="matrix(1.00, 0.00, -0.00, -1.00, 71.0, 145.0)">r</text><text xml:space="preserve" font-family="Helvetica-Bold" font-weight="bold" font-size="14.0" fill="#000000" transform="matrix(1.00, 0.00, -0.00, -1.00, 76.4, 145.0)">i</text><text xml:space="preserve" font-family="Helvetica-Bold" font-weight="bold" font-size="14.0" fill="#000000" transform="matrix(1.00, 0.00, -0.00, -1.00, 80.3, 145.0)">n</text><text xml:space="preserve" font-family="Helvetica-Bold" font-weight="bold" font-size="14.0" fill="#000000" transform="matrix(1.00, 0.00, -0.00, -1.00, 88.9, 145.0)">g</text><text xml:space="preserve" font-family="Helvetica-Bold" font-weight="bold" font-size="14.0" fill="#000000" transform="matrix(1.00, 0.00, -0.00, -1.00, 97.4, 145.0)"> </text><text xml:space="preserve" font-family="Helvetica-Bold" font-weight="bold" font-size="14.0" fill="#000000" transform="matrix(1.00, 0.00, -0.00, -1.00, 101.3, 145.0)">s</text><text xml:space="preserve" font-family="Helvetica-Bold" font-weight="bold" font-size="14.0" fill="#000000" transform="matrix(1.00, 0.00, -0.00, -1.00, 109.1, 145.0)">e</text><text xml:space="preserve" font-family="Helvetica-Bold" font-weight="bold" font-size="14.0" fill="#000000" transform="matrix(1.00, 0.00, -0.00, -1.00, 116.9, 145.0)">n</text><text xml:space="preserve" font-family="Helvetica-Bold" font-weight="bold" font-size="14.0" fill="#000000" transform="matrix(1.00, 0.00, -0.00, -1.00, 125.4, 145.0)">t</text><text xml:space="preserve" font-family="Helvetica-Bold" font-weight="bold" font-size="14.0" fill="#000000" transform="matrix(1.00, 0.00, -0.00, -1.00, 130.1, 145.0)">e</text><text xml:space="preserve" font-family="Helvetica-Bold" font-weight="bold" font-size="14.0" fill="#000000" transform="matrix(1.00, 0.00, -0.00, -1.00, 137.9, 145.0)">n</text><text xml:space="preserve" font-family="Helvetica-Bold" font-weight="bold" font-size="14.0" fill="#000000" transform="matrix(1.00, 0.00, -0.00, -1.00, 146.4, 145.0)">c</text><text xml:space="preserve" font-family="Helvetica-Bold" font-weight="bold" font-size="14.0" fill="#000000" transform="matrix(1.00, 0.00, -0.00, -1.00, 154.2, 145.0)">e</text><text xml:space="preserve" font-family="Helvetica-Bold" font-weight="bold" font-size="14.0" fill="#000000" transform="matrix(1.00, 0.00, -0.00, -1.00, 162.0, 145.0)">d</text><text xml:space="preserve" font-family="Helvetica-Bold" font-weight="bold" font-size="14.0" fill="#000000" transform="matrix(1.00, 0.00, -0.00, -1.00, 170.6, 145.0)"> </text><text xml:space="preserve" font-family="Helvetica-Bold" font-weight="bold" font-size="14.0" fill="#000000" transform="matrix(1.00, 0.00, -0.00, -1.00, 174.4, 145.0)">t</text><text xml:space="preserve" font-family="Helvetica-Bold" font-weight="bold" font-size="14.0" fill="#000000" transform="matrix(1.00, 0.00, -0.00, -1.00, 179.1, 145.0)">o</text><text xml:space="preserve" font-family="Helvetica-Bold" font-weight="bold" font-size="14.0" fill="#000000" transform="matrix(1.00, 0.00, -0.00, -1.00, 187.7, 145.0)"> </text><text xml:space="preserve" font-family="Helvetica-Bold" font-weight="bold" font-size="14.0" fill="#000000" transform="matrix(1.00, 0.00, -0.00, -1.00, 191.5, 145.0)">p</text><text xml:space="preserve" font-family="Helvetica-Bold" font-weight="bold" font-size="14.0" fill="#000000" transform="matrix(1.00, 0.00, -0.00, -1.00, 200.1, 145.0)">r</text><text xml:space="preserve" font-family="Helvetica-Bold" font-weight="bold" font-size="14.0" fill="#000000" transform="matrix(1.00, 0.00, -0.00, -1.00, 205.5, 145.0)">o</text><text xml:space="preserve" font-family="Helvetica-Bold" font-weight="bold" font-size="14.0" fill="#000000" transform="matrix(1.00, 0.00, -0.00, -1.00, 214.1, 145.0)">b</text><text xml:space="preserve" font-family="Helvetica-Bold" font-weight="bold" font-size="14.0" fill="#000000" transform="matrix(1.00, 0.00, -0.00, -1.00, 222.6, 145.0)">a</text><text xml:space="preserve" font-family="Helvetica-Bold" font-weight="bold" font-size="14.0" fill="#000000" transform="matrix(1.00, 0.00, -0.00, -1.00, 230.4, 145.0)">t</text><text xml:space="preserve" font-family="Helvetica-Bold" font-weight="bold" font-size="14.0" fill="#000000" transform="matrix(1.00, 0.00, -0.00, -1.00, 235.1, 145.0)">i</text><text xml:space="preserve" font-family="Helvetica-Bold" font-weight="bold" font-size="14.0" fill="#000000" transform="matrix(1.00, 0.00, -0.00, -1.00, 239.0, 145.0)">o</text><text xml:space="preserve" font-family="Helvetica-Bold" font-weight="bold" font-size="14.0" fill="#000000" transform="matrix(1.00, 0.00, -0.00, -1.00, 247.5, 145.0)">n</text><text xml:space="preserve" font-family="Helvetica-Bold" font-weight="bold" font-size="14.0" fill="#000000" transform="matrix(1.00, 0.00, -0.00, -1.00, 256.1, 145.0)"> </text><text xml:space="preserve" font-family="Helvetica-Bold" font-weight="bold" font-size="14.0" fill="#000000" transform="matrix(1.00, 0.00, -0.00, -1.00, 260.0, 145.0)">a</text><text xml:space="preserve" font-family="Helvetica-Bold" font-weight="bold" font-size="14.0" fill="#000000" transform="matrix(1.00, 0.00, -0.00, -1.00, 267.8, 145.0)">n</text><text xml:space="preserve" font-family="Helvetica-Bold" font-weight="bold" font-size="14.0" fill="#000000" transform="matrix(1.00, 0.00, -0.00, -1.00, 276.3, 145.0)">d</text><text xml:space="preserve" font-family="Helvetica-Bold" font-weight="bold" font-size="14.0" fill="#000000" transform="matrix(1.00, 0.00, -0.00, -1.00, 284.9, 145.0)"> </text><text xml:space="preserve" font-family="Helvetica-Bold" font-weight="bold" font-size="14.0" fill="#000000" transform="matrix(1.00, 0.00, -0.00, -1.00, 29.0, 128.0)">b</text><text xml:space="preserve" font-family="Helvetica-Bold" font-weight="bold" font-size="14.0" fill="#000000" transform="matrix(1.00, 0.00, -0.00, -1.00, 37.5, 128.0)">a</text><text xml:space="preserve" font-family="Helvetica-Bold" font-weight="bold" font-size="14.0" fill="#000000" transform="matrix(1.00, 0.00, -0.00, -1.00, 45.3, 128.0)">n</text><text xml:space="preserve" font-family="Helvetica-Bold" font-weight="bold" font-size="14.0" fill="#000000" transform="matrix(1.00, 0.00, -0.00, -1.00, 53.9, 128.0)">n</text><text xml:space="preserve" font-family="Helvetica-Bold" font-weight="bold" font-size="14.0" fill="#000000" transform="matrix(1.00, 0.00, -0.00, -1.00, 62.4, 128.0)">e</text><text xml:space="preserve" font-family="Helvetica-Bold" font-weight="bold" font-size="14.0" fill="#000000" transform="matrix(1.00, 0.00, -0.00, -1.00, 70.2, 128.0)">d</text><text xml:space="preserve" font-family="Helvetica-Bold" font-weight="bold" font-size="14.0" fill="#000000" transform="matrix(1.00, 0.00, -0.00, -1.00, 78.8, 128.0)"> </text><text xml:space="preserve" font-family="Helvetica-Bold" font-weight="bold" font-size="14.0" fill="#000000" transform="matrix(1.00, 0.00, -0.00, -1.00, 82.7, 128.0)">f</text><text xml:space="preserve" font-family="Helvetica-Bold" font-weight="bold" font-size="14.0" fill="#000000" transform="matrix(1.00, 0.00, -0.00, -1.00, 87.3, 128.0)">r</text><text xml:space="preserve" font-family="Helvetica-Bold" font-weight="bold" font-size="14.0" fill="#000000" transform="matrix(1.00, 0.00, -0.00, -1.00, 92.8, 128.0)">o</text><text xml:space="preserve" font-family="Helvetica-Bold" font-weight="bold" font-size="14.0" fill="#000000" transform="matrix(1.00, 0.00, -0.00, -1.00, 101.3, 128.0)">m</text><text xml:space="preserve" font-family="Helvetica-Bold" font-weight="bold" font-size="14.0" fill="#000000" transform="matrix(1.00, 0.00, -0.00, -1.00, 113.8, 128.0)"> </text><text xml:space="preserve" font-family="Helvetica-Bold" font-weight="bold" font-size="14.0" fill="#000000" transform="matrix(1.00, 0.00, -0.00, -1.00, 117.7, 128.0)">n</text><text xml:space="preserve" font-family="Helvetica-Bold" font-weight="bold" font-size="14.0" fill="#000000" transform="matrix(1.00, 0.00, -0.00, -1.00, 126.2, 128.0)">a</text><text xml:space="preserve" font-family="Helvetica-Bold" font-weight="bold" font-size="14.0" fill="#000000" transform="matrix(1.00, 0.00, -0.00, -1.00, 134.0, 128.0)">t</text><text xml:space="preserve" font-family="Helvetica-Bold" font-weight="bold" font-size="14.0" fill="#000000" transform="matrix(1.00, 0.00, -0.00, -1.00, 138.7, 128.0)">i</text><text xml:space="preserve" font-family="Helvetica-Bold" font-weight="bold" font-size="14.0" fill="#000000" transform="matrix(1.00, 0.00, -0.00, -1.00, 142.5, 128.0)">o</text><text xml:space="preserve" font-family="Helvetica-Bold" font-weight="bold" font-size="14.0" fill="#000000" transform="matrix(1.00, 0.00, -0.00, -1.00, 151.1, 128.0)">n</text><text xml:space="preserve" font-family="Helvetica-Bold" font-weight="bold" font-size="14.0" fill="#000000" transform="matrix(1.00, 0.00, -0.00, -1.00, 159.6, 128.0)">a</text><text xml:space="preserve" font-family="Helvetica-Bold" font-weight="bold" font-size="14.0" fill="#000000" transform="matrix(1.00, 0.00, -0.00, -1.00, 167.4, 128.0)">l</text><text xml:space="preserve" font-family="Helvetica-Bold" font-weight="bold" font-size="14.0" fill="#000000" transform="matrix(1.00, 0.00, -0.00, -1.00, 171.3, 128.0)"> </text><text xml:space="preserve" font-family="Helvetica-Bold" font-weight="bold" font-size="14.0" fill="#000000" transform="matrix(1.00, 0.00, -0.00, -1.00, 175.2, 128.0)">p</text><text xml:space="preserve" font-family="Helvetica-Bold" font-weight="bold" font-size="14.0" fill="#000000" transform="matrix(1.00, 0.00, -0.00, -1.00, 183.8, 128.0)">a</text><text xml:space="preserve" font-family="Helvetica-Bold" font-weight="bold" font-size="14.0" fill="#000000" transform="matrix(1.00, 0.00, -0.00, -1.00, 191.5, 128.0)">r</text><text xml:space="preserve" font-family="Helvetica-Bold" font-weight="bold" font-size="14.0" fill="#000000" transform="matrix(1.00, 0.00, -0.00, -1.00, 197.0, 128.0)">k</text><text xml:space="preserve" font-family="Helvetica-Bold" font-weight="bold" font-size="14.0" fill="#202121" transform="matrix(1.00, 0.00, -0.00, -1.00, 29.0, 76.0)">P</text><text xml:space="preserve" font-family="Helvetica-Bold" font-weight="bold" font-size="14.0" fill="#202121" transform="matrix(1.00, 0.00, -0.00, -1.00, 38.3, 76.0)">h</text><text xml:space="preserve" font-family="Helvetica-Bold" font-weight="bold" font-size="14.0" fill="#202121" transform="matrix(1.00, 0.00, -0.00, -1.00, 46.9, 76.0)">o</text><text xml:space="preserve" font-family="Helvetica-Bold" font-weight="bold" font-size="14.0" fill="#202121" transform="matrix(1.00, 0.00, -0.00, -1.00, 55.4, 76.0)">t</text><text xml:space="preserve" font-family="Helvetica-Bold" font-weight="bold" font-size="14.0" fill="#202121" transform="matrix(1.00, 0.00, -0.00, -1.00, 60.1, 76.0)">o</text><text xml:space="preserve" font-family="Helvetica-Bold" font-weight="bold" font-size="14.0" fill="#202121" transform="matrix(1.00, 0.00, -0.00, -1.00, 68.6, 76.0)">g</text><text xml:space="preserve" font-family="Helvetica-Bold" font-weight="bold" font-size="14.0" fill="#202121" transform="matrix(1.00, 0.00, -0.00, -1.00, 77.2, 76.0)">r</text><text xml:space="preserve" font-family="Helvetica-Bold" font-weight="bold" font-size="14.0" fill="#202121" transform="matrix(1.00, 0.00, -0.00, -1.00, 82.6, 76.0)">a</text><text xml:space="preserve" font-family="Helvetica-Bold" font-weight="bold" font-size="14.0" fill="#202121" transform="matrix(1.00, 0.00, -0.00, -1.00, 90.4, 76.0)">p</text><text xml:space="preserve" font-family="Helvetica-Bold" font-weight="bold" font-size="14.0" fill="#202121" transform="matrix(1.00, 0.00, -0.00, -1.00, 99.0, 76.0)">h</text><text xml:space="preserve" font-family="Helvetica-Bold" font-weight="bold" font-size="14.0" fill="#202121" transform="matrix(1.00, 0.00, -0.00, -1.00, 107.5, 76.0)">e</text><text xml:space="preserve" font-family="Helvetica-Bold" font-weight="bold" font-size="14.0" fill="#202121" transform="matrix(1.00, 0.00, -0.00, -1.00, 115.3, 76.0)">r</text><text xml:space="preserve" font-family="Helvetica-Bold" font-weight="bold" font-size="14.0" fill="#202121" transform="matrix(1.00, 0.00, -0.00, -1.00, 120.8, 76.0)"> </text><text xml:space="preserve" font-family="Helvetica-Bold" font-weight="bold" font-size="14.0" fill="#202121" transform="matrix(1.00, 0.00, -0.00, -1.00, 124.7, 76.0)">T</text><text xml:space="preserve" font-family="Helvetica-Bold" font-weight="bold" font-size="14.0" fill="#202121" transform="matrix(1.00, 0.00, -0.00, -1.00, 132.2, 76.0)">a</text><text xml:space="preserve" font-family="Helvetica-Bold" font-weight="bold" font-size="14.0" fill="#202121" transform="matrix(1.00, 0.00, -0.00, -1.00, 140.0, 76.0)">z</text><text xml:space="preserve" font-family="Helvetica-Bold" font-weight="bold" font-size="14.0" fill="#202121" transform="matrix(1.00, 0.00, -0.00, -1.00, 147.0, 76.0)">e</text><text xml:space="preserve" font-family="Helvetica-Bold" font-weight="bold" font-size="14.0" fill="#202121" transform="matrix(1.00, 0.00, -0.00, -1.00, 154.8, 76.0)">d</text><text xml:space="preserve" font-family="Helvetica-Bold" font-weight="bold" font-size="14.0" fill="#202121" transform="matrix(1.00, 0.00, -0.00, -1.00, 163.3, 76.0)"> </text><text xml:space="preserve" font-family="Helvetica-Bold" font-weight="bold" font-size="14.0" fill="#202121" transform="matrix(1.00, 0.00, -0.00, -1.00, 166.7, 76.0)">A</text><text xml:space="preserve" font-family="Helvetica-Bold" font-weight="bold" font-size="14.0" fill="#202121" transform="matrix(1.00, 0.00, -0.00, -1.00, 176.8, 76.0)">f</text><text xml:space="preserve" font-family="Helvetica-Bold" font-weight="bold" font-size="14.0" fill="#202121" transform="matrix(1.00, 0.00, -0.00, -1.00, 181.5, 76.0)">t</text><text xml:space="preserve" font-family="Helvetica-Bold" font-weight="bold" font-size="14.0" fill="#202121" transform="matrix(1.00, 0.00, -0.00, -1.00, 186.1, 76.0)">e</text><text xml:space="preserve" font-family="Helvetica-Bold" font-weight="bold" font-size="14.0" fill="#202121" transform="matrix(1.00, 0.00, -0.00, -1.00, 193.9, 76.0)">r</text><text xml:space="preserve" font-family="Helvetica-Bold" font-weight="bold" font-size="14.0" fill="#202121" transform="matrix(1.00, 0.00, -0.00, -1.00, 199.4, 76.0)"> </text><text xml:space="preserve" font-family="Helvetica-Bold" font-weight="bold" font-size="14.0" fill="#202121" transform="matrix(1.00, 0.00, -0.00, -1.00, 203.2, 76.0)">F</text><text xml:space="preserve" font-family="Helvetica-Bold" font-weight="bold" font-size="14.0" fill="#202121" transform="matrix(1.00, 0.00, -0.00, -1.00, 211.8, 76.0)">l</text><text xml:space="preserve" font-family="Helvetica-Bold" font-weight="bold" font-size="14.0" fill="#202121" transform="matrix(1.00, 0.00, -0.00, -1.00, 215.7, 76.0)">y</text><text xml:space="preserve" font-family="Helvetica-Bold" font-weight="bold" font-size="14.0" fill="#202121" transform="matrix(1.00, 0.00, -0.00, -1.00, 223.5, 76.0)">i</text><text xml:space="preserve" font-family="Helvetica-Bold" font-weight="bold" font-size="14.0" fill="#202121" transform="matrix(1.00, 0.00, -0.00, -1.00, 227.4, 76.0)">n</text><text xml:space="preserve" font-family="Helvetica-Bold" font-weight="bold" font-size="14.0" fill="#202121" transform="matrix(1.00, 0.00, -0.00, -1.00, 235.9, 76.0)">g</text><text xml:space="preserve" font-family="Helvetica-Bold" font-weight="bold" font-size="14.0" fill="#202121" transform="matrix(1.00, 0.00, -0.00, -1.00, 244.5, 76.0)"> </text><text xml:space="preserve" font-family="Helvetica-Bold" font-weight="bold" font-size="14.0" fill="#202121" transform="matrix(1.00, 0.00, -0.00, -1.00, 248.3, 76.0)">D</text><text xml:space="preserve" font-family="Helvetica-Bold" font-weight="bold" font-size="14.0" fill="#202121" transform="matrix(1.00, 0.00, -0.00, -1.00, 258.5, 76.0)">r</text><text xml:space="preserve" font-family="Helvetica-Bold" font-weight="bold" font-size="14.0" fill="#202121" transform="matrix(1.00, 0.00, -0.00, -1.00, 263.9, 76.0)">o</text><text xml:space="preserve" font-family="Helvetica-Bold" font-weight="bold" font-size="14.0" fill="#202121" transform="matrix(1.00, 0.00, -0.00, -1.00, 272.5, 76.0)">n</text><text xml:space="preserve" font-family="Helvetica-Bold" font-weight="bold" font-size="14.0" fill="#202121" transform="matrix(1.00, 0.00, -0.00, -1.00, 281.0, 76.0)">e</text><text xml:space="preserve" font-family="Helvetica-Bold" font-weight="bold" font-size="14.0" fill="#202121" transform="matrix(1.00, 0.00, -0.00, -1.00, 288.8, 76.0)"> </text><text xml:space="preserve" font-family="Helvetica-Bold" font-weight="bold" font-size="14.0" fill="#202121" transform="matrix(1.00, 0.00, -0.00, -1.00, 292.7, 76.0)">i</text><text xml:space="preserve" font-family="Helvetica-Bold" font-weight="bold" font-size="14.0" fill="#202121" transform="matrix(1.00, 0.00, -0.00, -1.00, 296.6, 76.0)">n</text><text xml:space="preserve" font-family="Helvetica-Bold" font-weight="bold" font-size="14.0" fill="#202121" transform="matrix(1.00, 0.00, -0.00, -1.00, 305.1, 76.0)"> </text><text xml:space="preserve" font-family="Helvetica-Bold" font-weight="bold" font-size="14.0" fill="#202121" transform="matrix(1.00, 0.00, -0.00, -1.00, 29.0, 59.0)">H</text><text xml:space="preserve" font-family="Helvetica-Bold" font-weight="bold" font-size="14.0" fill="#202121" transform="matrix(1.00, 0.00, -0.00, -1.00, 39.1, 59.0)">a</text><text xml:space="preserve" font-family="Helvetica-Bold" font-weight="bold" font-size="14.0" fill="#202121" transform="matrix(1.00, 0.00, -0.00, -1.00, 46.9, 59.0)">w</text><text xml:space="preserve" font-family="Helvetica-Bold" font-weight="bold" font-size="14.0" fill="#202121" transform="matrix(1.00, 0.00, -0.00, -1.00, 57.8, 59.0)">a</text><text xml:space="preserve" font-family="Helvetica-Bold" font-weight="bold" font-size="14.0" fill="#202121" transform="matrix(1.00, 0.00, -0.00, -1.00, 65.6, 59.0)">i</text><text xml:space="preserve" font-family="Helvetica-Bold" font-weight="bold" font-size="14.0" fill="#202121" transform="matrix(1.00, 0.00, -0.00, -1.00, 69.5, 59.0)">i</text><text xml:space="preserve" font-family="Helvetica-Bold" font-weight="bold" font-size="14.0" fill="#202121" transform="matrix(1.00, 0.00, -0.00, -1.00, 73.4, 59.0)"> </text><text xml:space="preserve" font-family="Helvetica-Bold" font-weight="bold" font-size="14.0" fill="#202121" transform="matrix(1.00, 0.00, -0.00, -1.00, 77.2, 59.0)">V</text><text xml:space="preserve" font-family="Helvetica-Bold" font-weight="bold" font-size="14.0" fill="#202121" transform="matrix(1.00, 0.00, -0.00, -1.00, 85.5, 59.0)">o</text><text xml:space="preserve" font-family="Helvetica-Bold" font-weight="bold" font-size="14.0" fill="#202121" transform="matrix(1.00, 0.00, -0.00, -1.00, 94.1, 59.0)">l</text><text xml:space="preserve" font-family="Helvetica-Bold" font-weight="bold" font-size="14.0" fill="#202121" transform="matrix(1.00, 0.00, -0.00, -1.00, 98.0, 59.0)">c</text><text xml:space="preserve" font-family="Helvetica-Bold" font-weight="bold" font-size="14.0" fill="#202121" transform="matrix(1.00, 0.00, -0.00, -1.00, 105.8, 59.0)">a</text><text xml:space="preserve" font-family="Helvetica-Bold" font-weight="bold" font-size="14.0" fill="#202121" transform="matrix(1.00, 0.00, -0.00, -1.00, 113.6, 59.0)">n</text><text xml:space="preserve" font-family="Helvetica-Bold" font-weight="bold" font-size="14.0" fill="#202121" transform="matrix(1.00, 0.00, -0.00, -1.00, 122.1, 59.0)">o</text><text xml:space="preserve" font-family="Helvetica-Bold" font-weight="bold" font-size="14.0" fill="#202121" transform="matrix(1.00, 0.00, -0.00, -1.00, 130.7, 59.0)">e</text><text xml:space="preserve" font-family="Helvetica-Bold" font-weight="bold" font-size="14.0" fill="#202121" transform="matrix(1.00, 0.00, -0.00, -1.00, 138.4, 59.0)">s</text><text xml:space="preserve" font-family="Helvetica-Bold" font-weight="bold" font-size="14.0" fill="#202121" transform="matrix(1.00, 0.00, -0.00, -1.00, 146.2, 59.0)"> </text><text xml:space="preserve" font-family="Helvetica-Bold" font-weight="bold" font-size="14.0" fill="#202121" transform="matrix(1.00, 0.00, -0.00, -1.00, 150.1, 59.0)">N</text><text xml:space="preserve" font-family="Helvetica-Bold" font-weight="bold" font-size="14.0" fill="#202121" transform="matrix(1.00, 0.00, -0.00, -1.00, 160.2, 59.0)">a</text><text xml:space="preserve" font-family="Helvetica-Bold" font-weight="bold" font-size="14.0" fill="#202121" transform="matrix(1.00, 0.00, -0.00, -1.00, 168.0, 59.0)">t</text><text xml:space="preserve" font-family="Helvetica-Bold" font-weight="bold" font-size="14.0" fill="#202121" transform="matrix(1.00, 0.00, -0.00, -1.00, 172.7, 59.0)">i</text><text xml:space="preserve" font-family="Helvetica-Bold" font-weight="bold" font-size="14.0" fill="#202121" transform="matrix(1.00, 0.00, -0.00, -1.00, 176.6, 59.0)">o</text><text xml:space="preserve" font-family="Helvetica-Bold" font-weight="bold" font-size="14.0" fill="#202121" transform="matrix(1.00, 0.00, -0.00, -1.00, 185.1, 59.0)">n</text><text xml:space="preserve" font-family="Helvetica-Bold" font-weight="bold" font-size="14.0" fill="#202121" transform="matrix(1.00, 0.00, -0.00, -1.00, 193.7, 59.0)">a</text><text xml:space="preserve" font-family="Helvetica-Bold" font-weight="bold" font-size="14.0" fill="#202121" transform="matrix(1.00, 0.00, -0.00, -1.00, 201.5, 59.0)">l</text><text xml:space="preserve" font-family="Helvetica-Bold" font-weight="bold" font-size="14.0" fill="#202121" transform="matrix(1.00, 0.00, -0.00, -1.00, 205.3, 59.0)"> </text><text xml:space="preserve" font-family="Helvetica-Bold" font-weight="bold" font-size="14.0" fill="#202121" transform="matrix(1.00, 0.00, -0.00, -1.00, 209.2, 59.0)">P</text><text xml:space="preserve" font-family="Helvetica-Bold" font-weight="bold" font-size="14.0" fill="#202121" transform="matrix(1.00, 0.00, -0.00, -1.00, 218.6, 59.0)">a</text><text xml:space="preserve" font-family="Helvetica-Bold" font-weight="bold" font-size="14.0" fill="#202121" transform="matrix(1.00, 0.00, -0.00, -1.00, 226.4, 59.0)">r</text><text xml:space="preserve" font-family="Helvetica-Bold" font-weight="bold" font-size="14.0" fill="#202121" transform="matrix(1.00, 0.00, -0.00, -1.00, 231.8, 59.0)">k</text></g></svg>