<?xml version="1.0" encoding="UTF-8" standalone="no"?><svg xmlns="http://www.w3.org/2000/svg" xmlns:xlink="http://www.w3.org/1999/xlink" clip-rule="evenodd" stroke-miterlimit="4.00" viewBox="0 0 237 66"><desc>SVG generated by Keynote</desc><defs></defs><g transform="matrix(1.00, 0.00, -0.00, -1.00, 0.0, 66.0)"><text xml:space="preserve" font-family="Helvetica" font-size="32.0" fill="#000000" transform="matrix(1.00, 0.00, -0.00, -1.00, 2.0, 40.0)"> </text><text xml:space="preserve" font-family="Helvetica" font-size="32.0" fill="#000000" transform="matrix(1.00, 0.00, -0.00, -1.00, 10.9, 40.0)"> </text><text xml:space="preserve" font-family="Helvetica" font-size="32.0" fill="#000000" transform="matrix(1.00, 0.00, -0.00, -1.00, 19.8, 40.0)">W</text><text xml:space="preserve" font-family="Helvetica" font-size="32.0" fill="#000000" transform="matrix(1.00, 0.00, -0.00, -1.00, 50.0, 40.0)">i</text><text xml:space="preserve" font-family="Helvetica" font-size="32.0" fill="#000000" transform="matrix(1.00, 0.00, -0.00, -1.00, 57.1, 40.0)">l</text><text xml:space="preserve" font-family="Helvetica" font-size="32.0" fill="#000000" transform="matrix(1.00, 0.00, -0.00, -1.00, 64.2, 40.0)">d</text><text xml:space="preserve" font-family="Helvetica" font-size="32.0" fill="#000000" transform="matrix(1.00, 0.00, -0.00, -1.00, 82.0, 40.0)">l</text><text xml:space="preserve" font-family="Helvetica" font-size="32.0" fill="#000000" transform="matrix(1.00, 0.00, -0.00, -1.00, 89.1, 40.0)">i</text><text xml:space="preserve" font-family="Helvetica" font-size="32.0" fill="#000000" transform="matrix(1.00, 0.00, -0.00, -1.00, 96.2, 40.0)">f</text><text xml:space="preserve" font-family="Helvetica" font-size="32.0" fill="#000000" transform="matrix(1.00, 0.00, -0.00, -1.00, 105.1, 40.0)">e</text><text xml:space="preserve" font-family="Helvetica" font-size="32.0" fill="#000000" transform="matrix(1.00, 0.00, -0.00, -1.00, 122.9, 40.0)">/</text><text xml:space="preserve" font-family="Helvetica" font-size="32.0" fill="#000000" transform="matrix(1.00, 0.00, -0.00, -1.00, 131.8, 40.0)">H</text><text xml:space="preserve" font-family="Helvetica" font-size="32.0" fill="#000000" transform="matrix(1.00, 0.00, -0.00, -1.00, 154.9, 40.0)">u</text><text xml:space="preserve" font-family="Helvetica" font-size="32.0" fill="#000000" transform="matrix(1.00, 0.00, -0.00, -1.00, 172.7, 40.0)">m</text><text xml:space="preserve" font-family="Helvetica" font-size="32.0" fill="#000000" transform="matrix(1.00, 0.00, -0.00, -1.00, 199.4, 40.0)">a</text><text xml:space="preserve" font-family="Helvetica" font-size="32.0" fill="#000000" transform="matrix(1.00, 0.00, -0.00, -1.00, 217.2, 40.0)">n</text><text xml:space="preserve" font-family="Helvetica" font-size="32.0" fill="#000000" transform="matrix(1.00, 0.00, -0.00, -1.00, 235.0, 40.0)"> </text><text xml:space="preserve" font-family="Helvetica" font-size="32.0" fill="#000000" transform="matrix(1.00, 0.00, -0.00, -1.00, 2.0, 2.0)">c</text><text xml:space="preserve" font-family="Helvetica" font-size="32.0" fill="#000000" transform="matrix(1.00, 0.00, -0.00, -1.00, 18.0, 2.0)">o</text><text xml:space="preserve" font-family="Helvetica" font-size="32.0" fill="#000000" transform="matrix(1.00, 0.00, -0.00, -1.00, 35.8, 2.0)">n</text><text xml:space="preserve" font-family="Helvetica" font-size="32.0" fill="#000000" transform="matrix(1.00, 0.00, -0.00, -1.00, 53.6, 2.0)">c</text><text xml:space="preserve" font-family="Helvetica" font-size="32.0" fill="#000000" transform="matrix(1.00, 0.00, -0.00, -1.00, 69.6, 2.0)">e</text><text xml:space="preserve" font-family="Helvetica" font-size="32.0" fill="#000000" transform="matrix(1.00, 0.00, -0.00, -1.00, 87.4, 2.0)">r</text><text xml:space="preserve" font-family="Helvetica" font-size="32.0" fill="#000000" transform="matrix(1.00, 0.00, -0.00, -1.00, 98.1, 2.0)">n</text><text xml:space="preserve" font-family="Helvetica" font-size="32.0" fill="#000000" transform="matrix(1.00, 0.00, -0.00, -1.00, 115.9, 2.0)">s</text></g></svg>