<?xml version="1.0" encoding="UTF-8" standalone="no"?><svg xmlns="http://www.w3.org/2000/svg" xmlns:xlink="http://www.w3.org/1999/xlink" clip-rule="evenodd" stroke-miterlimit="4.00" viewBox="0 0 720 540"><desc>SVG generated by Keynote</desc><defs></defs><g transform="matrix(1.00, 0.00, -0.00, -1.00, 0.0, 540.0)"><path d="M 0.0 540.0 L 720.0 540.0 L 720.0 0.0 L 0.0 0.0 Z M 0.0 540.0 " fill="#000000"></path><text xml:space="preserve" font-family="Helvetica" font-size="48.0" fill="#FFFFFF" transform="matrix(1.00, 0.00, -0.00, -1.00, 462.0, 373.0)">T</text><text xml:space="preserve" font-family="Helvetica" font-size="48.0" fill="#FFFFFF" transform="matrix(1.00, 0.00, -0.00, -1.00, 491.3, 373.0)">h</text><text xml:space="preserve" font-family="Helvetica" font-size="48.0" fill="#FFFFFF" transform="matrix(1.00, 0.00, -0.00, -1.00, 518.0, 373.0)">a</text><text xml:space="preserve" font-family="Helvetica" font-size="48.0" fill="#FFFFFF" transform="matrix(1.00, 0.00, -0.00, -1.00, 544.7, 373.0)">n</text><text xml:space="preserve" font-family="Helvetica" font-size="48.0" fill="#FFFFFF" transform="matrix(1.00, 0.00, -0.00, -1.00, 571.4, 373.0)">k</text><text xml:space="preserve" font-family="Helvetica" font-size="48.0" fill="#FFFFFF" transform="matrix(1.00, 0.00, -0.00, -1.00, 595.4, 373.0)"> </text><text xml:space="preserve" font-family="Helvetica" font-size="48.0" fill="#FFFFFF" transform="matrix(1.00, 0.00, -0.00, -1.00, 608.8, 373.0)">y</text><text xml:space="preserve" font-family="Helvetica" font-size="48.0" fill="#FFFFFF" transform="matrix(1.00, 0.00, -0.00, -1.00, 632.8, 373.0)">o</text><text xml:space="preserve" font-family="Helvetica" font-size="48.0" fill="#FFFFFF" transform="matrix(1.00, 0.00, -0.00, -1.00, 659.5, 373.0)">u</text><text xml:space="preserve" font-family="Helvetica" font-size="48.0" fill="#FFFFFF" transform="matrix(1.00, 0.00, -0.00, -1.00, 686.2, 373.0)">!</text><image xlink:href="../../E9117528-F999-4378-8EAB-3F683E9D45AB/assets/CF92BC9FC201ECF70CBB6EA30AB09B72.jpeg" width="382.00" height="297.00" transform="matrix(1.00, 0.00, -0.00, -1.00, 0.0, 540.0)"></image></g></svg>