<?xml version="1.0" encoding="UTF-8" standalone="no"?><svg xmlns="http://www.w3.org/2000/svg" xmlns:xlink="http://www.w3.org/1999/xlink" clip-rule="evenodd" stroke-miterlimit="4.00" viewBox="0 0 698 471"><desc>SVG generated by Keynote</desc><defs><pattern id="B976EC4E-5C9B-432D-A88B-164DAE0F504D" patternUnits="userSpaceOnUse" width="128" height="128" viewBox="0 0 128 128" patternTransform="matrix(1.000000, 0.000000, 0.000000, -1.000000, 1.683147, 469.239600)"><image xlink:href="../../EBB37F89-029D-4E51-A701-DFF9553B1C35/assets/CC05FC835B545ABF69CD260FE379D36D.jpeg" width="128.00" height="128.00"></image></pattern></defs><g transform="matrix(1.00, 0.00, -0.00, -1.00, 0.0, 471.0)"><g><clipPath id="clip-2785"><path d="M 1.7 469.2 L 696.5 469.2 L 696.5 1.6 L 1.7 1.6 Z M 1.7 469.2 "></path></clipPath><g clip-path="url(#clip-2785)"><path d="M 1.7 1.6 L 696.5 1.6 L 696.5 469.2 L 1.7 469.2 Z M 1.7 1.6 " fill="url(#B976EC4E-5C9B-432D-A88B-164DAE0F504D)"></path></g></g><g><clipPath id="clip-2786"><path d="M -4.7 -6.3 L 702.9 -6.3 L 702.9 475.6 L -4.7 475.6 Z M -4.7 -6.3 "></path></clipPath><g clip-path="url(#clip-2786)"><text xml:space="preserve" font-family="TimesNewRomanPS-BoldMT" font-weight="bold" font-size="36.0" fill="#000000" transform="matrix(1.00, 0.00, -0.00, -1.00, 19.0, 307.0)">J</text><text xml:space="preserve" font-family="TimesNewRomanPS-BoldMT" font-weight="bold" font-size="36.0" fill="#000000" transform="matrix(1.00, 0.00, -0.00, -1.00, 37.0, 307.0)">u</text><text xml:space="preserve" font-family="TimesNewRomanPS-BoldMT" font-weight="bold" font-size="36.0" fill="#000000" transform="matrix(1.00, 0.00, -0.00, -1.00, 57.0, 307.0)">d</text><text xml:space="preserve" font-family="TimesNewRomanPS-BoldMT" font-weight="bold" font-size="36.0" fill="#000000" transform="matrix(1.00, 0.00, -0.00, -1.00, 77.1, 307.0)">g</text><text xml:space="preserve" font-family="TimesNewRomanPS-BoldMT" font-weight="bold" font-size="36.0" fill="#000000" transform="matrix(1.00, 0.00, -0.00, -1.00, 95.1, 307.0)">e</text><text xml:space="preserve" font-family="TimesNewRomanPS-BoldMT" font-weight="bold" font-size="36.0" fill="#000000" transform="matrix(1.00, 0.00, -0.00, -1.00, 111.0, 307.0)"> </text><text xml:space="preserve" font-family="TimesNewRomanPS-BoldMT" font-weight="bold" font-size="36.0" fill="#000000" transform="matrix(1.00, 0.00, -0.00, -1.00, 120.0, 307.0)">r</text><text xml:space="preserve" font-family="TimesNewRomanPS-BoldMT" font-weight="bold" font-size="36.0" fill="#000000" transform="matrix(1.00, 0.00, -0.00, -1.00, 136.0, 307.0)">u</text><text xml:space="preserve" font-family="TimesNewRomanPS-BoldMT" font-weight="bold" font-size="36.0" fill="#000000" transform="matrix(1.00, 0.00, -0.00, -1.00, 156.0, 307.0)">l</text><text xml:space="preserve" font-family="TimesNewRomanPS-BoldMT" font-weight="bold" font-size="36.0" fill="#000000" transform="matrix(1.00, 0.00, -0.00, -1.00, 166.0, 307.0)">e</text><text xml:space="preserve" font-family="TimesNewRomanPS-BoldMT" font-weight="bold" font-size="36.0" fill="#000000" transform="matrix(1.00, 0.00, -0.00, -1.00, 182.0, 307.0)">s</text><text xml:space="preserve" font-family="TimesNewRomanPS-BoldMT" font-weight="bold" font-size="36.0" fill="#000000" transform="matrix(1.00, 0.00, -0.00, -1.00, 196.0, 307.0)"> </text><text xml:space="preserve" font-family="TimesNewRomanPS-BoldMT" font-weight="bold" font-size="36.0" fill="#000000" transform="matrix(1.00, 0.00, -0.00, -1.00, 205.0, 307.0)">K</text><text xml:space="preserve" font-family="TimesNewRomanPS-BoldMT" font-weight="bold" font-size="36.0" fill="#000000" transform="matrix(1.00, 0.00, -0.00, -1.00, 233.0, 307.0)">e</text><text xml:space="preserve" font-family="TimesNewRomanPS-BoldMT" font-weight="bold" font-size="36.0" fill="#000000" transform="matrix(1.00, 0.00, -0.00, -1.00, 249.0, 307.0)">n</text><text xml:space="preserve" font-family="TimesNewRomanPS-BoldMT" font-weight="bold" font-size="36.0" fill="#000000" transform="matrix(1.00, 0.00, -0.00, -1.00, 269.0, 307.0)">t</text><text xml:space="preserve" font-family="TimesNewRomanPS-BoldMT" font-weight="bold" font-size="36.0" fill="#000000" transform="matrix(1.00, 0.00, -0.00, -1.00, 281.0, 307.0)">u</text><text xml:space="preserve" font-family="TimesNewRomanPS-BoldMT" font-weight="bold" font-size="36.0" fill="#000000" transform="matrix(1.00, 0.00, -0.00, -1.00, 301.0, 307.0)">c</text><text xml:space="preserve" font-family="TimesNewRomanPS-BoldMT" font-weight="bold" font-size="36.0" fill="#000000" transform="matrix(1.00, 0.00, -0.00, -1.00, 317.0, 307.0)">k</text><text xml:space="preserve" font-family="TimesNewRomanPS-BoldMT" font-weight="bold" font-size="36.0" fill="#000000" transform="matrix(1.00, 0.00, -0.00, -1.00, 337.0, 307.0)">y</text><text xml:space="preserve" font-family="TimesNewRomanPS-BoldMT" font-weight="bold" font-size="36.0" fill="#000000" transform="matrix(1.00, 0.00, -0.00, -1.00, 355.0, 307.0)"> </text><text xml:space="preserve" font-family="TimesNewRomanPS-BoldMT" font-weight="bold" font-size="36.0" fill="#000000" transform="matrix(1.00, 0.00, -0.00, -1.00, 364.0, 307.0)">m</text><text xml:space="preserve" font-family="TimesNewRomanPS-BoldMT" font-weight="bold" font-size="36.0" fill="#000000" transform="matrix(1.00, 0.00, -0.00, -1.00, 394.0, 307.0)">a</text><text xml:space="preserve" font-family="TimesNewRomanPS-BoldMT" font-weight="bold" font-size="36.0" fill="#000000" transform="matrix(1.00, 0.00, -0.00, -1.00, 412.0, 307.0)">n</text><text xml:space="preserve" font-family="TimesNewRomanPS-BoldMT" font-weight="bold" font-size="36.0" fill="#000000" transform="matrix(1.00, 0.00, -0.00, -1.00, 432.0, 307.0)"> </text><text xml:space="preserve" font-family="TimesNewRomanPS-BoldMT" font-weight="bold" font-size="36.0" fill="#000000" transform="matrix(1.00, 0.00, -0.00, -1.00, 441.0, 307.0)">h</text><text xml:space="preserve" font-family="TimesNewRomanPS-BoldMT" font-weight="bold" font-size="36.0" fill="#000000" transform="matrix(1.00, 0.00, -0.00, -1.00, 461.1, 307.0)">a</text><text xml:space="preserve" font-family="TimesNewRomanPS-BoldMT" font-weight="bold" font-size="36.0" fill="#000000" transform="matrix(1.00, 0.00, -0.00, -1.00, 479.1, 307.0)">d</text><text xml:space="preserve" font-family="TimesNewRomanPS-BoldMT" font-weight="bold" font-size="36.0" fill="#000000" transform="matrix(1.00, 0.00, -0.00, -1.00, 499.1, 307.0)"> </text><text xml:space="preserve" font-family="TimesNewRomanPS-BoldMT" font-weight="bold" font-size="36.0" fill="#000000" transform="matrix(1.00, 0.00, -0.00, -1.00, 508.1, 307.0)">t</text><text xml:space="preserve" font-family="TimesNewRomanPS-BoldMT" font-weight="bold" font-size="36.0" fill="#000000" transform="matrix(1.00, 0.00, -0.00, -1.00, 520.1, 307.0)">h</text><text xml:space="preserve" font-family="TimesNewRomanPS-BoldMT" font-weight="bold" font-size="36.0" fill="#000000" transform="matrix(1.00, 0.00, -0.00, -1.00, 540.1, 307.0)">e</text><text xml:space="preserve" font-family="TimesNewRomanPS-BoldMT" font-weight="bold" font-size="36.0" fill="#000000" transform="matrix(1.00, 0.00, -0.00, -1.00, 556.1, 307.0)"> </text><text xml:space="preserve" font-family="TimesNewRomanPS-BoldMT" font-weight="bold" font-size="36.0" fill="#000000" transform="matrix(1.00, 0.00, -0.00, -1.00, 565.1, 307.0)">r</text><text xml:space="preserve" font-family="TimesNewRomanPS-BoldMT" font-weight="bold" font-size="36.0" fill="#000000" transform="matrix(1.00, 0.00, -0.00, -1.00, 581.1, 307.0)">i</text><text xml:space="preserve" font-family="TimesNewRomanPS-BoldMT" font-weight="bold" font-size="36.0" fill="#000000" transform="matrix(1.00, 0.00, -0.00, -1.00, 591.1, 307.0)">g</text><text xml:space="preserve" font-family="TimesNewRomanPS-BoldMT" font-weight="bold" font-size="36.0" fill="#000000" transform="matrix(1.00, 0.00, -0.00, -1.00, 609.1, 307.0)">h</text><text xml:space="preserve" font-family="TimesNewRomanPS-BoldMT" font-weight="bold" font-size="36.0" fill="#000000" transform="matrix(1.00, 0.00, -0.00, -1.00, 629.1, 307.0)">t</text><text xml:space="preserve" font-family="TimesNewRomanPS-BoldMT" font-weight="bold" font-size="36.0" fill="#000000" transform="matrix(1.00, 0.00, -0.00, -1.00, 641.1, 307.0)"> </text><text xml:space="preserve" font-family="TimesNewRomanPS-BoldMT" font-weight="bold" font-size="36.0" fill="#000000" transform="matrix(1.00, 0.00, -0.00, -1.00, 650.1, 307.0)">t</text><text xml:space="preserve" font-family="TimesNewRomanPS-BoldMT" font-weight="bold" font-size="36.0" fill="#000000" transform="matrix(1.00, 0.00, -0.00, -1.00, 662.1, 307.0)">o</text><text xml:space="preserve" font-family="TimesNewRomanPS-BoldMT" font-weight="bold" font-size="36.0" fill="#000000" transform="matrix(1.00, 0.00, -0.00, -1.00, 680.1, 307.0)"> </text><text xml:space="preserve" font-family="TimesNewRomanPS-BoldMT" font-weight="bold" font-size="36.0" fill="#000000" transform="matrix(1.00, 0.00, -0.00, -1.00, 88.0, 265.0)">s</text><text xml:space="preserve" font-family="TimesNewRomanPS-BoldMT" font-weight="bold" font-size="36.0" fill="#000000" transform="matrix(1.00, 0.00, -0.00, -1.00, 102.0, 265.0)">h</text><text xml:space="preserve" font-family="TimesNewRomanPS-BoldMT" font-weight="bold" font-size="36.0" fill="#000000" transform="matrix(1.00, 0.00, -0.00, -1.00, 122.0, 265.0)">o</text><text xml:space="preserve" font-family="TimesNewRomanPS-BoldMT" font-weight="bold" font-size="36.0" fill="#000000" transform="matrix(1.00, 0.00, -0.00, -1.00, 140.0, 265.0)">o</text><text xml:space="preserve" font-family="TimesNewRomanPS-BoldMT" font-weight="bold" font-size="36.0" fill="#000000" transform="matrix(1.00, 0.00, -0.00, -1.00, 158.0, 265.0)">t</text><text xml:space="preserve" font-family="TimesNewRomanPS-BoldMT" font-weight="bold" font-size="36.0" fill="#000000" transform="matrix(1.00, 0.00, -0.00, -1.00, 170.0, 265.0)"> </text><text xml:space="preserve" font-family="TimesNewRomanPS-BoldMT" font-weight="bold" font-size="36.0" fill="#000000" transform="matrix(1.00, 0.00, -0.00, -1.00, 179.0, 265.0)">d</text><text xml:space="preserve" font-family="TimesNewRomanPS-BoldMT" font-weight="bold" font-size="36.0" fill="#000000" transform="matrix(1.00, 0.00, -0.00, -1.00, 199.1, 265.0)">o</text><text xml:space="preserve" font-family="TimesNewRomanPS-BoldMT" font-weight="bold" font-size="36.0" fill="#000000" transform="matrix(1.00, 0.00, -0.00, -1.00, 217.1, 265.0)">w</text><text xml:space="preserve" font-family="TimesNewRomanPS-BoldMT" font-weight="bold" font-size="36.0" fill="#000000" transform="matrix(1.00, 0.00, -0.00, -1.00, 243.1, 265.0)">n</text><text xml:space="preserve" font-family="TimesNewRomanPS-BoldMT" font-weight="bold" font-size="36.0" fill="#000000" transform="matrix(1.00, 0.00, -0.00, -1.00, 263.1, 265.0)"> </text><text xml:space="preserve" font-family="TimesNewRomanPS-BoldMT" font-weight="bold" font-size="36.0" fill="#000000" transform="matrix(1.00, 0.00, -0.00, -1.00, 272.1, 265.0)">h</text><text xml:space="preserve" font-family="TimesNewRomanPS-BoldMT" font-weight="bold" font-size="36.0" fill="#000000" transform="matrix(1.00, 0.00, -0.00, -1.00, 292.1, 265.0)">i</text><text xml:space="preserve" font-family="TimesNewRomanPS-BoldMT" font-weight="bold" font-size="36.0" fill="#000000" transform="matrix(1.00, 0.00, -0.00, -1.00, 302.1, 265.0)">s</text><text xml:space="preserve" font-family="TimesNewRomanPS-BoldMT" font-weight="bold" font-size="36.0" fill="#000000" transform="matrix(1.00, 0.00, -0.00, -1.00, 316.1, 265.0)"> </text><text xml:space="preserve" font-family="TimesNewRomanPS-BoldMT" font-weight="bold" font-size="36.0" fill="#000000" transform="matrix(1.00, 0.00, -0.00, -1.00, 325.1, 265.0)">n</text><text xml:space="preserve" font-family="TimesNewRomanPS-BoldMT" font-weight="bold" font-size="36.0" fill="#000000" transform="matrix(1.00, 0.00, -0.00, -1.00, 345.2, 265.0)">e</text><text xml:space="preserve" font-family="TimesNewRomanPS-BoldMT" font-weight="bold" font-size="36.0" fill="#000000" transform="matrix(1.00, 0.00, -0.00, -1.00, 361.1, 265.0)">i</text><text xml:space="preserve" font-family="TimesNewRomanPS-BoldMT" font-weight="bold" font-size="36.0" fill="#000000" transform="matrix(1.00, 0.00, -0.00, -1.00, 371.1, 265.0)">g</text><text xml:space="preserve" font-family="TimesNewRomanPS-BoldMT" font-weight="bold" font-size="36.0" fill="#000000" transform="matrix(1.00, 0.00, -0.00, -1.00, 389.1, 265.0)">h</text><text xml:space="preserve" font-family="TimesNewRomanPS-BoldMT" font-weight="bold" font-size="36.0" fill="#000000" transform="matrix(1.00, 0.00, -0.00, -1.00, 409.2, 265.0)">b</text><text xml:space="preserve" font-family="TimesNewRomanPS-BoldMT" font-weight="bold" font-size="36.0" fill="#000000" transform="matrix(1.00, 0.00, -0.00, -1.00, 429.2, 265.0)">o</text><text xml:space="preserve" font-family="TimesNewRomanPS-BoldMT" font-weight="bold" font-size="36.0" fill="#000000" transform="matrix(1.00, 0.00, -0.00, -1.00, 447.2, 265.0)">r</text><text xml:space="preserve" font-family="TimesNewRomanPS-BoldMT" font-weight="bold" font-size="36.0" fill="#000000" transform="matrix(1.00, 0.00, -0.00, -1.00, 463.8, 265.0)">’</text><text xml:space="preserve" font-family="TimesNewRomanPS-BoldMT" font-weight="bold" font-size="36.0" fill="#000000" transform="matrix(1.00, 0.00, -0.00, -1.00, 474.5, 265.0)">s</text><text xml:space="preserve" font-family="TimesNewRomanPS-BoldMT" font-weight="bold" font-size="36.0" fill="#000000" transform="matrix(1.00, 0.00, -0.00, -1.00, 488.5, 265.0)"> </text><text xml:space="preserve" font-family="TimesNewRomanPS-BoldMT" font-weight="bold" font-size="36.0" fill="#000000" transform="matrix(1.00, 0.00, -0.00, -1.00, 497.5, 265.0)">d</text><text xml:space="preserve" font-family="TimesNewRomanPS-BoldMT" font-weight="bold" font-size="36.0" fill="#000000" transform="matrix(1.00, 0.00, -0.00, -1.00, 517.5, 265.0)">r</text><text xml:space="preserve" font-family="TimesNewRomanPS-BoldMT" font-weight="bold" font-size="36.0" fill="#000000" transform="matrix(1.00, 0.00, -0.00, -1.00, 532.8, 265.0)">o</text><text xml:space="preserve" font-family="TimesNewRomanPS-BoldMT" font-weight="bold" font-size="36.0" fill="#000000" transform="matrix(1.00, 0.00, -0.00, -1.00, 550.8, 265.0)">n</text><text xml:space="preserve" font-family="TimesNewRomanPS-BoldMT" font-weight="bold" font-size="36.0" fill="#000000" transform="matrix(1.00, 0.00, -0.00, -1.00, 570.9, 265.0)">e</text><text xml:space="preserve" font-family="TimesNewRomanPS-BoldMT" font-weight="bold" font-size="36.0" fill="#000000" transform="matrix(1.00, 0.00, -0.00, -1.00, 586.8, 265.0)">!</text><text xml:space="preserve" font-family="TimesNewRomanPS-BoldMT" font-weight="bold" font-size="36.0" fill="#000000" transform="matrix(1.00, 0.00, -0.00, -1.00, 598.8, 265.0)">!</text><text xml:space="preserve" font-family="TimesNewRomanPS-BoldMT" font-weight="bold" font-size="36.0" fill="#000000" transform="matrix(1.00, 0.00, -0.00, -1.00, 610.8, 265.0)"> </text></g></g></g></svg>