<?xml version="1.0" encoding="UTF-8" standalone="no"?><svg xmlns="http://www.w3.org/2000/svg" xmlns:xlink="http://www.w3.org/1999/xlink" clip-rule="evenodd" stroke-miterlimit="4.00" viewBox="0 0 407 87"><desc>SVG generated by Keynote</desc><defs></defs><g transform="matrix(1.00, 0.00, -0.00, -1.00, 0.0, 87.0)"><text xml:space="preserve" font-family="HelveticaNeue" font-size="18.0" fill="#000000" transform="matrix(1.00, 0.00, -0.00, -1.00, 2.0, 72.0)">…</text><text xml:space="preserve" font-family="HelveticaNeue" font-size="18.0" fill="#000000" transform="matrix(1.00, 0.00, -0.00, -1.00, 20.0, 72.0)">d</text><text xml:space="preserve" font-family="HelveticaNeue" font-size="18.0" fill="#000000" transform="matrix(1.00, 0.00, -0.00, -1.00, 30.7, 72.0)">a</text><text xml:space="preserve" font-family="HelveticaNeue" font-size="18.0" fill="#000000" transform="matrix(1.00, 0.00, -0.00, -1.00, 40.3, 72.0)">u</text><text xml:space="preserve" font-family="HelveticaNeue" font-size="18.0" fill="#000000" transform="matrix(1.00, 0.00, -0.00, -1.00, 50.3, 72.0)">g</text><text xml:space="preserve" font-family="HelveticaNeue" font-size="18.0" fill="#000000" transform="matrix(1.00, 0.00, -0.00, -1.00, 60.7, 72.0)">h</text><text xml:space="preserve" font-family="HelveticaNeue" font-size="18.0" fill="#000000" transform="matrix(1.00, 0.00, -0.00, -1.00, 70.7, 72.0)">t</text><text xml:space="preserve" font-family="HelveticaNeue" font-size="18.0" fill="#000000" transform="matrix(1.00, 0.00, -0.00, -1.00, 76.4, 72.0)">e</text><text xml:space="preserve" font-family="HelveticaNeue" font-size="18.0" fill="#000000" transform="matrix(1.00, 0.00, -0.00, -1.00, 86.0, 72.0)">r</text><text xml:space="preserve" font-family="HelveticaNeue" font-size="18.0" fill="#000000" transform="matrix(1.00, 0.00, -0.00, -1.00, 92.0, 72.0)"> </text><text xml:space="preserve" font-family="HelveticaNeue" font-size="18.0" fill="#000000" transform="matrix(1.00, 0.00, -0.00, -1.00, 97.0, 72.0)">w</text><text xml:space="preserve" font-family="HelveticaNeue" font-size="18.0" fill="#000000" transform="matrix(1.00, 0.00, -0.00, -1.00, 110.7, 72.0)">a</text><text xml:space="preserve" font-family="HelveticaNeue" font-size="18.0" fill="#000000" transform="matrix(1.00, 0.00, -0.00, -1.00, 120.3, 72.0)">s</text><text xml:space="preserve" font-family="HelveticaNeue" font-size="18.0" fill="#000000" transform="matrix(1.00, 0.00, -0.00, -1.00, 129.3, 72.0)"> </text><text xml:space="preserve" font-family="HelveticaNeue" font-size="18.0" fill="#000000" transform="matrix(1.00, 0.00, -0.00, -1.00, 134.3, 72.0)">l</text><text xml:space="preserve" font-family="HelveticaNeue" font-size="18.0" fill="#000000" transform="matrix(1.00, 0.00, -0.00, -1.00, 138.3, 72.0)">a</text><text xml:space="preserve" font-family="HelveticaNeue" font-size="18.0" fill="#000000" transform="matrix(1.00, 0.00, -0.00, -1.00, 148.0, 72.0)">y</text><text xml:space="preserve" font-family="HelveticaNeue" font-size="18.0" fill="#000000" transform="matrix(1.00, 0.00, -0.00, -1.00, 157.0, 72.0)">i</text><text xml:space="preserve" font-family="HelveticaNeue" font-size="18.0" fill="#000000" transform="matrix(1.00, 0.00, -0.00, -1.00, 161.0, 72.0)">n</text><text xml:space="preserve" font-family="HelveticaNeue" font-size="18.0" fill="#000000" transform="matrix(1.00, 0.00, -0.00, -1.00, 171.0, 72.0)">g</text><text xml:space="preserve" font-family="HelveticaNeue" font-size="18.0" fill="#000000" transform="matrix(1.00, 0.00, -0.00, -1.00, 181.3, 72.0)"> </text><text xml:space="preserve" font-family="HelveticaNeue" font-size="18.0" fill="#000000" transform="matrix(1.00, 0.00, -0.00, -1.00, 186.3, 72.0)">o</text><text xml:space="preserve" font-family="HelveticaNeue" font-size="18.0" fill="#000000" transform="matrix(1.00, 0.00, -0.00, -1.00, 196.7, 72.0)">u</text><text xml:space="preserve" font-family="HelveticaNeue" font-size="18.0" fill="#000000" transform="matrix(1.00, 0.00, -0.00, -1.00, 206.7, 72.0)">t</text><text xml:space="preserve" font-family="HelveticaNeue" font-size="18.0" fill="#000000" transform="matrix(1.00, 0.00, -0.00, -1.00, 212.3, 72.0)"> </text><text xml:space="preserve" font-family="HelveticaNeue" font-size="18.0" fill="#000000" transform="matrix(1.00, 0.00, -0.00, -1.00, 217.4, 72.0)">b</text><text xml:space="preserve" font-family="HelveticaNeue" font-size="18.0" fill="#000000" transform="matrix(1.00, 0.00, -0.00, -1.00, 228.0, 72.0)">y</text><text xml:space="preserve" font-family="HelveticaNeue" font-size="18.0" fill="#000000" transform="matrix(1.00, 0.00, -0.00, -1.00, 237.0, 72.0)"> </text><text xml:space="preserve" font-family="HelveticaNeue" font-size="18.0" fill="#000000" transform="matrix(1.00, 0.00, -0.00, -1.00, 242.0, 72.0)">t</text><text xml:space="preserve" font-family="HelveticaNeue" font-size="18.0" fill="#000000" transform="matrix(1.00, 0.00, -0.00, -1.00, 247.7, 72.0)">h</text><text xml:space="preserve" font-family="HelveticaNeue" font-size="18.0" fill="#000000" transform="matrix(1.00, 0.00, -0.00, -1.00, 257.7, 72.0)">e</text><text xml:space="preserve" font-family="HelveticaNeue" font-size="18.0" fill="#000000" transform="matrix(1.00, 0.00, -0.00, -1.00, 267.4, 72.0)">i</text><text xml:space="preserve" font-family="HelveticaNeue" font-size="18.0" fill="#000000" transform="matrix(1.00, 0.00, -0.00, -1.00, 271.4, 72.0)">r</text><text xml:space="preserve" font-family="HelveticaNeue" font-size="18.0" fill="#000000" transform="matrix(1.00, 0.00, -0.00, -1.00, 277.4, 72.0)"> </text><text xml:space="preserve" font-family="HelveticaNeue" font-size="18.0" fill="#000000" transform="matrix(1.00, 0.00, -0.00, -1.00, 282.4, 72.0)">p</text><text xml:space="preserve" font-family="HelveticaNeue" font-size="18.0" fill="#000000" transform="matrix(1.00, 0.00, -0.00, -1.00, 293.0, 72.0)">o</text><text xml:space="preserve" font-family="HelveticaNeue" font-size="18.0" fill="#000000" transform="matrix(1.00, 0.00, -0.00, -1.00, 303.4, 72.0)">o</text><text xml:space="preserve" font-family="HelveticaNeue" font-size="18.0" fill="#000000" transform="matrix(1.00, 0.00, -0.00, -1.00, 313.7, 72.0)">l</text><text xml:space="preserve" font-family="HelveticaNeue" font-size="18.0" fill="#000000" transform="matrix(1.00, 0.00, -0.00, -1.00, 317.7, 72.0)"> </text><text xml:space="preserve" font-family="HelveticaNeue" font-size="18.0" fill="#000000" transform="matrix(1.00, 0.00, -0.00, -1.00, 322.7, 72.0)">a</text><text xml:space="preserve" font-family="HelveticaNeue" font-size="18.0" fill="#000000" transform="matrix(1.00, 0.00, -0.00, -1.00, 332.4, 72.0)">t</text><text xml:space="preserve" font-family="HelveticaNeue" font-size="18.0" fill="#000000" transform="matrix(1.00, 0.00, -0.00, -1.00, 338.0, 72.0)"> </text><text xml:space="preserve" font-family="HelveticaNeue" font-size="18.0" fill="#000000" transform="matrix(1.00, 0.00, -0.00, -1.00, 343.0, 72.0)">t</text><text xml:space="preserve" font-family="HelveticaNeue" font-size="18.0" fill="#000000" transform="matrix(1.00, 0.00, -0.00, -1.00, 348.7, 72.0)">h</text><text xml:space="preserve" font-family="HelveticaNeue" font-size="18.0" fill="#000000" transform="matrix(1.00, 0.00, -0.00, -1.00, 358.7, 72.0)">e</text><text xml:space="preserve" font-family="HelveticaNeue" font-size="18.0" fill="#000000" transform="matrix(1.00, 0.00, -0.00, -1.00, 368.4, 72.0)"> </text><text xml:space="preserve" font-family="HelveticaNeue" font-size="18.0" fill="#000000" transform="matrix(1.00, 0.00, -0.00, -1.00, 2.0, 50.0)">t</text><text xml:space="preserve" font-family="HelveticaNeue" font-size="18.0" fill="#000000" transform="matrix(1.00, 0.00, -0.00, -1.00, 7.7, 50.0)">i</text><text xml:space="preserve" font-family="HelveticaNeue" font-size="18.0" fill="#000000" transform="matrix(1.00, 0.00, -0.00, -1.00, 11.7, 50.0)">m</text><text xml:space="preserve" font-family="HelveticaNeue" font-size="18.0" fill="#000000" transform="matrix(1.00, 0.00, -0.00, -1.00, 27.0, 50.0)">e</text><text xml:space="preserve" font-family="HelveticaNeue" font-size="18.0" fill="#000000" transform="matrix(1.00, 0.00, -0.00, -1.00, 36.7, 50.0)">…</text><text xml:space="preserve" font-family="HelveticaNeue" font-size="18.0" fill="#000000" transform="matrix(1.00, 0.00, -0.00, -1.00, 54.7, 50.0)">h</text><text xml:space="preserve" font-family="HelveticaNeue" font-size="18.0" fill="#000000" transform="matrix(1.00, 0.00, -0.00, -1.00, 64.7, 50.0)">o</text><text xml:space="preserve" font-family="HelveticaNeue" font-size="18.0" fill="#000000" transform="matrix(1.00, 0.00, -0.00, -1.00, 75.0, 50.0)">m</text><text xml:space="preserve" font-family="HelveticaNeue" font-size="18.0" fill="#000000" transform="matrix(1.00, 0.00, -0.00, -1.00, 90.4, 50.0)">e</text><text xml:space="preserve" font-family="HelveticaNeue" font-size="18.0" fill="#000000" transform="matrix(1.00, 0.00, -0.00, -1.00, 100.0, 50.0)">o</text><text xml:space="preserve" font-family="HelveticaNeue" font-size="18.0" fill="#000000" transform="matrix(1.00, 0.00, -0.00, -1.00, 110.4, 50.0)">w</text><text xml:space="preserve" font-family="HelveticaNeue" font-size="18.0" fill="#000000" transform="matrix(1.00, 0.00, -0.00, -1.00, 124.0, 50.0)">n</text><text xml:space="preserve" font-family="HelveticaNeue" font-size="18.0" fill="#000000" transform="matrix(1.00, 0.00, -0.00, -1.00, 134.0, 50.0)">e</text><text xml:space="preserve" font-family="HelveticaNeue" font-size="18.0" fill="#000000" transform="matrix(1.00, 0.00, -0.00, -1.00, 143.7, 50.0)">r</text><text xml:space="preserve" font-family="HelveticaNeue" font-size="18.0" fill="#000000" transform="matrix(1.00, 0.00, -0.00, -1.00, 149.7, 50.0)"> </text><text xml:space="preserve" font-family="HelveticaNeue" font-size="18.0" fill="#000000" transform="matrix(1.00, 0.00, -0.00, -1.00, 154.7, 50.0)">f</text><text xml:space="preserve" font-family="HelveticaNeue" font-size="18.0" fill="#000000" transform="matrix(1.00, 0.00, -0.00, -1.00, 160.0, 50.0)">e</text><text xml:space="preserve" font-family="HelveticaNeue" font-size="18.0" fill="#000000" transform="matrix(1.00, 0.00, -0.00, -1.00, 169.7, 50.0)">t</text><text xml:space="preserve" font-family="HelveticaNeue" font-size="18.0" fill="#000000" transform="matrix(1.00, 0.00, -0.00, -1.00, 175.4, 50.0)">c</text><text xml:space="preserve" font-family="HelveticaNeue" font-size="18.0" fill="#000000" transform="matrix(1.00, 0.00, -0.00, -1.00, 185.0, 50.0)">h</text><text xml:space="preserve" font-family="HelveticaNeue" font-size="18.0" fill="#000000" transform="matrix(1.00, 0.00, -0.00, -1.00, 195.0, 50.0)">e</text><text xml:space="preserve" font-family="HelveticaNeue" font-size="18.0" fill="#000000" transform="matrix(1.00, 0.00, -0.00, -1.00, 204.7, 50.0)">d</text><text xml:space="preserve" font-family="HelveticaNeue" font-size="18.0" fill="#000000" transform="matrix(1.00, 0.00, -0.00, -1.00, 215.4, 50.0)"> </text><text xml:space="preserve" font-family="HelveticaNeue" font-size="18.0" fill="#000000" transform="matrix(1.00, 0.00, -0.00, -1.00, 220.4, 50.0)">h</text><text xml:space="preserve" font-family="HelveticaNeue" font-size="18.0" fill="#000000" transform="matrix(1.00, 0.00, -0.00, -1.00, 230.4, 50.0)">i</text><text xml:space="preserve" font-family="HelveticaNeue" font-size="18.0" fill="#000000" transform="matrix(1.00, 0.00, -0.00, -1.00, 234.4, 50.0)">s</text><text xml:space="preserve" font-family="HelveticaNeue" font-size="18.0" fill="#000000" transform="matrix(1.00, 0.00, -0.00, -1.00, 243.4, 50.0)"> </text><text xml:space="preserve" font-family="HelveticaNeue" font-size="18.0" fill="#000000" transform="matrix(1.00, 0.00, -0.00, -1.00, 248.4, 50.0)">s</text><text xml:space="preserve" font-family="HelveticaNeue" font-size="18.0" fill="#000000" transform="matrix(1.00, 0.00, -0.00, -1.00, 257.4, 50.0)">h</text><text xml:space="preserve" font-family="HelveticaNeue" font-size="18.0" fill="#000000" transform="matrix(1.00, 0.00, -0.00, -1.00, 267.4, 50.0)">o</text><text xml:space="preserve" font-family="HelveticaNeue" font-size="18.0" fill="#000000" transform="matrix(1.00, 0.00, -0.00, -1.00, 277.7, 50.0)">t</text><text xml:space="preserve" font-family="HelveticaNeue" font-size="18.0" fill="#000000" transform="matrix(1.00, 0.00, -0.00, -1.00, 283.4, 50.0)">g</text><text xml:space="preserve" font-family="HelveticaNeue" font-size="18.0" fill="#000000" transform="matrix(1.00, 0.00, -0.00, -1.00, 293.7, 50.0)">u</text><text xml:space="preserve" font-family="HelveticaNeue" font-size="18.0" fill="#000000" transform="matrix(1.00, 0.00, -0.00, -1.00, 303.7, 50.0)">n</text><text xml:space="preserve" font-family="HelveticaNeue" font-size="18.0" fill="#000000" transform="matrix(1.00, 0.00, -0.00, -1.00, 313.7, 50.0)"> </text><text xml:space="preserve" font-family="HelveticaNeue" font-size="18.0" fill="#000000" transform="matrix(1.00, 0.00, -0.00, -1.00, 318.7, 50.0)">a</text><text xml:space="preserve" font-family="HelveticaNeue" font-size="18.0" fill="#000000" transform="matrix(1.00, 0.00, -0.00, -1.00, 328.4, 50.0)">n</text><text xml:space="preserve" font-family="HelveticaNeue" font-size="18.0" fill="#000000" transform="matrix(1.00, 0.00, -0.00, -1.00, 338.4, 50.0)">d</text><text xml:space="preserve" font-family="HelveticaNeue" font-size="18.0" fill="#000000" transform="matrix(1.00, 0.00, -0.00, -1.00, 349.1, 50.0)"> </text><text xml:space="preserve" font-family="HelveticaNeue" font-size="18.0" fill="#000000" transform="matrix(1.00, 0.00, -0.00, -1.00, 2.0, 28.0)">p</text><text xml:space="preserve" font-family="HelveticaNeue" font-size="18.0" fill="#000000" transform="matrix(1.00, 0.00, -0.00, -1.00, 12.7, 28.0)">u</text><text xml:space="preserve" font-family="HelveticaNeue" font-size="18.0" fill="#000000" transform="matrix(1.00, 0.00, -0.00, -1.00, 22.7, 28.0)">m</text><text xml:space="preserve" font-family="HelveticaNeue" font-size="18.0" fill="#000000" transform="matrix(1.00, 0.00, -0.00, -1.00, 38.0, 28.0)">p</text><text xml:space="preserve" font-family="HelveticaNeue" font-size="18.0" fill="#000000" transform="matrix(1.00, 0.00, -0.00, -1.00, 48.7, 28.0)">e</text><text xml:space="preserve" font-family="HelveticaNeue" font-size="18.0" fill="#000000" transform="matrix(1.00, 0.00, -0.00, -1.00, 58.4, 28.0)">d</text><text xml:space="preserve" font-family="HelveticaNeue" font-size="18.0" fill="#000000" transform="matrix(1.00, 0.00, -0.00, -1.00, 69.0, 28.0)"> </text><text xml:space="preserve" font-family="HelveticaNeue" font-size="18.0" fill="#000000" transform="matrix(1.00, 0.00, -0.00, -1.00, 74.1, 28.0)">t</text><text xml:space="preserve" font-family="HelveticaNeue" font-size="18.0" fill="#000000" transform="matrix(1.00, 0.00, -0.00, -1.00, 79.7, 28.0)">h</text><text xml:space="preserve" font-family="HelveticaNeue" font-size="18.0" fill="#000000" transform="matrix(1.00, 0.00, -0.00, -1.00, 89.7, 28.0)">r</text><text xml:space="preserve" font-family="HelveticaNeue" font-size="18.0" fill="#000000" transform="matrix(1.00, 0.00, -0.00, -1.00, 95.4, 28.0)">e</text><text xml:space="preserve" font-family="HelveticaNeue" font-size="18.0" fill="#000000" transform="matrix(1.00, 0.00, -0.00, -1.00, 105.1, 28.0)">e</text><text xml:space="preserve" font-family="HelveticaNeue" font-size="18.0" fill="#000000" transform="matrix(1.00, 0.00, -0.00, -1.00, 114.7, 28.0)"> </text><text xml:space="preserve" font-family="HelveticaNeue" font-size="18.0" fill="#000000" transform="matrix(1.00, 0.00, -0.00, -1.00, 119.7, 28.0)">h</text><text xml:space="preserve" font-family="HelveticaNeue" font-size="18.0" fill="#000000" transform="matrix(1.00, 0.00, -0.00, -1.00, 129.7, 28.0)">e</text><text xml:space="preserve" font-family="HelveticaNeue" font-size="18.0" fill="#000000" transform="matrix(1.00, 0.00, -0.00, -1.00, 139.4, 28.0)">l</text><text xml:space="preserve" font-family="HelveticaNeue" font-size="18.0" fill="#000000" transform="matrix(1.00, 0.00, -0.00, -1.00, 143.4, 28.0)">p</text><text xml:space="preserve" font-family="HelveticaNeue" font-size="18.0" fill="#000000" transform="matrix(1.00, 0.00, -0.00, -1.00, 154.1, 28.0)">i</text><text xml:space="preserve" font-family="HelveticaNeue" font-size="18.0" fill="#000000" transform="matrix(1.00, 0.00, -0.00, -1.00, 158.1, 28.0)">n</text><text xml:space="preserve" font-family="HelveticaNeue" font-size="18.0" fill="#000000" transform="matrix(1.00, 0.00, -0.00, -1.00, 168.1, 28.0)">g</text><text xml:space="preserve" font-family="HelveticaNeue" font-size="18.0" fill="#000000" transform="matrix(1.00, 0.00, -0.00, -1.00, 178.4, 28.0)">s</text><text xml:space="preserve" font-family="HelveticaNeue" font-size="18.0" fill="#000000" transform="matrix(1.00, 0.00, -0.00, -1.00, 187.4, 28.0)"> </text><text xml:space="preserve" font-family="HelveticaNeue" font-size="18.0" fill="#000000" transform="matrix(1.00, 0.00, -0.00, -1.00, 192.4, 28.0)">o</text><text xml:space="preserve" font-family="HelveticaNeue" font-size="18.0" fill="#000000" transform="matrix(1.00, 0.00, -0.00, -1.00, 202.8, 28.0)">f</text><text xml:space="preserve" font-family="HelveticaNeue" font-size="18.0" fill="#000000" transform="matrix(1.00, 0.00, -0.00, -1.00, 208.1, 28.0)"> </text><text xml:space="preserve" font-family="HelveticaNeue" font-size="18.0" fill="#000000" transform="matrix(1.00, 0.00, -0.00, -1.00, 213.1, 28.0)">b</text><text xml:space="preserve" font-family="HelveticaNeue" font-size="18.0" fill="#000000" transform="matrix(1.00, 0.00, -0.00, -1.00, 223.8, 28.0)">i</text><text xml:space="preserve" font-family="HelveticaNeue" font-size="18.0" fill="#000000" transform="matrix(1.00, 0.00, -0.00, -1.00, 227.8, 28.0)">r</text><text xml:space="preserve" font-family="HelveticaNeue" font-size="18.0" fill="#000000" transform="matrix(1.00, 0.00, -0.00, -1.00, 233.4, 28.0)">d</text><text xml:space="preserve" font-family="HelveticaNeue" font-size="18.0" fill="#000000" transform="matrix(1.00, 0.00, -0.00, -1.00, 244.1, 28.0)">s</text><text xml:space="preserve" font-family="HelveticaNeue" font-size="18.0" fill="#000000" transform="matrix(1.00, 0.00, -0.00, -1.00, 253.1, 28.0)">h</text><text xml:space="preserve" font-family="HelveticaNeue" font-size="18.0" fill="#000000" transform="matrix(1.00, 0.00, -0.00, -1.00, 263.1, 28.0)">o</text><text xml:space="preserve" font-family="HelveticaNeue" font-size="18.0" fill="#000000" transform="matrix(1.00, 0.00, -0.00, -1.00, 273.4, 28.0)">t</text><text xml:space="preserve" font-family="HelveticaNeue" font-size="18.0" fill="#000000" transform="matrix(1.00, 0.00, -0.00, -1.00, 279.1, 28.0)"> </text><text xml:space="preserve" font-family="HelveticaNeue" font-size="18.0" fill="#000000" transform="matrix(1.00, 0.00, -0.00, -1.00, 284.1, 28.0)">i</text><text xml:space="preserve" font-family="HelveticaNeue" font-size="18.0" fill="#000000" transform="matrix(1.00, 0.00, -0.00, -1.00, 288.1, 28.0)">n</text><text xml:space="preserve" font-family="HelveticaNeue" font-size="18.0" fill="#000000" transform="matrix(1.00, 0.00, -0.00, -1.00, 298.1, 28.0)">t</text><text xml:space="preserve" font-family="HelveticaNeue" font-size="18.0" fill="#000000" transform="matrix(1.00, 0.00, -0.00, -1.00, 303.8, 28.0)">o</text><text xml:space="preserve" font-family="HelveticaNeue" font-size="18.0" fill="#000000" transform="matrix(1.00, 0.00, -0.00, -1.00, 314.1, 28.0)"> </text><text xml:space="preserve" font-family="HelveticaNeue" font-size="18.0" fill="#000000" transform="matrix(1.00, 0.00, -0.00, -1.00, 319.1, 28.0)">t</text><text xml:space="preserve" font-family="HelveticaNeue" font-size="18.0" fill="#000000" transform="matrix(1.00, 0.00, -0.00, -1.00, 324.8, 28.0)">h</text><text xml:space="preserve" font-family="HelveticaNeue" font-size="18.0" fill="#000000" transform="matrix(1.00, 0.00, -0.00, -1.00, 334.8, 28.0)">e</text><text xml:space="preserve" font-family="HelveticaNeue" font-size="18.0" fill="#000000" transform="matrix(1.00, 0.00, -0.00, -1.00, 344.5, 28.0)"> </text><text xml:space="preserve" font-family="HelveticaNeue" font-size="18.0" fill="#000000" transform="matrix(1.00, 0.00, -0.00, -1.00, 349.5, 28.0)">$</text><text xml:space="preserve" font-family="HelveticaNeue" font-size="18.0" fill="#000000" transform="matrix(1.00, 0.00, -0.00, -1.00, 359.5, 28.0)">1</text><text xml:space="preserve" font-family="HelveticaNeue" font-size="18.0" fill="#000000" transform="matrix(1.00, 0.00, -0.00, -1.00, 369.5, 28.0)">,</text><text xml:space="preserve" font-family="HelveticaNeue" font-size="18.0" fill="#000000" transform="matrix(1.00, 0.00, -0.00, -1.00, 374.5, 28.0)">8</text><text xml:space="preserve" font-family="HelveticaNeue" font-size="18.0" fill="#000000" transform="matrix(1.00, 0.00, -0.00, -1.00, 384.5, 28.0)">0</text><text xml:space="preserve" font-family="HelveticaNeue" font-size="18.0" fill="#000000" transform="matrix(1.00, 0.00, -0.00, -1.00, 394.5, 28.0)">0</text><text xml:space="preserve" font-family="HelveticaNeue" font-size="18.0" fill="#000000" transform="matrix(1.00, 0.00, -0.00, -1.00, 404.5, 28.0)"> </text><text xml:space="preserve" font-family="HelveticaNeue" font-size="18.0" fill="#000000" transform="matrix(1.00, 0.00, -0.00, -1.00, 2.0, 6.0)">d</text><text xml:space="preserve" font-family="HelveticaNeue" font-size="18.0" fill="#000000" transform="matrix(1.00, 0.00, -0.00, -1.00, 12.7, 6.0)">r</text><text xml:space="preserve" font-family="HelveticaNeue" font-size="18.0" fill="#000000" transform="matrix(1.00, 0.00, -0.00, -1.00, 18.3, 6.0)">o</text><text xml:space="preserve" font-family="HelveticaNeue" font-size="18.0" fill="#000000" transform="matrix(1.00, 0.00, -0.00, -1.00, 28.7, 6.0)">n</text><text xml:space="preserve" font-family="HelveticaNeue" font-size="18.0" fill="#000000" transform="matrix(1.00, 0.00, -0.00, -1.00, 38.7, 6.0)">e</text><text xml:space="preserve" font-family="HelveticaNeue" font-size="18.0" fill="#000000" transform="matrix(1.00, 0.00, -0.00, -1.00, 48.3, 6.0)">,</text><text xml:space="preserve" font-family="HelveticaNeue" font-size="18.0" fill="#000000" transform="matrix(1.00, 0.00, -0.00, -1.00, 53.4, 6.0)"> </text><text xml:space="preserve" font-family="HelveticaNeue" font-size="18.0" fill="#000000" transform="matrix(1.00, 0.00, -0.00, -1.00, 58.4, 6.0)">t</text><text xml:space="preserve" font-family="HelveticaNeue" font-size="18.0" fill="#000000" transform="matrix(1.00, 0.00, -0.00, -1.00, 64.0, 6.0)">a</text><text xml:space="preserve" font-family="HelveticaNeue" font-size="18.0" fill="#000000" transform="matrix(1.00, 0.00, -0.00, -1.00, 73.7, 6.0)">k</text><text xml:space="preserve" font-family="HelveticaNeue" font-size="18.0" fill="#000000" transform="matrix(1.00, 0.00, -0.00, -1.00, 83.0, 6.0)">i</text><text xml:space="preserve" font-family="HelveticaNeue" font-size="18.0" fill="#000000" transform="matrix(1.00, 0.00, -0.00, -1.00, 87.0, 6.0)">n</text><text xml:space="preserve" font-family="HelveticaNeue" font-size="18.0" fill="#000000" transform="matrix(1.00, 0.00, -0.00, -1.00, 97.0, 6.0)">g</text><text xml:space="preserve" font-family="HelveticaNeue" font-size="18.0" fill="#000000" transform="matrix(1.00, 0.00, -0.00, -1.00, 107.4, 6.0)"> </text><text xml:space="preserve" font-family="HelveticaNeue" font-size="18.0" fill="#000000" transform="matrix(1.00, 0.00, -0.00, -1.00, 112.4, 6.0)">i</text><text xml:space="preserve" font-family="HelveticaNeue" font-size="18.0" fill="#000000" transform="matrix(1.00, 0.00, -0.00, -1.00, 116.4, 6.0)">t</text><text xml:space="preserve" font-family="HelveticaNeue" font-size="18.0" fill="#000000" transform="matrix(1.00, 0.00, -0.00, -1.00, 122.0, 6.0)"> </text><text xml:space="preserve" font-family="HelveticaNeue" font-size="18.0" fill="#000000" transform="matrix(1.00, 0.00, -0.00, -1.00, 127.0, 6.0)">o</text><text xml:space="preserve" font-family="HelveticaNeue" font-size="18.0" fill="#000000" transform="matrix(1.00, 0.00, -0.00, -1.00, 137.4, 6.0)">u</text><text xml:space="preserve" font-family="HelveticaNeue" font-size="18.0" fill="#000000" transform="matrix(1.00, 0.00, -0.00, -1.00, 147.4, 6.0)">t</text><text xml:space="preserve" font-family="HelveticaNeue" font-size="18.0" fill="#000000" transform="matrix(1.00, 0.00, -0.00, -1.00, 153.1, 6.0)"> </text><text xml:space="preserve" font-family="HelveticaNeue" font-size="18.0" fill="#000000" transform="matrix(1.00, 0.00, -0.00, -1.00, 158.1, 6.0)">o</text><text xml:space="preserve" font-family="HelveticaNeue" font-size="18.0" fill="#000000" transform="matrix(1.00, 0.00, -0.00, -1.00, 168.4, 6.0)">f</text><text xml:space="preserve" font-family="HelveticaNeue" font-size="18.0" fill="#000000" transform="matrix(1.00, 0.00, -0.00, -1.00, 173.7, 6.0)"> </text><text xml:space="preserve" font-family="HelveticaNeue" font-size="18.0" fill="#000000" transform="matrix(1.00, 0.00, -0.00, -1.00, 178.7, 6.0)">t</text><text xml:space="preserve" font-family="HelveticaNeue" font-size="18.0" fill="#000000" transform="matrix(1.00, 0.00, -0.00, -1.00, 184.4, 6.0)">h</text><text xml:space="preserve" font-family="HelveticaNeue" font-size="18.0" fill="#000000" transform="matrix(1.00, 0.00, -0.00, -1.00, 194.4, 6.0)">e</text><text xml:space="preserve" font-family="HelveticaNeue" font-size="18.0" fill="#000000" transform="matrix(1.00, 0.00, -0.00, -1.00, 204.1, 6.0)"> </text><text xml:space="preserve" font-family="HelveticaNeue" font-size="18.0" fill="#000000" transform="matrix(1.00, 0.00, -0.00, -1.00, 209.1, 6.0)">a</text><text xml:space="preserve" font-family="HelveticaNeue" font-size="18.0" fill="#000000" transform="matrix(1.00, 0.00, -0.00, -1.00, 218.7, 6.0)">i</text><text xml:space="preserve" font-family="HelveticaNeue" font-size="18.0" fill="#000000" transform="matrix(1.00, 0.00, -0.00, -1.00, 222.7, 6.0)">r</text><text xml:space="preserve" font-family="HelveticaNeue" font-size="18.0" fill="#000000" transform="matrix(1.00, 0.00, -0.00, -1.00, 228.7, 6.0)"> </text><text xml:space="preserve" font-family="HelveticaNeue" font-size="18.0" fill="#000000" transform="matrix(1.00, 0.00, -0.00, -1.00, 233.7, 6.0)">i</text><text xml:space="preserve" font-family="HelveticaNeue" font-size="18.0" fill="#000000" transform="matrix(1.00, 0.00, -0.00, -1.00, 237.7, 6.0)">n</text><text xml:space="preserve" font-family="HelveticaNeue" font-size="18.0" fill="#000000" transform="matrix(1.00, 0.00, -0.00, -1.00, 247.7, 6.0)"> </text><text xml:space="preserve" font-family="HelveticaNeue" font-size="18.0" fill="#000000" transform="matrix(1.00, 0.00, -0.00, -1.00, 252.7, 6.0)">s</text><text xml:space="preserve" font-family="HelveticaNeue" font-size="18.0" fill="#000000" transform="matrix(1.00, 0.00, -0.00, -1.00, 261.7, 6.0)">h</text><text xml:space="preserve" font-family="HelveticaNeue" font-size="18.0" fill="#000000" transform="matrix(1.00, 0.00, -0.00, -1.00, 271.7, 6.0)">o</text><text xml:space="preserve" font-family="HelveticaNeue" font-size="18.0" fill="#000000" transform="matrix(1.00, 0.00, -0.00, -1.00, 282.1, 6.0)">r</text><text xml:space="preserve" font-family="HelveticaNeue" font-size="18.0" fill="#000000" transform="matrix(1.00, 0.00, -0.00, -1.00, 288.1, 6.0)">t</text><text xml:space="preserve" font-family="HelveticaNeue" font-size="18.0" fill="#000000" transform="matrix(1.00, 0.00, -0.00, -1.00, 293.7, 6.0)"> </text><text xml:space="preserve" font-family="HelveticaNeue" font-size="18.0" fill="#000000" transform="matrix(1.00, 0.00, -0.00, -1.00, 298.7, 6.0)">o</text><text xml:space="preserve" font-family="HelveticaNeue" font-size="18.0" fill="#000000" transform="matrix(1.00, 0.00, -0.00, -1.00, 309.1, 6.0)">r</text><text xml:space="preserve" font-family="HelveticaNeue" font-size="18.0" fill="#000000" transform="matrix(1.00, 0.00, -0.00, -1.00, 314.7, 6.0)">d</text><text xml:space="preserve" font-family="HelveticaNeue" font-size="18.0" fill="#000000" transform="matrix(1.00, 0.00, -0.00, -1.00, 325.4, 6.0)">e</text><text xml:space="preserve" font-family="HelveticaNeue" font-size="18.0" fill="#000000" transform="matrix(1.00, 0.00, -0.00, -1.00, 335.1, 6.0)">r</text><text xml:space="preserve" font-family="HelveticaNeue" font-size="18.0" fill="#000000" transform="matrix(1.00, 0.00, -0.00, -1.00, 339.4, 6.0)">.</text></g></svg>