<?xml version="1.0" encoding="UTF-8" standalone="no"?><svg xmlns="http://www.w3.org/2000/svg" xmlns:xlink="http://www.w3.org/1999/xlink" clip-rule="evenodd" stroke-miterlimit="4.00" viewBox="0 0 657 51"><desc>SVG generated by Keynote</desc><defs></defs><g transform="matrix(1.00, 0.00, -0.00, -1.00, 0.0, 51.0)"><text xml:space="preserve" font-family="Helvetica" font-size="24.0" fill="#212121" transform="matrix(1.00, 0.00, -0.00, -1.00, 1.0, 31.0)">D</text><text xml:space="preserve" font-family="Helvetica" font-size="24.0" fill="#212121" transform="matrix(1.00, 0.00, -0.00, -1.00, 18.3, 31.0)">r</text><text xml:space="preserve" font-family="Helvetica" font-size="24.0" fill="#212121" transform="matrix(1.00, 0.00, -0.00, -1.00, 26.3, 31.0)">o</text><text xml:space="preserve" font-family="Helvetica" font-size="24.0" fill="#212121" transform="matrix(1.00, 0.00, -0.00, -1.00, 39.7, 31.0)">n</text><text xml:space="preserve" font-family="Helvetica" font-size="24.0" fill="#212121" transform="matrix(1.00, 0.00, -0.00, -1.00, 53.0, 31.0)">e</text><text xml:space="preserve" font-family="Helvetica" font-size="24.0" fill="#212121" transform="matrix(1.00, 0.00, -0.00, -1.00, 66.4, 31.0)">s</text><text xml:space="preserve" font-family="Helvetica" font-size="24.0" fill="#212121" transform="matrix(1.00, 0.00, -0.00, -1.00, 78.4, 31.0)">,</text><text xml:space="preserve" font-family="Helvetica" font-size="24.0" fill="#212121" transform="matrix(1.00, 0.00, -0.00, -1.00, 85.0, 31.0)"> </text><text xml:space="preserve" font-family="Helvetica" font-size="24.0" fill="#212121" transform="matrix(1.00, 0.00, -0.00, -1.00, 91.7, 31.0)">h</text><text xml:space="preserve" font-family="Helvetica" font-size="24.0" fill="#212121" transform="matrix(1.00, 0.00, -0.00, -1.00, 105.1, 31.0)">e</text><text xml:space="preserve" font-family="Helvetica" font-size="24.0" fill="#212121" transform="matrix(1.00, 0.00, -0.00, -1.00, 118.4, 31.0)">l</text><text xml:space="preserve" font-family="Helvetica" font-size="24.0" fill="#212121" transform="matrix(1.00, 0.00, -0.00, -1.00, 123.8, 31.0)">i</text><text xml:space="preserve" font-family="Helvetica" font-size="24.0" fill="#212121" transform="matrix(1.00, 0.00, -0.00, -1.00, 129.1, 31.0)">s</text><text xml:space="preserve" font-family="Helvetica" font-size="24.0" fill="#212121" transform="matrix(1.00, 0.00, -0.00, -1.00, 141.1, 31.0)"> </text><text xml:space="preserve" font-family="Helvetica-Bold" font-weight="bold" font-size="24.0" fill="#212121" transform="matrix(1.00, 0.00, -0.00, -1.00, 147.7, 31.0)">b</text><text xml:space="preserve" font-family="Helvetica-Bold" font-weight="bold" font-size="24.0" fill="#212121" transform="matrix(1.00, 0.00, -0.00, -1.00, 162.4, 31.0)">a</text><text xml:space="preserve" font-family="Helvetica-Bold" font-weight="bold" font-size="24.0" fill="#212121" transform="matrix(1.00, 0.00, -0.00, -1.00, 175.7, 31.0)">n</text><text xml:space="preserve" font-family="Helvetica-Bold" font-weight="bold" font-size="24.0" fill="#212121" transform="matrix(1.00, 0.00, -0.00, -1.00, 190.4, 31.0)">n</text><text xml:space="preserve" font-family="Helvetica-Bold" font-weight="bold" font-size="24.0" fill="#212121" transform="matrix(1.00, 0.00, -0.00, -1.00, 205.0, 31.0)">e</text><text xml:space="preserve" font-family="Helvetica-Bold" font-weight="bold" font-size="24.0" fill="#212121" transform="matrix(1.00, 0.00, -0.00, -1.00, 218.4, 31.0)">d</text><text xml:space="preserve" font-family="Helvetica-Bold" font-weight="bold" font-size="24.0" fill="#212121" transform="matrix(1.00, 0.00, -0.00, -1.00, 233.0, 31.0)"> </text><text xml:space="preserve" font-family="Helvetica-Bold" font-weight="bold" font-size="24.0" fill="#212121" transform="matrix(1.00, 0.00, -0.00, -1.00, 239.7, 31.0)">i</text><text xml:space="preserve" font-family="Helvetica-Bold" font-weight="bold" font-size="24.0" fill="#212121" transform="matrix(1.00, 0.00, -0.00, -1.00, 246.4, 31.0)">n</text><text xml:space="preserve" font-family="Helvetica-Bold" font-weight="bold" font-size="24.0" fill="#212121" transform="matrix(1.00, 0.00, -0.00, -1.00, 261.0, 31.0)"> </text><text xml:space="preserve" font-family="Helvetica-Bold" font-weight="bold" font-size="24.0" fill="#212121" transform="matrix(1.00, 0.00, -0.00, -1.00, 267.7, 31.0)">T</text><text xml:space="preserve" font-family="Helvetica-Bold" font-weight="bold" font-size="24.0" fill="#212121" transform="matrix(1.00, 0.00, -0.00, -1.00, 280.6, 31.0)">o</text><text xml:space="preserve" font-family="Helvetica-Bold" font-weight="bold" font-size="24.0" fill="#212121" transform="matrix(1.00, 0.00, -0.00, -1.00, 295.2, 31.0)">k</text><text xml:space="preserve" font-family="Helvetica-Bold" font-weight="bold" font-size="24.0" fill="#212121" transform="matrix(1.00, 0.00, -0.00, -1.00, 308.6, 31.0)">y</text><text xml:space="preserve" font-family="Helvetica-Bold" font-weight="bold" font-size="24.0" fill="#212121" transform="matrix(1.00, 0.00, -0.00, -1.00, 321.9, 31.0)">o</text><text xml:space="preserve" font-family="Helvetica-Bold" font-weight="bold" font-size="24.0" fill="#212121" transform="matrix(1.00, 0.00, -0.00, -1.00, 336.6, 31.0)"> </text><text xml:space="preserve" font-family="Helvetica-Bold" font-weight="bold" font-size="24.0" fill="#212121" transform="matrix(1.00, 0.00, -0.00, -1.00, 343.2, 31.0)">p</text><text xml:space="preserve" font-family="Helvetica-Bold" font-weight="bold" font-size="24.0" fill="#212121" transform="matrix(1.00, 0.00, -0.00, -1.00, 357.9, 31.0)">u</text><text xml:space="preserve" font-family="Helvetica-Bold" font-weight="bold" font-size="24.0" fill="#212121" transform="matrix(1.00, 0.00, -0.00, -1.00, 372.5, 31.0)">b</text><text xml:space="preserve" font-family="Helvetica-Bold" font-weight="bold" font-size="24.0" fill="#212121" transform="matrix(1.00, 0.00, -0.00, -1.00, 387.2, 31.0)">l</text><text xml:space="preserve" font-family="Helvetica-Bold" font-weight="bold" font-size="24.0" fill="#212121" transform="matrix(1.00, 0.00, -0.00, -1.00, 393.9, 31.0)">i</text><text xml:space="preserve" font-family="Helvetica-Bold" font-weight="bold" font-size="24.0" fill="#212121" transform="matrix(1.00, 0.00, -0.00, -1.00, 400.5, 31.0)">c</text><text xml:space="preserve" font-family="Helvetica-Bold" font-weight="bold" font-size="24.0" fill="#212121" transform="matrix(1.00, 0.00, -0.00, -1.00, 413.9, 31.0)"> </text><text xml:space="preserve" font-family="Helvetica-Bold" font-weight="bold" font-size="24.0" fill="#212121" transform="matrix(1.00, 0.00, -0.00, -1.00, 420.5, 31.0)">p</text><text xml:space="preserve" font-family="Helvetica-Bold" font-weight="bold" font-size="24.0" fill="#212121" transform="matrix(1.00, 0.00, -0.00, -1.00, 435.2, 31.0)">a</text><text xml:space="preserve" font-family="Helvetica-Bold" font-weight="bold" font-size="24.0" fill="#212121" transform="matrix(1.00, 0.00, -0.00, -1.00, 448.5, 31.0)">r</text><text xml:space="preserve" font-family="Helvetica-Bold" font-weight="bold" font-size="24.0" fill="#212121" transform="matrix(1.00, 0.00, -0.00, -1.00, 457.9, 31.0)">k</text><text xml:space="preserve" font-family="Helvetica-Bold" font-weight="bold" font-size="24.0" fill="#212121" transform="matrix(1.00, 0.00, -0.00, -1.00, 471.2, 31.0)">s</text><text xml:space="preserve" font-family="Helvetica-Bold" font-weight="bold" font-size="24.0" fill="#212121" transform="matrix(1.00, 0.00, -0.00, -1.00, 484.5, 31.0)"> </text><text xml:space="preserve" font-family="Helvetica" font-size="24.0" fill="#212121" transform="matrix(1.00, 0.00, -0.00, -1.00, 491.3, 31.0)">a</text><text xml:space="preserve" font-family="Helvetica" font-size="24.0" fill="#212121" transform="matrix(1.00, 0.00, -0.00, -1.00, 504.7, 31.0)">f</text><text xml:space="preserve" font-family="Helvetica" font-size="24.0" fill="#212121" transform="matrix(1.00, 0.00, -0.00, -1.00, 511.4, 31.0)">t</text><text xml:space="preserve" font-family="Helvetica" font-size="24.0" fill="#212121" transform="matrix(1.00, 0.00, -0.00, -1.00, 518.0, 31.0)">e</text><text xml:space="preserve" font-family="Helvetica" font-size="24.0" fill="#212121" transform="matrix(1.00, 0.00, -0.00, -1.00, 531.4, 31.0)">r</text><text xml:space="preserve" font-family="Helvetica" font-size="24.0" fill="#212121" transform="matrix(1.00, 0.00, -0.00, -1.00, 539.4, 31.0)"> </text><text xml:space="preserve" font-family="Helvetica" font-size="24.0" fill="#212121" transform="matrix(1.00, 0.00, -0.00, -1.00, 546.0, 31.0)">o</text><text xml:space="preserve" font-family="Helvetica" font-size="24.0" fill="#212121" transform="matrix(1.00, 0.00, -0.00, -1.00, 559.4, 31.0)">n</text><text xml:space="preserve" font-family="Helvetica" font-size="24.0" fill="#212121" transform="matrix(1.00, 0.00, -0.00, -1.00, 572.7, 31.0)">e</text><text xml:space="preserve" font-family="Helvetica" font-size="24.0" fill="#212121" transform="matrix(1.00, 0.00, -0.00, -1.00, 586.1, 31.0)"> </text><text xml:space="preserve" font-family="Helvetica-Bold" font-weight="bold" font-size="24.0" fill="#212121" transform="matrix(1.00, 0.00, -0.00, -1.00, 592.8, 31.0)">l</text><text xml:space="preserve" font-family="Helvetica-Bold" font-weight="bold" font-size="24.0" fill="#212121" transform="matrix(1.00, 0.00, -0.00, -1.00, 599.4, 31.0)">a</text><text xml:space="preserve" font-family="Helvetica-Bold" font-weight="bold" font-size="24.0" fill="#212121" transform="matrix(1.00, 0.00, -0.00, -1.00, 612.8, 31.0)">n</text><text xml:space="preserve" font-family="Helvetica-Bold" font-weight="bold" font-size="24.0" fill="#212121" transform="matrix(1.00, 0.00, -0.00, -1.00, 627.4, 31.0)">d</text><text xml:space="preserve" font-family="Helvetica-Bold" font-weight="bold" font-size="24.0" fill="#212121" transform="matrix(1.00, 0.00, -0.00, -1.00, 642.1, 31.0)">s</text><text xml:space="preserve" font-family="Helvetica-Bold" font-weight="bold" font-size="24.0" fill="#212121" transform="matrix(1.00, 0.00, -0.00, -1.00, 655.4, 31.0)"> </text><text xml:space="preserve" font-family="Helvetica-Bold" font-weight="bold" font-size="24.0" fill="#000000" transform="matrix(1.00, 0.00, -0.00, -1.00, 252.0, 2.0)">o</text><text xml:space="preserve" font-family="Helvetica-Bold" font-weight="bold" font-size="24.0" fill="#000000" transform="matrix(1.00, 0.00, -0.00, -1.00, 266.7, 2.0)">n</text><text xml:space="preserve" font-family="Helvetica-Bold" font-weight="bold" font-size="24.0" fill="#000000" transform="matrix(1.00, 0.00, -0.00, -1.00, 281.3, 2.0)"> </text><text xml:space="preserve" font-family="Helvetica-Bold" font-weight="bold" font-size="24.0" fill="#000000" transform="matrix(1.00, 0.00, -0.00, -1.00, 288.0, 2.0)">P</text><text xml:space="preserve" font-family="Helvetica-Bold" font-weight="bold" font-size="24.0" fill="#000000" transform="matrix(1.00, 0.00, -0.00, -1.00, 304.0, 2.0)">M</text><text xml:space="preserve" font-family="Helvetica-Bold" font-weight="bold" font-size="24.0" fill="#000000" transform="matrix(1.00, 0.00, -0.00, -1.00, 324.0, 2.0)">’</text><text xml:space="preserve" font-family="Helvetica-Bold" font-weight="bold" font-size="24.0" fill="#000000" transform="matrix(1.00, 0.00, -0.00, -1.00, 329.8, 2.0)">s</text><text xml:space="preserve" font-family="Helvetica-Bold" font-weight="bold" font-size="24.0" fill="#000000" transform="matrix(1.00, 0.00, -0.00, -1.00, 343.1, 2.0)"> </text><text xml:space="preserve" font-family="Helvetica-Bold" font-weight="bold" font-size="24.0" fill="#000000" transform="matrix(1.00, 0.00, -0.00, -1.00, 349.8, 2.0)">r</text><text xml:space="preserve" font-family="Helvetica-Bold" font-weight="bold" font-size="24.0" fill="#000000" transform="matrix(1.00, 0.00, -0.00, -1.00, 359.1, 2.0)">o</text><text xml:space="preserve" font-family="Helvetica-Bold" font-weight="bold" font-size="24.0" fill="#000000" transform="matrix(1.00, 0.00, -0.00, -1.00, 373.8, 2.0)">o</text><text xml:space="preserve" font-family="Helvetica-Bold" font-weight="bold" font-size="24.0" fill="#000000" transform="matrix(1.00, 0.00, -0.00, -1.00, 388.4, 2.0)">f</text><text xml:space="preserve" font-family="Helvetica-Bold" font-weight="bold" font-size="24.0" fill="#000000" transform="matrix(1.00, 0.00, -0.00, -1.00, 396.4, 2.0)">!</text><text xml:space="preserve" font-family="Helvetica-Bold" font-weight="bold" font-size="24.0" fill="#000000" transform="matrix(1.00, 0.00, -0.00, -1.00, 404.4, 2.0)"> </text></g></svg>