<?xml version="1.0" encoding="UTF-8" standalone="no"?><svg xmlns="http://www.w3.org/2000/svg" xmlns:xlink="http://www.w3.org/1999/xlink" clip-rule="evenodd" stroke-miterlimit="4.00" viewBox="0 0 583 51"><desc>SVG generated by Keynote</desc><defs></defs><g transform="matrix(1.00, 0.00, -0.00, -1.00, 0.0, 51.0)"><text xml:space="preserve" font-family="Helvetica" font-size="24.0" fill="#000000" transform="matrix(1.00, 0.00, -0.00, -1.00, 1.0, 31.0)">D</text><text xml:space="preserve" font-family="Helvetica" font-size="24.0" fill="#000000" transform="matrix(1.00, 0.00, -0.00, -1.00, 18.3, 31.0)">r</text><text xml:space="preserve" font-family="Helvetica" font-size="24.0" fill="#000000" transform="matrix(1.00, 0.00, -0.00, -1.00, 26.3, 31.0)">o</text><text xml:space="preserve" font-family="Helvetica" font-size="24.0" fill="#000000" transform="matrix(1.00, 0.00, -0.00, -1.00, 39.7, 31.0)">n</text><text xml:space="preserve" font-family="Helvetica" font-size="24.0" fill="#000000" transform="matrix(1.00, 0.00, -0.00, -1.00, 53.0, 31.0)">e</text><text xml:space="preserve" font-family="Helvetica" font-size="24.0" fill="#000000" transform="matrix(1.00, 0.00, -0.00, -1.00, 66.4, 31.0)"> </text><text xml:space="preserve" font-family="Helvetica" font-size="24.0" fill="#000000" transform="matrix(1.00, 0.00, -0.00, -1.00, 73.0, 31.0)">C</text><text xml:space="preserve" font-family="Helvetica" font-size="24.0" fill="#000000" transform="matrix(1.00, 0.00, -0.00, -1.00, 90.4, 31.0)">r</text><text xml:space="preserve" font-family="Helvetica" font-size="24.0" fill="#000000" transform="matrix(1.00, 0.00, -0.00, -1.00, 98.4, 31.0)">a</text><text xml:space="preserve" font-family="Helvetica" font-size="24.0" fill="#000000" transform="matrix(1.00, 0.00, -0.00, -1.00, 111.7, 31.0)">s</text><text xml:space="preserve" font-family="Helvetica" font-size="24.0" fill="#000000" transform="matrix(1.00, 0.00, -0.00, -1.00, 123.7, 31.0)">h</text><text xml:space="preserve" font-family="Helvetica" font-size="24.0" fill="#000000" transform="matrix(1.00, 0.00, -0.00, -1.00, 137.1, 31.0)"> </text><text xml:space="preserve" font-family="Helvetica" font-size="24.0" fill="#000000" transform="matrix(1.00, 0.00, -0.00, -1.00, 143.7, 31.0)">K</text><text xml:space="preserve" font-family="Helvetica" font-size="24.0" fill="#000000" transform="matrix(1.00, 0.00, -0.00, -1.00, 159.8, 31.0)">i</text><text xml:space="preserve" font-family="Helvetica" font-size="24.0" fill="#000000" transform="matrix(1.00, 0.00, -0.00, -1.00, 165.1, 31.0)">l</text><text xml:space="preserve" font-family="Helvetica" font-size="24.0" fill="#000000" transform="matrix(1.00, 0.00, -0.00, -1.00, 170.4, 31.0)">l</text><text xml:space="preserve" font-family="Helvetica" font-size="24.0" fill="#000000" transform="matrix(1.00, 0.00, -0.00, -1.00, 175.8, 31.0)">s</text><text xml:space="preserve" font-family="Helvetica" font-size="24.0" fill="#000000" transform="matrix(1.00, 0.00, -0.00, -1.00, 187.8, 31.0)"> </text><text xml:space="preserve" font-family="Helvetica" font-size="24.0" fill="#000000" transform="matrix(1.00, 0.00, -0.00, -1.00, 194.4, 31.0)">P</text><text xml:space="preserve" font-family="Helvetica" font-size="24.0" fill="#000000" transform="matrix(1.00, 0.00, -0.00, -1.00, 210.4, 31.0)">o</text><text xml:space="preserve" font-family="Helvetica" font-size="24.0" fill="#000000" transform="matrix(1.00, 0.00, -0.00, -1.00, 223.8, 31.0)">w</text><text xml:space="preserve" font-family="Helvetica" font-size="24.0" fill="#000000" transform="matrix(1.00, 0.00, -0.00, -1.00, 241.1, 31.0)">e</text><text xml:space="preserve" font-family="Helvetica" font-size="24.0" fill="#000000" transform="matrix(1.00, 0.00, -0.00, -1.00, 254.5, 31.0)">r</text><text xml:space="preserve" font-family="Helvetica" font-size="24.0" fill="#000000" transform="matrix(1.00, 0.00, -0.00, -1.00, 262.5, 31.0)"> </text><text xml:space="preserve" font-family="Helvetica" font-size="24.0" fill="#000000" transform="matrix(1.00, 0.00, -0.00, -1.00, 269.1, 31.0)">t</text><text xml:space="preserve" font-family="Helvetica" font-size="24.0" fill="#000000" transform="matrix(1.00, 0.00, -0.00, -1.00, 275.8, 31.0)">o</text><text xml:space="preserve" font-family="Helvetica" font-size="24.0" fill="#000000" transform="matrix(1.00, 0.00, -0.00, -1.00, 289.1, 31.0)"> </text><text xml:space="preserve" font-family="Helvetica" font-size="24.0" fill="#000000" transform="matrix(1.00, 0.00, -0.00, -1.00, 295.8, 31.0)">H</text><text xml:space="preserve" font-family="Helvetica" font-size="24.0" fill="#000000" transform="matrix(1.00, 0.00, -0.00, -1.00, 313.1, 31.0)">u</text><text xml:space="preserve" font-family="Helvetica" font-size="24.0" fill="#000000" transform="matrix(1.00, 0.00, -0.00, -1.00, 326.5, 31.0)">n</text><text xml:space="preserve" font-family="Helvetica" font-size="24.0" fill="#000000" transform="matrix(1.00, 0.00, -0.00, -1.00, 339.9, 31.0)">d</text><text xml:space="preserve" font-family="Helvetica" font-size="24.0" fill="#000000" transform="matrix(1.00, 0.00, -0.00, -1.00, 353.2, 31.0)">r</text><text xml:space="preserve" font-family="Helvetica" font-size="24.0" fill="#000000" transform="matrix(1.00, 0.00, -0.00, -1.00, 361.2, 31.0)">e</text><text xml:space="preserve" font-family="Helvetica" font-size="24.0" fill="#000000" transform="matrix(1.00, 0.00, -0.00, -1.00, 374.6, 31.0)">d</text><text xml:space="preserve" font-family="Helvetica" font-size="24.0" fill="#000000" transform="matrix(1.00, 0.00, -0.00, -1.00, 387.9, 31.0)">s</text><text xml:space="preserve" font-family="Helvetica" font-size="24.0" fill="#000000" transform="matrix(1.00, 0.00, -0.00, -1.00, 399.9, 31.0)"> </text><text xml:space="preserve" font-family="Helvetica" font-size="24.0" fill="#000000" transform="matrix(1.00, 0.00, -0.00, -1.00, 406.6, 31.0)">o</text><text xml:space="preserve" font-family="Helvetica" font-size="24.0" fill="#000000" transform="matrix(1.00, 0.00, -0.00, -1.00, 419.9, 31.0)">f</text><text xml:space="preserve" font-family="Helvetica" font-size="24.0" fill="#000000" transform="matrix(1.00, 0.00, -0.00, -1.00, 426.6, 31.0)"> </text><text xml:space="preserve" font-family="Helvetica" font-size="24.0" fill="#000000" transform="matrix(1.00, 0.00, -0.00, -1.00, 433.2, 31.0)">L</text><text xml:space="preserve" font-family="Helvetica" font-size="24.0" fill="#000000" transform="matrix(1.00, 0.00, -0.00, -1.00, 446.6, 31.0)">A</text><text xml:space="preserve" font-family="Helvetica" font-size="24.0" fill="#000000" transform="matrix(1.00, 0.00, -0.00, -1.00, 461.3, 31.0)"> </text><text xml:space="preserve" font-family="Helvetica" font-size="24.0" fill="#000000" transform="matrix(1.00, 0.00, -0.00, -1.00, 468.0, 31.0)">R</text><text xml:space="preserve" font-family="Helvetica" font-size="24.0" fill="#000000" transform="matrix(1.00, 0.00, -0.00, -1.00, 485.3, 31.0)">e</text><text xml:space="preserve" font-family="Helvetica" font-size="24.0" fill="#000000" transform="matrix(1.00, 0.00, -0.00, -1.00, 498.6, 31.0)">s</text><text xml:space="preserve" font-family="Helvetica" font-size="24.0" fill="#000000" transform="matrix(1.00, 0.00, -0.00, -1.00, 510.6, 31.0)">i</text><text xml:space="preserve" font-family="Helvetica" font-size="24.0" fill="#000000" transform="matrix(1.00, 0.00, -0.00, -1.00, 516.0, 31.0)">d</text><text xml:space="preserve" font-family="Helvetica" font-size="24.0" fill="#000000" transform="matrix(1.00, 0.00, -0.00, -1.00, 529.3, 31.0)">e</text><text xml:space="preserve" font-family="Helvetica" font-size="24.0" fill="#000000" transform="matrix(1.00, 0.00, -0.00, -1.00, 542.7, 31.0)">n</text><text xml:space="preserve" font-family="Helvetica" font-size="24.0" fill="#000000" transform="matrix(1.00, 0.00, -0.00, -1.00, 556.0, 31.0)">t</text><text xml:space="preserve" font-family="Helvetica" font-size="24.0" fill="#000000" transform="matrix(1.00, 0.00, -0.00, -1.00, 562.7, 31.0)">s</text><text xml:space="preserve" font-family="Helvetica" font-size="24.0" fill="#000000" transform="matrix(1.00, 0.00, -0.00, -1.00, 574.7, 31.0)"> </text><text xml:space="preserve" font-family="Helvetica" font-size="24.0" fill="#000000" transform="matrix(1.00, 0.00, -0.00, -1.00, 276.0, 2.0)">O</text><text xml:space="preserve" font-family="Helvetica" font-size="24.0" fill="#000000" transform="matrix(1.00, 0.00, -0.00, -1.00, 294.7, 2.0)">c</text><text xml:space="preserve" font-family="Helvetica" font-size="24.0" fill="#000000" transform="matrix(1.00, 0.00, -0.00, -1.00, 306.7, 2.0)">t</text><text xml:space="preserve" font-family="Helvetica" font-size="24.0" fill="#000000" transform="matrix(1.00, 0.00, -0.00, -1.00, 313.3, 2.0)"> </text><text xml:space="preserve" font-family="Helvetica" font-size="24.0" fill="#000000" transform="matrix(1.00, 0.00, -0.00, -1.00, 320.0, 2.0)">2</text><text xml:space="preserve" font-family="Helvetica" font-size="24.0" fill="#000000" transform="matrix(1.00, 0.00, -0.00, -1.00, 333.3, 2.0)">0</text><text xml:space="preserve" font-family="Helvetica" font-size="24.0" fill="#000000" transform="matrix(1.00, 0.00, -0.00, -1.00, 346.7, 2.0)">1</text><text xml:space="preserve" font-family="Helvetica" font-size="24.0" fill="#000000" transform="matrix(1.00, 0.00, -0.00, -1.00, 360.0, 2.0)">5</text></g></svg>