<?xml version="1.0" encoding="UTF-8" standalone="no"?><svg xmlns="http://www.w3.org/2000/svg" xmlns:xlink="http://www.w3.org/1999/xlink" clip-rule="evenodd" stroke-miterlimit="4.00" viewBox="0 0 541 21"><desc>SVG generated by Keynote</desc><defs></defs><g transform="matrix(1.00, 0.00, -0.00, -1.00, 0.0, 21.0)"><text xml:space="preserve" font-family="HelveticaNeue" font-size="18.0" fill="#000000" transform="matrix(1.00, 0.00, -0.00, -1.00, 2.0, 6.0)">T</text><text xml:space="preserve" font-family="HelveticaNeue" font-size="18.0" fill="#000000" transform="matrix(1.00, 0.00, -0.00, -1.00, 10.3, 6.0)">o</text><text xml:space="preserve" font-family="HelveticaNeue" font-size="18.0" fill="#000000" transform="matrix(1.00, 0.00, -0.00, -1.00, 20.7, 6.0)">d</text><text xml:space="preserve" font-family="HelveticaNeue" font-size="18.0" fill="#000000" transform="matrix(1.00, 0.00, -0.00, -1.00, 31.3, 6.0)">d</text><text xml:space="preserve" font-family="HelveticaNeue" font-size="18.0" fill="#000000" transform="matrix(1.00, 0.00, -0.00, -1.00, 42.0, 6.0)">l</text><text xml:space="preserve" font-family="HelveticaNeue" font-size="18.0" fill="#000000" transform="matrix(1.00, 0.00, -0.00, -1.00, 46.0, 6.0)">e</text><text xml:space="preserve" font-family="HelveticaNeue" font-size="18.0" fill="#000000" transform="matrix(1.00, 0.00, -0.00, -1.00, 55.7, 6.0)">r</text><text xml:space="preserve" font-family="HelveticaNeue" font-size="18.0" fill="#000000" transform="matrix(1.00, 0.00, -0.00, -1.00, 61.7, 6.0)"> </text><text xml:space="preserve" font-family="HelveticaNeue" font-size="18.0" fill="#000000" transform="matrix(1.00, 0.00, -0.00, -1.00, 66.7, 6.0)">i</text><text xml:space="preserve" font-family="HelveticaNeue" font-size="18.0" fill="#000000" transform="matrix(1.00, 0.00, -0.00, -1.00, 70.7, 6.0)">n</text><text xml:space="preserve" font-family="HelveticaNeue" font-size="18.0" fill="#000000" transform="matrix(1.00, 0.00, -0.00, -1.00, 80.7, 6.0)">j</text><text xml:space="preserve" font-family="HelveticaNeue" font-size="18.0" fill="#000000" transform="matrix(1.00, 0.00, -0.00, -1.00, 84.7, 6.0)">u</text><text xml:space="preserve" font-family="HelveticaNeue" font-size="18.0" fill="#000000" transform="matrix(1.00, 0.00, -0.00, -1.00, 94.7, 6.0)">r</text><text xml:space="preserve" font-family="HelveticaNeue" font-size="18.0" fill="#000000" transform="matrix(1.00, 0.00, -0.00, -1.00, 100.4, 6.0)">e</text><text xml:space="preserve" font-family="HelveticaNeue" font-size="18.0" fill="#000000" transform="matrix(1.00, 0.00, -0.00, -1.00, 110.0, 6.0)">d</text><text xml:space="preserve" font-family="HelveticaNeue" font-size="18.0" fill="#000000" transform="matrix(1.00, 0.00, -0.00, -1.00, 120.7, 6.0)"> </text><text xml:space="preserve" font-family="HelveticaNeue" font-size="18.0" fill="#000000" transform="matrix(1.00, 0.00, -0.00, -1.00, 125.7, 6.0)">b</text><text xml:space="preserve" font-family="HelveticaNeue" font-size="18.0" fill="#000000" transform="matrix(1.00, 0.00, -0.00, -1.00, 136.4, 6.0)">y</text><text xml:space="preserve" font-family="HelveticaNeue" font-size="18.0" fill="#000000" transform="matrix(1.00, 0.00, -0.00, -1.00, 145.4, 6.0)"> </text><text xml:space="preserve" font-family="HelveticaNeue" font-size="18.0" fill="#000000" transform="matrix(1.00, 0.00, -0.00, -1.00, 150.4, 6.0)">f</text><text xml:space="preserve" font-family="HelveticaNeue" font-size="18.0" fill="#000000" transform="matrix(1.00, 0.00, -0.00, -1.00, 155.7, 6.0)">l</text><text xml:space="preserve" font-family="HelveticaNeue" font-size="18.0" fill="#000000" transform="matrix(1.00, 0.00, -0.00, -1.00, 159.7, 6.0)">y</text><text xml:space="preserve" font-family="HelveticaNeue" font-size="18.0" fill="#000000" transform="matrix(1.00, 0.00, -0.00, -1.00, 168.7, 6.0)">i</text><text xml:space="preserve" font-family="HelveticaNeue" font-size="18.0" fill="#000000" transform="matrix(1.00, 0.00, -0.00, -1.00, 172.7, 6.0)">n</text><text xml:space="preserve" font-family="HelveticaNeue" font-size="18.0" fill="#000000" transform="matrix(1.00, 0.00, -0.00, -1.00, 182.7, 6.0)">g</text><text xml:space="preserve" font-family="HelveticaNeue" font-size="18.0" fill="#000000" transform="matrix(1.00, 0.00, -0.00, -1.00, 193.0, 6.0)"> </text><text xml:space="preserve" font-family="HelveticaNeue" font-size="18.0" fill="#000000" transform="matrix(1.00, 0.00, -0.00, -1.00, 198.0, 6.0)">s</text><text xml:space="preserve" font-family="HelveticaNeue" font-size="18.0" fill="#000000" transform="matrix(1.00, 0.00, -0.00, -1.00, 207.0, 6.0)">h</text><text xml:space="preserve" font-family="HelveticaNeue" font-size="18.0" fill="#000000" transform="matrix(1.00, 0.00, -0.00, -1.00, 217.0, 6.0)">r</text><text xml:space="preserve" font-family="HelveticaNeue" font-size="18.0" fill="#000000" transform="matrix(1.00, 0.00, -0.00, -1.00, 223.0, 6.0)">a</text><text xml:space="preserve" font-family="HelveticaNeue" font-size="18.0" fill="#000000" transform="matrix(1.00, 0.00, -0.00, -1.00, 232.7, 6.0)">p</text><text xml:space="preserve" font-family="HelveticaNeue" font-size="18.0" fill="#000000" transform="matrix(1.00, 0.00, -0.00, -1.00, 243.4, 6.0)">n</text><text xml:space="preserve" font-family="HelveticaNeue" font-size="18.0" fill="#000000" transform="matrix(1.00, 0.00, -0.00, -1.00, 253.4, 6.0)">e</text><text xml:space="preserve" font-family="HelveticaNeue" font-size="18.0" fill="#000000" transform="matrix(1.00, 0.00, -0.00, -1.00, 263.1, 6.0)">l</text><text xml:space="preserve" font-family="HelveticaNeue" font-size="18.0" fill="#000000" transform="matrix(1.00, 0.00, -0.00, -1.00, 267.1, 6.0)"> </text><text xml:space="preserve" font-family="HelveticaNeue" font-size="18.0" fill="#000000" transform="matrix(1.00, 0.00, -0.00, -1.00, 272.1, 6.0)">w</text><text xml:space="preserve" font-family="HelveticaNeue" font-size="18.0" fill="#000000" transform="matrix(1.00, 0.00, -0.00, -1.00, 285.7, 6.0)">h</text><text xml:space="preserve" font-family="HelveticaNeue" font-size="18.0" fill="#000000" transform="matrix(1.00, 0.00, -0.00, -1.00, 295.7, 6.0)">e</text><text xml:space="preserve" font-family="HelveticaNeue" font-size="18.0" fill="#000000" transform="matrix(1.00, 0.00, -0.00, -1.00, 305.4, 6.0)">n</text><text xml:space="preserve" font-family="HelveticaNeue" font-size="18.0" fill="#000000" transform="matrix(1.00, 0.00, -0.00, -1.00, 315.4, 6.0)"> </text><text xml:space="preserve" font-family="HelveticaNeue" font-size="18.0" fill="#000000" transform="matrix(1.00, 0.00, -0.00, -1.00, 320.4, 6.0)">d</text><text xml:space="preserve" font-family="HelveticaNeue" font-size="18.0" fill="#000000" transform="matrix(1.00, 0.00, -0.00, -1.00, 331.1, 6.0)">r</text><text xml:space="preserve" font-family="HelveticaNeue" font-size="18.0" fill="#000000" transform="matrix(1.00, 0.00, -0.00, -1.00, 336.7, 6.0)">o</text><text xml:space="preserve" font-family="HelveticaNeue" font-size="18.0" fill="#000000" transform="matrix(1.00, 0.00, -0.00, -1.00, 347.1, 6.0)">n</text><text xml:space="preserve" font-family="HelveticaNeue" font-size="18.0" fill="#000000" transform="matrix(1.00, 0.00, -0.00, -1.00, 357.1, 6.0)">e</text><text xml:space="preserve" font-family="HelveticaNeue" font-size="18.0" fill="#000000" transform="matrix(1.00, 0.00, -0.00, -1.00, 366.7, 6.0)"> </text><text xml:space="preserve" font-family="HelveticaNeue" font-size="18.0" fill="#000000" transform="matrix(1.00, 0.00, -0.00, -1.00, 371.7, 6.0)">c</text><text xml:space="preserve" font-family="HelveticaNeue" font-size="18.0" fill="#000000" transform="matrix(1.00, 0.00, -0.00, -1.00, 381.4, 6.0)">r</text><text xml:space="preserve" font-family="HelveticaNeue" font-size="18.0" fill="#000000" transform="matrix(1.00, 0.00, -0.00, -1.00, 387.4, 6.0)">a</text><text xml:space="preserve" font-family="HelveticaNeue" font-size="18.0" fill="#000000" transform="matrix(1.00, 0.00, -0.00, -1.00, 397.1, 6.0)">s</text><text xml:space="preserve" font-family="HelveticaNeue" font-size="18.0" fill="#000000" transform="matrix(1.00, 0.00, -0.00, -1.00, 406.1, 6.0)">h</text><text xml:space="preserve" font-family="HelveticaNeue" font-size="18.0" fill="#000000" transform="matrix(1.00, 0.00, -0.00, -1.00, 416.1, 6.0)">e</text><text xml:space="preserve" font-family="HelveticaNeue" font-size="18.0" fill="#000000" transform="matrix(1.00, 0.00, -0.00, -1.00, 425.7, 6.0)">s</text><text xml:space="preserve" font-family="HelveticaNeue" font-size="18.0" fill="#000000" transform="matrix(1.00, 0.00, -0.00, -1.00, 434.7, 6.0)"> </text><text xml:space="preserve" font-family="HelveticaNeue" font-size="18.0" fill="#000000" transform="matrix(1.00, 0.00, -0.00, -1.00, 439.7, 6.0)">i</text><text xml:space="preserve" font-family="HelveticaNeue" font-size="18.0" fill="#000000" transform="matrix(1.00, 0.00, -0.00, -1.00, 443.7, 6.0)">n</text><text xml:space="preserve" font-family="HelveticaNeue" font-size="18.0" fill="#000000" transform="matrix(1.00, 0.00, -0.00, -1.00, 453.7, 6.0)"> </text><text xml:space="preserve" font-family="HelveticaNeue" font-size="18.0" fill="#000000" transform="matrix(1.00, 0.00, -0.00, -1.00, 458.8, 6.0)">P</text><text xml:space="preserve" font-family="HelveticaNeue" font-size="18.0" fill="#000000" transform="matrix(1.00, 0.00, -0.00, -1.00, 470.4, 6.0)">a</text><text xml:space="preserve" font-family="HelveticaNeue" font-size="18.0" fill="#000000" transform="matrix(1.00, 0.00, -0.00, -1.00, 480.1, 6.0)">s</text><text xml:space="preserve" font-family="HelveticaNeue" font-size="18.0" fill="#000000" transform="matrix(1.00, 0.00, -0.00, -1.00, 489.1, 6.0)">a</text><text xml:space="preserve" font-family="HelveticaNeue" font-size="18.0" fill="#000000" transform="matrix(1.00, 0.00, -0.00, -1.00, 498.7, 6.0)">d</text><text xml:space="preserve" font-family="HelveticaNeue" font-size="18.0" fill="#000000" transform="matrix(1.00, 0.00, -0.00, -1.00, 509.4, 6.0)">e</text><text xml:space="preserve" font-family="HelveticaNeue" font-size="18.0" fill="#000000" transform="matrix(1.00, 0.00, -0.00, -1.00, 519.1, 6.0)">n</text><text xml:space="preserve" font-family="HelveticaNeue" font-size="18.0" fill="#000000" transform="matrix(1.00, 0.00, -0.00, -1.00, 529.1, 6.0)">a</text></g></svg>