<?xml version="1.0" encoding="UTF-8" standalone="no"?><svg xmlns="http://www.w3.org/2000/svg" xmlns:xlink="http://www.w3.org/1999/xlink" clip-rule="evenodd" stroke-miterlimit="4.00" viewBox="0 0 720 540"><desc>SVG generated by Keynote</desc><defs></defs><g transform="matrix(1.00, 0.00, -0.00, -1.00, 0.0, 540.0)"><path d="M 0.0 540.0 L 720.0 540.0 L 720.0 0.0 L 0.0 0.0 Z M 0.0 540.0 " fill="#FFFFFF"></path><image xlink:href="../../C3AC1676-D94D-42C2-B1E4-96F17F3EAC5E/assets/189D048859ABACB48F65784CE48C0EE3.jpeg" width="367.00" height="287.00" transform="matrix(1.60, 0.00, -0.00, -1.60, 63.0, 483.0)"></image><text xml:space="preserve" font-family="Helvetica" font-size="32.0" fill="#000000" transform="matrix(1.00, 0.00, -0.00, -1.00, 45.0, 493.0)">P</text><text xml:space="preserve" font-family="Helvetica" font-size="32.0" fill="#000000" transform="matrix(1.00, 0.00, -0.00, -1.00, 66.3, 493.0)">a</text><text xml:space="preserve" font-family="Helvetica" font-size="32.0" fill="#000000" transform="matrix(1.00, 0.00, -0.00, -1.00, 84.1, 493.0)">r</text><text xml:space="preserve" font-family="Helvetica" font-size="32.0" fill="#000000" transform="matrix(1.00, 0.00, -0.00, -1.00, 94.8, 493.0)">k</text><text xml:space="preserve" font-family="Helvetica" font-size="32.0" fill="#000000" transform="matrix(1.00, 0.00, -0.00, -1.00, 110.8, 493.0)">s</text><text xml:space="preserve" font-family="Helvetica" font-size="32.0" fill="#000000" transform="matrix(1.00, 0.00, -0.00, -1.00, 126.8, 493.0)"> </text><text xml:space="preserve" font-family="Helvetica" font-size="32.0" fill="#000000" transform="matrix(1.00, 0.00, -0.00, -1.00, 135.7, 493.0)">–</text><text xml:space="preserve" font-family="Helvetica" font-size="32.0" fill="#000000" transform="matrix(1.00, 0.00, -0.00, -1.00, 153.5, 493.0)"> </text><text xml:space="preserve" font-family="Helvetica" font-size="32.0" fill="#000000" transform="matrix(1.00, 0.00, -0.00, -1.00, 160.6, 493.0)">A</text><text xml:space="preserve" font-family="Helvetica" font-size="32.0" fill="#000000" transform="matrix(1.00, 0.00, -0.00, -1.00, 182.0, 493.0)">l</text><text xml:space="preserve" font-family="Helvetica" font-size="32.0" fill="#000000" transform="matrix(1.00, 0.00, -0.00, -1.00, 189.1, 493.0)">l</text><text xml:space="preserve" font-family="Helvetica" font-size="32.0" fill="#000000" transform="matrix(1.00, 0.00, -0.00, -1.00, 196.2, 493.0)"> </text><text xml:space="preserve" font-family="Helvetica" font-size="32.0" fill="#000000" transform="matrix(1.00, 0.00, -0.00, -1.00, 205.1, 493.0)">o</text><text xml:space="preserve" font-family="Helvetica" font-size="32.0" fill="#000000" transform="matrix(1.00, 0.00, -0.00, -1.00, 222.9, 493.0)">f</text><text xml:space="preserve" font-family="Helvetica" font-size="32.0" fill="#000000" transform="matrix(1.00, 0.00, -0.00, -1.00, 231.8, 493.0)"> </text><text xml:space="preserve" font-family="Helvetica" font-size="32.0" fill="#000000" transform="matrix(1.00, 0.00, -0.00, -1.00, 240.7, 493.0)">t</text><text xml:space="preserve" font-family="Helvetica" font-size="32.0" fill="#000000" transform="matrix(1.00, 0.00, -0.00, -1.00, 249.5, 493.0)">h</text><text xml:space="preserve" font-family="Helvetica" font-size="32.0" fill="#000000" transform="matrix(1.00, 0.00, -0.00, -1.00, 267.3, 493.0)">e</text><text xml:space="preserve" font-family="Helvetica" font-size="32.0" fill="#000000" transform="matrix(1.00, 0.00, -0.00, -1.00, 285.1, 493.0)"> </text><text xml:space="preserve" font-family="Helvetica" font-size="32.0" fill="#000000" transform="matrix(1.00, 0.00, -0.00, -1.00, 294.0, 493.0)">a</text><text xml:space="preserve" font-family="Helvetica" font-size="32.0" fill="#000000" transform="matrix(1.00, 0.00, -0.00, -1.00, 311.8, 493.0)">b</text><text xml:space="preserve" font-family="Helvetica" font-size="32.0" fill="#000000" transform="matrix(1.00, 0.00, -0.00, -1.00, 329.6, 493.0)">o</text><text xml:space="preserve" font-family="Helvetica" font-size="32.0" fill="#000000" transform="matrix(1.00, 0.00, -0.00, -1.00, 347.4, 493.0)">v</text><text xml:space="preserve" font-family="Helvetica" font-size="32.0" fill="#000000" transform="matrix(1.00, 0.00, -0.00, -1.00, 363.4, 493.0)">e</text><text xml:space="preserve" font-family="Helvetica" font-size="32.0" fill="#000000" transform="matrix(1.00, 0.00, -0.00, -1.00, 381.2, 493.0)"> </text><text xml:space="preserve" font-family="Helvetica" font-size="32.0" fill="#000000" transform="matrix(1.00, 0.00, -0.00, -1.00, 390.1, 493.0)">a</text><text xml:space="preserve" font-family="Helvetica" font-size="32.0" fill="#000000" transform="matrix(1.00, 0.00, -0.00, -1.00, 407.9, 493.0)">p</text><text xml:space="preserve" font-family="Helvetica" font-size="32.0" fill="#000000" transform="matrix(1.00, 0.00, -0.00, -1.00, 425.7, 493.0)">p</text><text xml:space="preserve" font-family="Helvetica" font-size="32.0" fill="#000000" transform="matrix(1.00, 0.00, -0.00, -1.00, 443.5, 493.0)">l</text><text xml:space="preserve" font-family="Helvetica" font-size="32.0" fill="#000000" transform="matrix(1.00, 0.00, -0.00, -1.00, 450.7, 493.0)">y</text><text xml:space="preserve" font-family="Helvetica" font-size="32.0" fill="#000000" transform="matrix(1.00, 0.00, -0.00, -1.00, 466.7, 493.0)">!</text></g></svg>