<?xml version="1.0" encoding="UTF-8" standalone="no"?><svg xmlns="http://www.w3.org/2000/svg" xmlns:xlink="http://www.w3.org/1999/xlink" clip-rule="evenodd" stroke-miterlimit="4.00" viewBox="0 0 720 540"><desc>SVG generated by Keynote</desc><defs></defs><g transform="matrix(1.00, 0.00, -0.00, -1.00, 0.0, 540.0)"><path d="M 0.0 540.0 L 720.0 540.0 L 720.0 0.0 L 0.0 0.0 Z M 0.0 540.0 " fill="#FFFFFF"></path><text xml:space="preserve" font-family="Helvetica" font-size="36.0" fill="#000000" transform="matrix(1.00, 0.00, -0.00, -1.00, 19.0, 501.0)">D</text><text xml:space="preserve" font-family="Helvetica" font-size="36.0" fill="#000000" transform="matrix(1.00, 0.00, -0.00, -1.00, 45.0, 501.0)">r</text><text xml:space="preserve" font-family="Helvetica" font-size="36.0" fill="#000000" transform="matrix(1.00, 0.00, -0.00, -1.00, 57.0, 501.0)">o</text><text xml:space="preserve" font-family="Helvetica" font-size="36.0" fill="#000000" transform="matrix(1.00, 0.00, -0.00, -1.00, 77.0, 501.0)">n</text><text xml:space="preserve" font-family="Helvetica" font-size="36.0" fill="#000000" transform="matrix(1.00, 0.00, -0.00, -1.00, 97.1, 501.0)">e</text><text xml:space="preserve" font-family="Helvetica" font-size="36.0" fill="#000000" transform="matrix(1.00, 0.00, -0.00, -1.00, 117.1, 501.0)">s</text><text xml:space="preserve" font-family="Helvetica" font-size="36.0" fill="#000000" transform="matrix(1.00, 0.00, -0.00, -1.00, 135.1, 501.0)"> </text><text xml:space="preserve" font-family="Helvetica" font-size="36.0" fill="#000000" transform="matrix(1.00, 0.00, -0.00, -1.00, 145.1, 501.0)">a</text><text xml:space="preserve" font-family="Helvetica" font-size="36.0" fill="#000000" transform="matrix(1.00, 0.00, -0.00, -1.00, 165.1, 501.0)">n</text><text xml:space="preserve" font-family="Helvetica" font-size="36.0" fill="#000000" transform="matrix(1.00, 0.00, -0.00, -1.00, 185.1, 501.0)">d</text><text xml:space="preserve" font-family="Helvetica" font-size="36.0" fill="#000000" transform="matrix(1.00, 0.00, -0.00, -1.00, 205.2, 501.0)"> </text><text xml:space="preserve" font-family="Helvetica" font-size="36.0" fill="#000000" transform="matrix(1.00, 0.00, -0.00, -1.00, 215.2, 501.0)">W</text><text xml:space="preserve" font-family="Helvetica" font-size="36.0" fill="#000000" transform="matrix(1.00, 0.00, -0.00, -1.00, 249.1, 501.0)">i</text><text xml:space="preserve" font-family="Helvetica" font-size="36.0" fill="#000000" transform="matrix(1.00, 0.00, -0.00, -1.00, 257.1, 501.0)">l</text><text xml:space="preserve" font-family="Helvetica" font-size="36.0" fill="#000000" transform="matrix(1.00, 0.00, -0.00, -1.00, 265.1, 501.0)">d</text><text xml:space="preserve" font-family="Helvetica" font-size="36.0" fill="#000000" transform="matrix(1.00, 0.00, -0.00, -1.00, 285.2, 501.0)">l</text><text xml:space="preserve" font-family="Helvetica" font-size="36.0" fill="#000000" transform="matrix(1.00, 0.00, -0.00, -1.00, 293.2, 501.0)">i</text><text xml:space="preserve" font-family="Helvetica" font-size="36.0" fill="#000000" transform="matrix(1.00, 0.00, -0.00, -1.00, 301.2, 501.0)">f</text><text xml:space="preserve" font-family="Helvetica" font-size="36.0" fill="#000000" transform="matrix(1.00, 0.00, -0.00, -1.00, 311.2, 501.0)">e</text><text xml:space="preserve" font-family="Helvetica" font-size="36.0" fill="#000000" transform="matrix(1.00, 0.00, -0.00, -1.00, 331.2, 501.0)"> </text><text xml:space="preserve" font-family="Helvetica" font-size="36.0" fill="#000000" transform="matrix(1.00, 0.00, -0.00, -1.00, 341.2, 501.0)">–</text><text xml:space="preserve" font-family="Helvetica" font-size="36.0" fill="#000000" transform="matrix(1.00, 0.00, -0.00, -1.00, 361.2, 501.0)"> </text><text xml:space="preserve" font-family="Helvetica" font-size="36.0" fill="#000000" transform="matrix(1.00, 0.00, -0.00, -1.00, 19.0, 458.0)">T</text><text xml:space="preserve" font-family="Helvetica" font-size="36.0" fill="#000000" transform="matrix(1.00, 0.00, -0.00, -1.00, 41.0, 458.0)">h</text><text xml:space="preserve" font-family="Helvetica" font-size="36.0" fill="#000000" transform="matrix(1.00, 0.00, -0.00, -1.00, 61.0, 458.0)">e</text><text xml:space="preserve" font-family="Helvetica" font-size="36.0" fill="#000000" transform="matrix(1.00, 0.00, -0.00, -1.00, 81.0, 458.0)"> </text><text xml:space="preserve" font-family="Helvetica" font-size="36.0" fill="#000000" transform="matrix(1.00, 0.00, -0.00, -1.00, 91.0, 458.0)">G</text><text xml:space="preserve" font-family="Helvetica" font-size="36.0" fill="#000000" transform="matrix(1.00, 0.00, -0.00, -1.00, 119.0, 458.0)">a</text><text xml:space="preserve" font-family="Helvetica" font-size="36.0" fill="#000000" transform="matrix(1.00, 0.00, -0.00, -1.00, 139.1, 458.0)">r</text><text xml:space="preserve" font-family="Helvetica" font-size="36.0" fill="#000000" transform="matrix(1.00, 0.00, -0.00, -1.00, 151.0, 458.0)">d</text><text xml:space="preserve" font-family="Helvetica" font-size="36.0" fill="#000000" transform="matrix(1.00, 0.00, -0.00, -1.00, 171.1, 458.0)">e</text><text xml:space="preserve" font-family="Helvetica" font-size="36.0" fill="#000000" transform="matrix(1.00, 0.00, -0.00, -1.00, 191.1, 458.0)">n</text><text xml:space="preserve" font-family="Helvetica" font-size="36.0" fill="#000000" transform="matrix(1.00, 0.00, -0.00, -1.00, 211.1, 458.0)"> </text><text xml:space="preserve" font-family="Helvetica" font-size="36.0" fill="#000000" transform="matrix(1.00, 0.00, -0.00, -1.00, 221.1, 458.0)">o</text><text xml:space="preserve" font-family="Helvetica" font-size="36.0" fill="#000000" transform="matrix(1.00, 0.00, -0.00, -1.00, 241.2, 458.0)">f</text><text xml:space="preserve" font-family="Helvetica" font-size="36.0" fill="#000000" transform="matrix(1.00, 0.00, -0.00, -1.00, 251.2, 458.0)"> </text><text xml:space="preserve" font-family="Helvetica" font-size="36.0" fill="#000000" transform="matrix(1.00, 0.00, -0.00, -1.00, 261.1, 458.0)">G</text><text xml:space="preserve" font-family="Helvetica" font-size="36.0" fill="#000000" transform="matrix(1.00, 0.00, -0.00, -1.00, 289.1, 458.0)">o</text><text xml:space="preserve" font-family="Helvetica" font-size="36.0" fill="#000000" transform="matrix(1.00, 0.00, -0.00, -1.00, 309.2, 458.0)">o</text><text xml:space="preserve" font-family="Helvetica" font-size="36.0" fill="#000000" transform="matrix(1.00, 0.00, -0.00, -1.00, 329.2, 458.0)">d</text><text xml:space="preserve" font-family="Helvetica" font-size="36.0" fill="#000000" transform="matrix(1.00, 0.00, -0.00, -1.00, 349.2, 458.0)">…</text></g></svg>